G04 #@! TF.GenerationSoftware,KiCad,Pcbnew,5.1.5-52549c5~84~ubuntu18.04.1*
G04 #@! TF.CreationDate,2020-09-18T13:51:24-05:00*
G04 #@! TF.ProjectId,pcb,7063622e-6b69-4636-9164-5f7063625858,rev?*
G04 #@! TF.SameCoordinates,Original*
G04 #@! TF.FileFunction,Copper,L2,Bot*
G04 #@! TF.FilePolarity,Positive*
%FSLAX46Y46*%
G04 Gerber Fmt 4.6, Leading zero omitted, Abs format (unit mm)*
G04 Created by KiCad (PCBNEW 5.1.5-52549c5~84~ubuntu18.04.1) date 2020-09-18 13:51:24*
%MOMM*%
%LPD*%
G04 APERTURE LIST*
%ADD10O,1.600000X1.600000*%
%ADD11C,1.600000*%
%ADD12R,1.600000X1.600000*%
%ADD13O,1.700000X1.700000*%
%ADD14R,1.700000X1.700000*%
%ADD15C,0.150000*%
%ADD16R,3.500000X3.500000*%
%ADD17C,1.650000*%
%ADD18R,1.650000X1.650000*%
%ADD19O,1.600000X2.400000*%
%ADD20R,1.600000X2.400000*%
%ADD21C,1.800000*%
%ADD22R,1.800000X1.800000*%
%ADD23C,0.400000*%
%ADD24C,0.254000*%
G04 APERTURE END LIST*
D10*
X221336000Y-169050000D03*
D11*
X221336000Y-161430000D03*
D12*
X206086000Y-117234000D03*
D10*
X221326000Y-150254000D03*
X206086000Y-119774000D03*
X221326000Y-147714000D03*
X206086000Y-122314000D03*
X221326000Y-145174000D03*
X206086000Y-124854000D03*
X221326000Y-142634000D03*
X206086000Y-127394000D03*
X221326000Y-140094000D03*
X206086000Y-129934000D03*
X221326000Y-137554000D03*
X206086000Y-132474000D03*
X221326000Y-135014000D03*
X206086000Y-135014000D03*
X221326000Y-132474000D03*
X206086000Y-137554000D03*
X221326000Y-129934000D03*
X206086000Y-140094000D03*
X221326000Y-127394000D03*
X206086000Y-142634000D03*
X221326000Y-124854000D03*
X206086000Y-145174000D03*
X221326000Y-122314000D03*
X206086000Y-147714000D03*
X221326000Y-119774000D03*
X206086000Y-150254000D03*
X221326000Y-117234000D03*
X206086000Y-152794000D03*
X221326000Y-152794000D03*
D13*
X182220000Y-119774000D03*
X182220000Y-122314000D03*
X182220000Y-124854000D03*
D14*
X182220000Y-127394000D03*
D10*
X243180000Y-148730000D03*
D11*
X243180000Y-156350000D03*
D10*
X237592000Y-148730000D03*
D11*
X237592000Y-156350000D03*
D10*
X232004000Y-148730000D03*
D11*
X232004000Y-156350000D03*
D10*
X226416000Y-148730000D03*
D11*
X226416000Y-156350000D03*
D10*
X206096000Y-169050000D03*
D11*
X206096000Y-161430000D03*
D10*
X211176000Y-169050000D03*
D11*
X211176000Y-161430000D03*
D10*
X216256000Y-169050000D03*
D11*
X216256000Y-161430000D03*
G04 #@! TA.AperFunction,ComponentPad*
D15*
G36*
X189170765Y-145004213D02*
G01*
X189255704Y-145016813D01*
X189338999Y-145037677D01*
X189419848Y-145066605D01*
X189497472Y-145103319D01*
X189571124Y-145147464D01*
X189640094Y-145198616D01*
X189703718Y-145256282D01*
X189761384Y-145319906D01*
X189812536Y-145388876D01*
X189856681Y-145462528D01*
X189893395Y-145540152D01*
X189922323Y-145621001D01*
X189943187Y-145704296D01*
X189955787Y-145789235D01*
X189960000Y-145875000D01*
X189960000Y-147625000D01*
X189955787Y-147710765D01*
X189943187Y-147795704D01*
X189922323Y-147878999D01*
X189893395Y-147959848D01*
X189856681Y-148037472D01*
X189812536Y-148111124D01*
X189761384Y-148180094D01*
X189703718Y-148243718D01*
X189640094Y-148301384D01*
X189571124Y-148352536D01*
X189497472Y-148396681D01*
X189419848Y-148433395D01*
X189338999Y-148462323D01*
X189255704Y-148483187D01*
X189170765Y-148495787D01*
X189085000Y-148500000D01*
X187335000Y-148500000D01*
X187249235Y-148495787D01*
X187164296Y-148483187D01*
X187081001Y-148462323D01*
X187000152Y-148433395D01*
X186922528Y-148396681D01*
X186848876Y-148352536D01*
X186779906Y-148301384D01*
X186716282Y-148243718D01*
X186658616Y-148180094D01*
X186607464Y-148111124D01*
X186563319Y-148037472D01*
X186526605Y-147959848D01*
X186497677Y-147878999D01*
X186476813Y-147795704D01*
X186464213Y-147710765D01*
X186460000Y-147625000D01*
X186460000Y-145875000D01*
X186464213Y-145789235D01*
X186476813Y-145704296D01*
X186497677Y-145621001D01*
X186526605Y-145540152D01*
X186563319Y-145462528D01*
X186607464Y-145388876D01*
X186658616Y-145319906D01*
X186716282Y-145256282D01*
X186779906Y-145198616D01*
X186848876Y-145147464D01*
X186922528Y-145103319D01*
X187000152Y-145066605D01*
X187081001Y-145037677D01*
X187164296Y-145016813D01*
X187249235Y-145004213D01*
X187335000Y-145000000D01*
X189085000Y-145000000D01*
X189170765Y-145004213D01*
G37*
G04 #@! TD.AperFunction*
G04 #@! TA.AperFunction,ComponentPad*
G36*
X186033513Y-140303611D02*
G01*
X186106318Y-140314411D01*
X186177714Y-140332295D01*
X186247013Y-140357090D01*
X186313548Y-140388559D01*
X186376678Y-140426398D01*
X186435795Y-140470242D01*
X186490330Y-140519670D01*
X186539758Y-140574205D01*
X186583602Y-140633322D01*
X186621441Y-140696452D01*
X186652910Y-140762987D01*
X186677705Y-140832286D01*
X186695589Y-140903682D01*
X186706389Y-140976487D01*
X186710000Y-141050000D01*
X186710000Y-143050000D01*
X186706389Y-143123513D01*
X186695589Y-143196318D01*
X186677705Y-143267714D01*
X186652910Y-143337013D01*
X186621441Y-143403548D01*
X186583602Y-143466678D01*
X186539758Y-143525795D01*
X186490330Y-143580330D01*
X186435795Y-143629758D01*
X186376678Y-143673602D01*
X186313548Y-143711441D01*
X186247013Y-143742910D01*
X186177714Y-143767705D01*
X186106318Y-143785589D01*
X186033513Y-143796389D01*
X185960000Y-143800000D01*
X184460000Y-143800000D01*
X184386487Y-143796389D01*
X184313682Y-143785589D01*
X184242286Y-143767705D01*
X184172987Y-143742910D01*
X184106452Y-143711441D01*
X184043322Y-143673602D01*
X183984205Y-143629758D01*
X183929670Y-143580330D01*
X183880242Y-143525795D01*
X183836398Y-143466678D01*
X183798559Y-143403548D01*
X183767090Y-143337013D01*
X183742295Y-143267714D01*
X183724411Y-143196318D01*
X183713611Y-143123513D01*
X183710000Y-143050000D01*
X183710000Y-141050000D01*
X183713611Y-140976487D01*
X183724411Y-140903682D01*
X183742295Y-140832286D01*
X183767090Y-140762987D01*
X183798559Y-140696452D01*
X183836398Y-140633322D01*
X183880242Y-140574205D01*
X183929670Y-140519670D01*
X183984205Y-140470242D01*
X184043322Y-140426398D01*
X184106452Y-140388559D01*
X184172987Y-140357090D01*
X184242286Y-140332295D01*
X184313682Y-140314411D01*
X184386487Y-140303611D01*
X184460000Y-140300000D01*
X185960000Y-140300000D01*
X186033513Y-140303611D01*
G37*
G04 #@! TD.AperFunction*
D16*
X191210000Y-142050000D03*
D13*
X182080000Y-156648000D03*
X182080000Y-159188000D03*
X182080000Y-161728000D03*
D14*
X182080000Y-164268000D03*
D17*
X186144000Y-151568000D03*
X186144000Y-154108000D03*
X186144000Y-156648000D03*
X186144000Y-159188000D03*
X186144000Y-169348000D03*
X186144000Y-166808000D03*
X186144000Y-164268000D03*
D18*
X198844000Y-169348000D03*
D17*
X198844000Y-166808000D03*
X198844000Y-164268000D03*
X198844000Y-151568000D03*
X198844000Y-154108000D03*
X198844000Y-156648000D03*
X198844000Y-159188000D03*
X186144000Y-161728000D03*
X198844000Y-161728000D03*
X186284000Y-114694000D03*
X186284000Y-117234000D03*
X186284000Y-119774000D03*
X186284000Y-122314000D03*
X186284000Y-132474000D03*
X186284000Y-129934000D03*
X186284000Y-127394000D03*
D18*
X198984000Y-132474000D03*
D17*
X198984000Y-129934000D03*
X198984000Y-127394000D03*
X198984000Y-114694000D03*
X198984000Y-117234000D03*
X198984000Y-119774000D03*
X198984000Y-122314000D03*
X186284000Y-124854000D03*
X198984000Y-124854000D03*
D13*
X226670000Y-161430000D03*
X229210000Y-161430000D03*
D14*
X231750000Y-161430000D03*
D13*
X226924000Y-168542000D03*
X229464000Y-168542000D03*
D14*
X232004000Y-168542000D03*
D13*
X237846000Y-168542000D03*
X240386000Y-168542000D03*
D14*
X242926000Y-168542000D03*
D13*
X237846000Y-161430000D03*
X240386000Y-161430000D03*
D14*
X242926000Y-161430000D03*
D19*
X243434000Y-139078000D03*
X225654000Y-131458000D03*
X240894000Y-139078000D03*
X228194000Y-131458000D03*
X238354000Y-139078000D03*
X230734000Y-131458000D03*
X235814000Y-139078000D03*
X233274000Y-131458000D03*
X233274000Y-139078000D03*
X235814000Y-131458000D03*
X230734000Y-139078000D03*
X238354000Y-131458000D03*
X228194000Y-139078000D03*
X240894000Y-131458000D03*
X225654000Y-139078000D03*
D20*
X243434000Y-131458000D03*
D21*
X243180000Y-145682000D03*
D22*
X243180000Y-143142000D03*
D21*
X237592000Y-145682000D03*
D22*
X237592000Y-143142000D03*
D21*
X232004000Y-145682000D03*
D22*
X232004000Y-143142000D03*
D21*
X226416000Y-145682000D03*
D22*
X226416000Y-143142000D03*
G04 #@! TA.AperFunction,ComponentPad*
D15*
G36*
X237996765Y-117392213D02*
G01*
X238081704Y-117404813D01*
X238164999Y-117425677D01*
X238245848Y-117454605D01*
X238323472Y-117491319D01*
X238397124Y-117535464D01*
X238466094Y-117586616D01*
X238529718Y-117644282D01*
X238587384Y-117707906D01*
X238638536Y-117776876D01*
X238682681Y-117850528D01*
X238719395Y-117928152D01*
X238748323Y-118009001D01*
X238769187Y-118092296D01*
X238781787Y-118177235D01*
X238786000Y-118263000D01*
X238786000Y-120013000D01*
X238781787Y-120098765D01*
X238769187Y-120183704D01*
X238748323Y-120266999D01*
X238719395Y-120347848D01*
X238682681Y-120425472D01*
X238638536Y-120499124D01*
X238587384Y-120568094D01*
X238529718Y-120631718D01*
X238466094Y-120689384D01*
X238397124Y-120740536D01*
X238323472Y-120784681D01*
X238245848Y-120821395D01*
X238164999Y-120850323D01*
X238081704Y-120871187D01*
X237996765Y-120883787D01*
X237911000Y-120888000D01*
X236161000Y-120888000D01*
X236075235Y-120883787D01*
X235990296Y-120871187D01*
X235907001Y-120850323D01*
X235826152Y-120821395D01*
X235748528Y-120784681D01*
X235674876Y-120740536D01*
X235605906Y-120689384D01*
X235542282Y-120631718D01*
X235484616Y-120568094D01*
X235433464Y-120499124D01*
X235389319Y-120425472D01*
X235352605Y-120347848D01*
X235323677Y-120266999D01*
X235302813Y-120183704D01*
X235290213Y-120098765D01*
X235286000Y-120013000D01*
X235286000Y-118263000D01*
X235290213Y-118177235D01*
X235302813Y-118092296D01*
X235323677Y-118009001D01*
X235352605Y-117928152D01*
X235389319Y-117850528D01*
X235433464Y-117776876D01*
X235484616Y-117707906D01*
X235542282Y-117644282D01*
X235605906Y-117586616D01*
X235674876Y-117535464D01*
X235748528Y-117491319D01*
X235826152Y-117454605D01*
X235907001Y-117425677D01*
X235990296Y-117404813D01*
X236075235Y-117392213D01*
X236161000Y-117388000D01*
X237911000Y-117388000D01*
X237996765Y-117392213D01*
G37*
G04 #@! TD.AperFunction*
G04 #@! TA.AperFunction,ComponentPad*
G36*
X240859513Y-122091611D02*
G01*
X240932318Y-122102411D01*
X241003714Y-122120295D01*
X241073013Y-122145090D01*
X241139548Y-122176559D01*
X241202678Y-122214398D01*
X241261795Y-122258242D01*
X241316330Y-122307670D01*
X241365758Y-122362205D01*
X241409602Y-122421322D01*
X241447441Y-122484452D01*
X241478910Y-122550987D01*
X241503705Y-122620286D01*
X241521589Y-122691682D01*
X241532389Y-122764487D01*
X241536000Y-122838000D01*
X241536000Y-124838000D01*
X241532389Y-124911513D01*
X241521589Y-124984318D01*
X241503705Y-125055714D01*
X241478910Y-125125013D01*
X241447441Y-125191548D01*
X241409602Y-125254678D01*
X241365758Y-125313795D01*
X241316330Y-125368330D01*
X241261795Y-125417758D01*
X241202678Y-125461602D01*
X241139548Y-125499441D01*
X241073013Y-125530910D01*
X241003714Y-125555705D01*
X240932318Y-125573589D01*
X240859513Y-125584389D01*
X240786000Y-125588000D01*
X239286000Y-125588000D01*
X239212487Y-125584389D01*
X239139682Y-125573589D01*
X239068286Y-125555705D01*
X238998987Y-125530910D01*
X238932452Y-125499441D01*
X238869322Y-125461602D01*
X238810205Y-125417758D01*
X238755670Y-125368330D01*
X238706242Y-125313795D01*
X238662398Y-125254678D01*
X238624559Y-125191548D01*
X238593090Y-125125013D01*
X238568295Y-125055714D01*
X238550411Y-124984318D01*
X238539611Y-124911513D01*
X238536000Y-124838000D01*
X238536000Y-122838000D01*
X238539611Y-122764487D01*
X238550411Y-122691682D01*
X238568295Y-122620286D01*
X238593090Y-122550987D01*
X238624559Y-122484452D01*
X238662398Y-122421322D01*
X238706242Y-122362205D01*
X238755670Y-122307670D01*
X238810205Y-122258242D01*
X238869322Y-122214398D01*
X238932452Y-122176559D01*
X238998987Y-122145090D01*
X239068286Y-122120295D01*
X239139682Y-122102411D01*
X239212487Y-122091611D01*
X239286000Y-122088000D01*
X240786000Y-122088000D01*
X240859513Y-122091611D01*
G37*
G04 #@! TD.AperFunction*
D16*
X234036000Y-123838000D03*
D23*
X240144500Y-136347500D02*
X243434000Y-133058000D01*
X243434000Y-133058000D02*
X243434000Y-131458000D01*
X221326000Y-140094000D02*
X225072500Y-136347500D01*
X225072500Y-136347500D02*
X227241500Y-136347500D01*
X227241500Y-136347500D02*
X240144500Y-136347500D01*
X240894000Y-133058000D02*
X240894000Y-131458000D01*
X238557000Y-135395000D02*
X240894000Y-133058000D01*
X222606000Y-137554000D02*
X221326000Y-137554000D01*
X224765000Y-135395000D02*
X222606000Y-137554000D01*
X224765000Y-135395000D02*
X238557000Y-135395000D01*
X201016000Y-132474000D02*
X198984000Y-132474000D01*
X205286001Y-136754001D02*
X205286001Y-136744001D01*
X206086000Y-137554000D02*
X205286001Y-136754001D01*
X205286001Y-136744001D02*
X201016000Y-132474000D01*
X238354000Y-133058000D02*
X238354000Y-131458000D01*
X236969500Y-134442500D02*
X238354000Y-133058000D01*
X223876000Y-135014000D02*
X221326000Y-135014000D01*
X224447500Y-134442500D02*
X223876000Y-135014000D01*
X224447500Y-134442500D02*
X236969500Y-134442500D01*
X200762000Y-117234000D02*
X198984000Y-117234000D01*
X206086000Y-135014000D02*
X205286001Y-134214001D01*
X202540000Y-131458000D02*
X202540000Y-119012000D01*
X205286001Y-134204001D02*
X202540000Y-131458000D01*
X205286001Y-134214001D02*
X205286001Y-134204001D01*
X202540000Y-119012000D02*
X200762000Y-117234000D01*
X235814000Y-133058000D02*
X235814000Y-131458000D01*
X235382000Y-133490000D02*
X235814000Y-133058000D01*
X224384000Y-133490000D02*
X223368000Y-132474000D01*
X224384000Y-133490000D02*
X235306000Y-133490000D01*
X223368000Y-132474000D02*
X221326000Y-132474000D01*
X206086000Y-132474000D02*
X203810000Y-130198000D01*
X203810000Y-130198000D02*
X203810000Y-116980000D01*
X203810000Y-116980000D02*
X201524000Y-114694000D01*
X201524000Y-114694000D02*
X198984000Y-114694000D01*
X198844000Y-147336000D02*
X198844000Y-151568000D01*
X206086000Y-140094000D02*
X198844000Y-147336000D01*
X206086000Y-145174000D02*
X203910000Y-147350000D01*
X200069000Y-169348000D02*
X198844000Y-169348000D01*
X203910000Y-165507000D02*
X200069000Y-169348000D01*
X203910000Y-147350000D02*
X203910000Y-165507000D01*
X200010726Y-154108000D02*
X202150000Y-151968726D01*
X198844000Y-154108000D02*
X200010726Y-154108000D01*
X202150000Y-146570000D02*
X206086000Y-142634000D01*
X202150000Y-151968726D02*
X202150000Y-146570000D01*
X216256000Y-150244000D02*
X221326000Y-145174000D01*
X216256000Y-161430000D02*
X216256000Y-150244000D01*
X237846000Y-161430000D02*
X235052000Y-164224000D01*
X219050000Y-164224000D02*
X216256000Y-161430000D01*
X235052000Y-164224000D02*
X219050000Y-164224000D01*
X211006666Y-155174666D02*
X211006666Y-161430000D01*
X206086000Y-150254000D02*
X211006666Y-155174666D01*
X236643919Y-168542000D02*
X234103919Y-166002000D01*
X237846000Y-168542000D02*
X236643919Y-168542000D01*
X234103919Y-166002000D02*
X213462000Y-166002000D01*
X211176000Y-163716000D02*
X211176000Y-161430000D01*
X213462000Y-166002000D02*
X211176000Y-163716000D01*
X224130000Y-140602000D02*
X225654000Y-139078000D01*
X224130000Y-150000000D02*
X224130000Y-140602000D01*
X225908000Y-151778000D02*
X224130000Y-150000000D01*
X229972000Y-151778000D02*
X225908000Y-151778000D01*
X232004000Y-156350000D02*
X232004000Y-153810000D01*
X232004000Y-153810000D02*
X229972000Y-151778000D01*
X242048630Y-156350000D02*
X237592000Y-156350000D01*
X243180000Y-156350000D02*
X242048630Y-156350000D01*
X237592000Y-156350000D02*
X232004000Y-156350000D01*
X230872630Y-156350000D02*
X226416000Y-156350000D01*
X232004000Y-156350000D02*
X230872630Y-156350000D01*
X222457370Y-117234000D02*
X221326000Y-117234000D01*
X225282000Y-117234000D02*
X222457370Y-117234000D01*
X231886000Y-123838000D02*
X225282000Y-117234000D01*
X234036000Y-123838000D02*
X231886000Y-123838000D01*
X240386000Y-170320000D02*
X240386000Y-168542000D01*
X239878000Y-170828000D02*
X240386000Y-170320000D01*
X229972000Y-170828000D02*
X239878000Y-170828000D01*
X229464000Y-168542000D02*
X229464000Y-170320000D01*
X229464000Y-170320000D02*
X229972000Y-170828000D01*
X240386000Y-168542000D02*
X240386000Y-161430000D01*
X243180000Y-158636000D02*
X243180000Y-156350000D01*
X240386000Y-161430000D02*
X243180000Y-158636000D01*
X229210000Y-159144000D02*
X232004000Y-156350000D01*
X229210000Y-161430000D02*
X229210000Y-159144000D01*
X225654000Y-138570000D02*
X226924000Y-137300000D01*
X245466000Y-121044000D02*
X240132000Y-115710000D01*
X245466000Y-135657781D02*
X245466000Y-121044000D01*
X234036000Y-116472000D02*
X234036000Y-123838000D01*
X240132000Y-115710000D02*
X234798000Y-115710000D01*
X225654000Y-139078000D02*
X225654000Y-138570000D01*
X243823781Y-137300000D02*
X245466000Y-135657781D01*
X234798000Y-115710000D02*
X234036000Y-116472000D01*
X226924000Y-137300000D02*
X243823781Y-137300000D01*
X181986000Y-117234000D02*
X186284000Y-117234000D01*
X180050000Y-119170000D02*
X181986000Y-117234000D01*
X180050000Y-142640000D02*
X180050000Y-119170000D01*
X187840000Y-150430000D02*
X180050000Y-142640000D01*
X186144000Y-154108000D02*
X187840000Y-152412000D01*
X187840000Y-152412000D02*
X187840000Y-150430000D01*
X186284000Y-117234000D02*
X189316000Y-117234000D01*
X189316000Y-117234000D02*
X194540000Y-112010000D01*
X216102000Y-112010000D02*
X221326000Y-117234000D01*
X194540000Y-112010000D02*
X216102000Y-112010000D01*
X206086000Y-161186000D02*
X205842000Y-161430000D01*
X206086000Y-152794000D02*
X206086000Y-161186000D01*
X226924000Y-168542000D02*
X225654000Y-167272000D01*
X225654000Y-167272000D02*
X209906000Y-167272000D01*
X206096000Y-163462000D02*
X206096000Y-161430000D01*
X209906000Y-167272000D02*
X206096000Y-163462000D01*
X221336000Y-152804000D02*
X221326000Y-152794000D01*
X221336000Y-161430000D02*
X221336000Y-152804000D01*
X226670000Y-161430000D02*
X221336000Y-161430000D01*
X235814000Y-140678000D02*
X235128000Y-141364000D01*
X235814000Y-139078000D02*
X235814000Y-140678000D01*
X226894000Y-141364000D02*
X226416000Y-141842000D01*
X226416000Y-141842000D02*
X226416000Y-143142000D01*
X235128000Y-141364000D02*
X226894000Y-141364000D01*
X226416000Y-145682000D02*
X226416000Y-148730000D01*
X232004000Y-145682000D02*
X232004000Y-148730000D01*
X232004000Y-143142000D02*
X234798000Y-143142000D01*
X234798000Y-143142000D02*
X236576000Y-141364000D01*
X238354000Y-140678000D02*
X238354000Y-139078000D01*
X237668000Y-141364000D02*
X238354000Y-140678000D01*
X236576000Y-141364000D02*
X237668000Y-141364000D01*
X238430000Y-143142000D02*
X237592000Y-143142000D01*
X240894000Y-140678000D02*
X238430000Y-143142000D01*
X240894000Y-139078000D02*
X240894000Y-140678000D01*
X237592000Y-145682000D02*
X237592000Y-148730000D01*
X243180000Y-145682000D02*
X243180000Y-148730000D01*
X243180000Y-139332000D02*
X243434000Y-139078000D01*
X243180000Y-143142000D02*
X243180000Y-139332000D01*
X182220000Y-124854000D02*
X186284000Y-124854000D01*
X183470000Y-127394000D02*
X186284000Y-127394000D01*
X182220000Y-127394000D02*
X183470000Y-127394000D01*
X185008999Y-131209001D02*
X185008999Y-140098999D01*
X185210000Y-140300000D02*
X185210000Y-142050000D01*
X185008999Y-140098999D02*
X185210000Y-140300000D01*
X186284000Y-129934000D02*
X185008999Y-131209001D01*
X188210000Y-145000000D02*
X188210000Y-146750000D01*
X188210000Y-143550000D02*
X188210000Y-145000000D01*
X186710000Y-142050000D02*
X188210000Y-143550000D01*
X185210000Y-142050000D02*
X186710000Y-142050000D01*
X188210000Y-148500000D02*
X189400000Y-149690000D01*
X188210000Y-146750000D02*
X188210000Y-148500000D01*
X189400000Y-163552000D02*
X186144000Y-166808000D01*
X189400000Y-149690000D02*
X189400000Y-163552000D01*
X191210000Y-136233274D02*
X191210000Y-139900000D01*
X187450726Y-132474000D02*
X191210000Y-136233274D01*
X191210000Y-139900000D02*
X191210000Y-142050000D01*
X186284000Y-132474000D02*
X187450726Y-132474000D01*
X191210000Y-144200000D02*
X191210000Y-142050000D01*
X191210000Y-165448726D02*
X191210000Y-144200000D01*
X187310726Y-169348000D02*
X191210000Y-165448726D01*
X186144000Y-169348000D02*
X187310726Y-169348000D01*
X182220000Y-122314000D02*
X186284000Y-122314000D01*
X182220000Y-119774000D02*
X186284000Y-119774000D01*
X186144000Y-156648000D02*
X182080000Y-156648000D01*
X183282081Y-159188000D02*
X186144000Y-159188000D01*
X182080000Y-159188000D02*
X183282081Y-159188000D01*
X183330000Y-164268000D02*
X186144000Y-164268000D01*
X182080000Y-164268000D02*
X183330000Y-164268000D01*
X182080000Y-161728000D02*
X186144000Y-161728000D01*
D24*
G36*
X193946709Y-111416709D02*
G01*
X193920563Y-111448568D01*
X188970133Y-116399000D01*
X187481998Y-116399000D01*
X187418056Y-116303304D01*
X187214696Y-116099944D01*
X187013424Y-115965459D01*
X187040337Y-115951073D01*
X187114946Y-115704551D01*
X186284000Y-114873605D01*
X185453054Y-115704551D01*
X185527663Y-115951073D01*
X185555977Y-115964523D01*
X185353304Y-116099944D01*
X185149944Y-116303304D01*
X185086002Y-116399000D01*
X182027007Y-116399000D01*
X181985999Y-116394961D01*
X181944991Y-116399000D01*
X181944981Y-116399000D01*
X181822311Y-116411082D01*
X181664913Y-116458828D01*
X181519854Y-116536364D01*
X181392709Y-116640709D01*
X181366561Y-116672571D01*
X179488574Y-118550559D01*
X179456710Y-118576709D01*
X179388878Y-118659363D01*
X179352364Y-118703855D01*
X179274828Y-118848914D01*
X179227082Y-119006312D01*
X179210960Y-119170000D01*
X179215001Y-119211029D01*
X179215000Y-142598982D01*
X179210960Y-142640000D01*
X179215000Y-142681018D01*
X179227082Y-142803688D01*
X179274828Y-142961086D01*
X179352364Y-143106145D01*
X179456709Y-143233291D01*
X179488579Y-143259446D01*
X186345484Y-150116353D01*
X186074479Y-150102583D01*
X185789926Y-150144303D01*
X185518980Y-150240735D01*
X185387663Y-150310927D01*
X185313054Y-150557449D01*
X186144000Y-151388395D01*
X186158143Y-151374253D01*
X186337748Y-151553858D01*
X186323605Y-151568000D01*
X186337748Y-151582143D01*
X186158143Y-151761748D01*
X186144000Y-151747605D01*
X185313054Y-152578551D01*
X185387663Y-152825073D01*
X185415977Y-152838523D01*
X185213304Y-152973944D01*
X185009944Y-153177304D01*
X184850165Y-153416431D01*
X184740107Y-153682134D01*
X184684000Y-153964203D01*
X184684000Y-154251797D01*
X184740107Y-154533866D01*
X184850165Y-154799569D01*
X185009944Y-155038696D01*
X185213304Y-155242056D01*
X185416759Y-155378000D01*
X185213304Y-155513944D01*
X185009944Y-155717304D01*
X184946002Y-155813000D01*
X183308065Y-155813000D01*
X183233475Y-155701368D01*
X183026632Y-155494525D01*
X182783411Y-155332010D01*
X182513158Y-155220068D01*
X182226260Y-155163000D01*
X181933740Y-155163000D01*
X181646842Y-155220068D01*
X181376589Y-155332010D01*
X181133368Y-155494525D01*
X180926525Y-155701368D01*
X180764010Y-155944589D01*
X180652068Y-156214842D01*
X180595000Y-156501740D01*
X180595000Y-156794260D01*
X180652068Y-157081158D01*
X180764010Y-157351411D01*
X180926525Y-157594632D01*
X181133368Y-157801475D01*
X181307760Y-157918000D01*
X181133368Y-158034525D01*
X180926525Y-158241368D01*
X180764010Y-158484589D01*
X180652068Y-158754842D01*
X180595000Y-159041740D01*
X180595000Y-159334260D01*
X180652068Y-159621158D01*
X180764010Y-159891411D01*
X180926525Y-160134632D01*
X181133368Y-160341475D01*
X181307760Y-160458000D01*
X181133368Y-160574525D01*
X180926525Y-160781368D01*
X180764010Y-161024589D01*
X180652068Y-161294842D01*
X180595000Y-161581740D01*
X180595000Y-161874260D01*
X180652068Y-162161158D01*
X180764010Y-162431411D01*
X180926525Y-162674632D01*
X181058380Y-162806487D01*
X180985820Y-162828498D01*
X180875506Y-162887463D01*
X180778815Y-162966815D01*
X180699463Y-163063506D01*
X180640498Y-163173820D01*
X180604188Y-163293518D01*
X180591928Y-163418000D01*
X180591928Y-165118000D01*
X180604188Y-165242482D01*
X180640498Y-165362180D01*
X180699463Y-165472494D01*
X180778815Y-165569185D01*
X180875506Y-165648537D01*
X180985820Y-165707502D01*
X181105518Y-165743812D01*
X181230000Y-165756072D01*
X182930000Y-165756072D01*
X183054482Y-165743812D01*
X183174180Y-165707502D01*
X183284494Y-165648537D01*
X183381185Y-165569185D01*
X183460537Y-165472494D01*
X183519502Y-165362180D01*
X183555812Y-165242482D01*
X183568072Y-165118000D01*
X183568072Y-165103000D01*
X184946002Y-165103000D01*
X185009944Y-165198696D01*
X185213304Y-165402056D01*
X185416759Y-165538000D01*
X185213304Y-165673944D01*
X185009944Y-165877304D01*
X184850165Y-166116431D01*
X184740107Y-166382134D01*
X184684000Y-166664203D01*
X184684000Y-166951797D01*
X184740107Y-167233866D01*
X184850165Y-167499569D01*
X185009944Y-167738696D01*
X185213304Y-167942056D01*
X185416759Y-168078000D01*
X185213304Y-168213944D01*
X185009944Y-168417304D01*
X184850165Y-168656431D01*
X184740107Y-168922134D01*
X184684000Y-169204203D01*
X184684000Y-169491797D01*
X184740107Y-169773866D01*
X184850165Y-170039569D01*
X185009944Y-170278696D01*
X185213304Y-170482056D01*
X185452431Y-170641835D01*
X185718134Y-170751893D01*
X186000203Y-170808000D01*
X186287797Y-170808000D01*
X186569866Y-170751893D01*
X186835569Y-170641835D01*
X187074696Y-170482056D01*
X187278056Y-170278696D01*
X187341311Y-170184028D01*
X187351744Y-170183000D01*
X187351745Y-170183000D01*
X187474415Y-170170918D01*
X187631813Y-170123172D01*
X187776872Y-170045636D01*
X187904017Y-169941291D01*
X187930172Y-169909421D01*
X191771428Y-166068166D01*
X191803291Y-166042017D01*
X191907636Y-165914872D01*
X191985172Y-165769813D01*
X192032918Y-165612415D01*
X192037900Y-165561835D01*
X192049040Y-165448727D01*
X192045000Y-165407708D01*
X192045000Y-144438072D01*
X192960000Y-144438072D01*
X193084482Y-144425812D01*
X193204180Y-144389502D01*
X193314494Y-144330537D01*
X193411185Y-144251185D01*
X193490537Y-144154494D01*
X193549502Y-144044180D01*
X193585812Y-143924482D01*
X193598072Y-143800000D01*
X193598072Y-140300000D01*
X193585812Y-140175518D01*
X193549502Y-140055820D01*
X193490537Y-139945506D01*
X193411185Y-139848815D01*
X193314494Y-139769463D01*
X193204180Y-139710498D01*
X193084482Y-139674188D01*
X192960000Y-139661928D01*
X192045000Y-139661928D01*
X192045000Y-136274281D01*
X192049039Y-136233273D01*
X192045000Y-136192265D01*
X192045000Y-136192255D01*
X192032918Y-136069585D01*
X191985172Y-135912187D01*
X191907636Y-135767128D01*
X191803291Y-135639983D01*
X191771428Y-135613834D01*
X188070172Y-131912579D01*
X188044017Y-131880709D01*
X187916872Y-131776364D01*
X187771813Y-131698828D01*
X187614415Y-131651082D01*
X187491745Y-131639000D01*
X187491744Y-131639000D01*
X187481311Y-131637972D01*
X187418056Y-131543304D01*
X187214696Y-131339944D01*
X187011241Y-131204000D01*
X187214696Y-131068056D01*
X187418056Y-130864696D01*
X187577835Y-130625569D01*
X187687893Y-130359866D01*
X187744000Y-130077797D01*
X187744000Y-129790203D01*
X187687893Y-129508134D01*
X187577835Y-129242431D01*
X187418056Y-129003304D01*
X187214696Y-128799944D01*
X187011241Y-128664000D01*
X187214696Y-128528056D01*
X187418056Y-128324696D01*
X187577835Y-128085569D01*
X187687893Y-127819866D01*
X187744000Y-127537797D01*
X187744000Y-127250203D01*
X187687893Y-126968134D01*
X187577835Y-126702431D01*
X187418056Y-126463304D01*
X187214696Y-126259944D01*
X187011241Y-126124000D01*
X187214696Y-125988056D01*
X187418056Y-125784696D01*
X187577835Y-125545569D01*
X187687893Y-125279866D01*
X187744000Y-124997797D01*
X187744000Y-124710203D01*
X187687893Y-124428134D01*
X187577835Y-124162431D01*
X187418056Y-123923304D01*
X187214696Y-123719944D01*
X187011241Y-123584000D01*
X187214696Y-123448056D01*
X187418056Y-123244696D01*
X187577835Y-123005569D01*
X187687893Y-122739866D01*
X187744000Y-122457797D01*
X187744000Y-122170203D01*
X187687893Y-121888134D01*
X187577835Y-121622431D01*
X187418056Y-121383304D01*
X187214696Y-121179944D01*
X187011241Y-121044000D01*
X187214696Y-120908056D01*
X187418056Y-120704696D01*
X187577835Y-120465569D01*
X187687893Y-120199866D01*
X187744000Y-119917797D01*
X187744000Y-119630203D01*
X187687893Y-119348134D01*
X187577835Y-119082431D01*
X187418056Y-118843304D01*
X187214696Y-118639944D01*
X187011241Y-118504000D01*
X187214696Y-118368056D01*
X187418056Y-118164696D01*
X187481998Y-118069000D01*
X189274982Y-118069000D01*
X189316000Y-118073040D01*
X189357018Y-118069000D01*
X189357019Y-118069000D01*
X189479689Y-118056918D01*
X189637087Y-118009172D01*
X189782146Y-117931636D01*
X189909291Y-117827291D01*
X189935446Y-117795421D01*
X194885869Y-112845000D01*
X215756133Y-112845000D01*
X219909714Y-116998583D01*
X219891000Y-117092665D01*
X219891000Y-117375335D01*
X219946147Y-117652574D01*
X220054320Y-117913727D01*
X220211363Y-118148759D01*
X220411241Y-118348637D01*
X220646273Y-118505680D01*
X220656865Y-118510067D01*
X220470869Y-118621615D01*
X220262481Y-118810586D01*
X220094963Y-119036580D01*
X219974754Y-119290913D01*
X219934096Y-119424961D01*
X220056085Y-119647000D01*
X221199000Y-119647000D01*
X221199000Y-119627000D01*
X221453000Y-119627000D01*
X221453000Y-119647000D01*
X222595915Y-119647000D01*
X222717904Y-119424961D01*
X222677246Y-119290913D01*
X222557037Y-119036580D01*
X222389519Y-118810586D01*
X222181131Y-118621615D01*
X221995135Y-118510067D01*
X222005727Y-118505680D01*
X222240759Y-118348637D01*
X222440637Y-118148759D01*
X222493930Y-118069000D01*
X224936133Y-118069000D01*
X231266559Y-124399427D01*
X231292709Y-124431291D01*
X231419854Y-124535636D01*
X231564913Y-124613172D01*
X231647928Y-124638354D01*
X231647928Y-125588000D01*
X231660188Y-125712482D01*
X231696498Y-125832180D01*
X231755463Y-125942494D01*
X231834815Y-126039185D01*
X231931506Y-126118537D01*
X232041820Y-126177502D01*
X232161518Y-126213812D01*
X232286000Y-126226072D01*
X235786000Y-126226072D01*
X235910482Y-126213812D01*
X236030180Y-126177502D01*
X236140494Y-126118537D01*
X236237185Y-126039185D01*
X236316537Y-125942494D01*
X236375502Y-125832180D01*
X236411812Y-125712482D01*
X236424072Y-125588000D01*
X237897928Y-125588000D01*
X237910188Y-125712482D01*
X237946498Y-125832180D01*
X238005463Y-125942494D01*
X238084815Y-126039185D01*
X238181506Y-126118537D01*
X238291820Y-126177502D01*
X238411518Y-126213812D01*
X238536000Y-126226072D01*
X239750250Y-126223000D01*
X239909000Y-126064250D01*
X239909000Y-123965000D01*
X240163000Y-123965000D01*
X240163000Y-126064250D01*
X240321750Y-126223000D01*
X241536000Y-126226072D01*
X241660482Y-126213812D01*
X241780180Y-126177502D01*
X241890494Y-126118537D01*
X241987185Y-126039185D01*
X242066537Y-125942494D01*
X242125502Y-125832180D01*
X242161812Y-125712482D01*
X242174072Y-125588000D01*
X242171000Y-124123750D01*
X242012250Y-123965000D01*
X240163000Y-123965000D01*
X239909000Y-123965000D01*
X238059750Y-123965000D01*
X237901000Y-124123750D01*
X237897928Y-125588000D01*
X236424072Y-125588000D01*
X236424072Y-122088000D01*
X236411812Y-121963518D01*
X236375502Y-121843820D01*
X236316537Y-121733506D01*
X236237185Y-121636815D01*
X236140494Y-121557463D01*
X236078655Y-121524409D01*
X236750250Y-121523000D01*
X236909000Y-121364250D01*
X236909000Y-119265000D01*
X237163000Y-119265000D01*
X237163000Y-121364250D01*
X237321750Y-121523000D01*
X238242367Y-121524931D01*
X238181506Y-121557463D01*
X238084815Y-121636815D01*
X238005463Y-121733506D01*
X237946498Y-121843820D01*
X237910188Y-121963518D01*
X237897928Y-122088000D01*
X237901000Y-123552250D01*
X238059750Y-123711000D01*
X239909000Y-123711000D01*
X239909000Y-121611750D01*
X240163000Y-121611750D01*
X240163000Y-123711000D01*
X242012250Y-123711000D01*
X242171000Y-123552250D01*
X242174072Y-122088000D01*
X242161812Y-121963518D01*
X242125502Y-121843820D01*
X242066537Y-121733506D01*
X241987185Y-121636815D01*
X241890494Y-121557463D01*
X241780180Y-121498498D01*
X241660482Y-121462188D01*
X241536000Y-121449928D01*
X240321750Y-121453000D01*
X240163000Y-121611750D01*
X239909000Y-121611750D01*
X239750250Y-121453000D01*
X239079195Y-121451302D01*
X239140494Y-121418537D01*
X239237185Y-121339185D01*
X239316537Y-121242494D01*
X239375502Y-121132180D01*
X239411812Y-121012482D01*
X239424072Y-120888000D01*
X239421000Y-119423750D01*
X239262250Y-119265000D01*
X237163000Y-119265000D01*
X236909000Y-119265000D01*
X236889000Y-119265000D01*
X236889000Y-119011000D01*
X236909000Y-119011000D01*
X236909000Y-116911750D01*
X237163000Y-116911750D01*
X237163000Y-119011000D01*
X239262250Y-119011000D01*
X239421000Y-118852250D01*
X239424072Y-117388000D01*
X239411812Y-117263518D01*
X239375502Y-117143820D01*
X239316537Y-117033506D01*
X239237185Y-116936815D01*
X239140494Y-116857463D01*
X239030180Y-116798498D01*
X238910482Y-116762188D01*
X238786000Y-116749928D01*
X237321750Y-116753000D01*
X237163000Y-116911750D01*
X236909000Y-116911750D01*
X236750250Y-116753000D01*
X235286000Y-116749928D01*
X235161518Y-116762188D01*
X235041820Y-116798498D01*
X234931506Y-116857463D01*
X234871000Y-116907119D01*
X234871000Y-116817868D01*
X235143868Y-116545000D01*
X239786133Y-116545000D01*
X244631001Y-121389869D01*
X244631000Y-129762347D01*
X244588494Y-129727463D01*
X244478180Y-129668498D01*
X244358482Y-129632188D01*
X244234000Y-129619928D01*
X242634000Y-129619928D01*
X242509518Y-129632188D01*
X242389820Y-129668498D01*
X242279506Y-129727463D01*
X242182815Y-129806815D01*
X242103463Y-129903506D01*
X242044498Y-130013820D01*
X242008188Y-130133518D01*
X242006419Y-130151482D01*
X241913608Y-130038392D01*
X241695101Y-129859068D01*
X241445808Y-129725818D01*
X241175309Y-129643764D01*
X240894000Y-129616057D01*
X240612692Y-129643764D01*
X240342193Y-129725818D01*
X240092900Y-129859068D01*
X239874393Y-130038392D01*
X239695068Y-130256899D01*
X239624000Y-130389858D01*
X239552932Y-130256899D01*
X239373608Y-130038392D01*
X239155101Y-129859068D01*
X238905808Y-129725818D01*
X238635309Y-129643764D01*
X238354000Y-129616057D01*
X238072692Y-129643764D01*
X237802193Y-129725818D01*
X237552900Y-129859068D01*
X237334393Y-130038392D01*
X237155068Y-130256899D01*
X237084000Y-130389858D01*
X237012932Y-130256899D01*
X236833608Y-130038392D01*
X236615101Y-129859068D01*
X236365808Y-129725818D01*
X236095309Y-129643764D01*
X235814000Y-129616057D01*
X235532692Y-129643764D01*
X235262193Y-129725818D01*
X235012900Y-129859068D01*
X234794393Y-130038392D01*
X234615068Y-130256899D01*
X234544000Y-130389858D01*
X234472932Y-130256899D01*
X234293608Y-130038392D01*
X234075101Y-129859068D01*
X233825808Y-129725818D01*
X233555309Y-129643764D01*
X233274000Y-129616057D01*
X232992692Y-129643764D01*
X232722193Y-129725818D01*
X232472900Y-129859068D01*
X232254393Y-130038392D01*
X232075068Y-130256899D01*
X232004000Y-130389858D01*
X231932932Y-130256899D01*
X231753608Y-130038392D01*
X231535101Y-129859068D01*
X231285808Y-129725818D01*
X231015309Y-129643764D01*
X230734000Y-129616057D01*
X230452692Y-129643764D01*
X230182193Y-129725818D01*
X229932900Y-129859068D01*
X229714393Y-130038392D01*
X229535068Y-130256899D01*
X229464000Y-130389858D01*
X229392932Y-130256899D01*
X229213608Y-130038392D01*
X228995101Y-129859068D01*
X228745808Y-129725818D01*
X228475309Y-129643764D01*
X228194000Y-129616057D01*
X227912692Y-129643764D01*
X227642193Y-129725818D01*
X227392900Y-129859068D01*
X227174393Y-130038392D01*
X226995068Y-130256899D01*
X226926735Y-130384741D01*
X226776601Y-130155161D01*
X226578895Y-129953500D01*
X226345646Y-129794285D01*
X226085818Y-129683633D01*
X226003039Y-129666096D01*
X225781000Y-129788085D01*
X225781000Y-131331000D01*
X225801000Y-131331000D01*
X225801000Y-131585000D01*
X225781000Y-131585000D01*
X225781000Y-131605000D01*
X225527000Y-131605000D01*
X225527000Y-131585000D01*
X224219000Y-131585000D01*
X224219000Y-131985000D01*
X224255998Y-132181131D01*
X223987446Y-131912579D01*
X223961291Y-131880709D01*
X223834146Y-131776364D01*
X223689087Y-131698828D01*
X223531689Y-131651082D01*
X223409019Y-131639000D01*
X223409018Y-131639000D01*
X223368000Y-131634960D01*
X223326982Y-131639000D01*
X222493930Y-131639000D01*
X222440637Y-131559241D01*
X222240759Y-131359363D01*
X222008241Y-131204000D01*
X222240759Y-131048637D01*
X222358396Y-130931000D01*
X224219000Y-130931000D01*
X224219000Y-131331000D01*
X225527000Y-131331000D01*
X225527000Y-129788085D01*
X225304961Y-129666096D01*
X225222182Y-129683633D01*
X224962354Y-129794285D01*
X224729105Y-129953500D01*
X224531399Y-130155161D01*
X224376834Y-130391517D01*
X224271350Y-130653486D01*
X224219000Y-130931000D01*
X222358396Y-130931000D01*
X222440637Y-130848759D01*
X222597680Y-130613727D01*
X222705853Y-130352574D01*
X222761000Y-130075335D01*
X222761000Y-129792665D01*
X222705853Y-129515426D01*
X222597680Y-129254273D01*
X222440637Y-129019241D01*
X222240759Y-128819363D01*
X222008241Y-128664000D01*
X222240759Y-128508637D01*
X222440637Y-128308759D01*
X222597680Y-128073727D01*
X222705853Y-127812574D01*
X222761000Y-127535335D01*
X222761000Y-127252665D01*
X222705853Y-126975426D01*
X222597680Y-126714273D01*
X222440637Y-126479241D01*
X222240759Y-126279363D01*
X222008241Y-126124000D01*
X222240759Y-125968637D01*
X222440637Y-125768759D01*
X222597680Y-125533727D01*
X222705853Y-125272574D01*
X222761000Y-124995335D01*
X222761000Y-124712665D01*
X222705853Y-124435426D01*
X222597680Y-124174273D01*
X222440637Y-123939241D01*
X222240759Y-123739363D01*
X222008241Y-123584000D01*
X222240759Y-123428637D01*
X222440637Y-123228759D01*
X222597680Y-122993727D01*
X222705853Y-122732574D01*
X222761000Y-122455335D01*
X222761000Y-122172665D01*
X222705853Y-121895426D01*
X222597680Y-121634273D01*
X222440637Y-121399241D01*
X222240759Y-121199363D01*
X222005727Y-121042320D01*
X221995135Y-121037933D01*
X222181131Y-120926385D01*
X222389519Y-120737414D01*
X222557037Y-120511420D01*
X222677246Y-120257087D01*
X222717904Y-120123039D01*
X222595915Y-119901000D01*
X221453000Y-119901000D01*
X221453000Y-119921000D01*
X221199000Y-119921000D01*
X221199000Y-119901000D01*
X220056085Y-119901000D01*
X219934096Y-120123039D01*
X219974754Y-120257087D01*
X220094963Y-120511420D01*
X220262481Y-120737414D01*
X220470869Y-120926385D01*
X220656865Y-121037933D01*
X220646273Y-121042320D01*
X220411241Y-121199363D01*
X220211363Y-121399241D01*
X220054320Y-121634273D01*
X219946147Y-121895426D01*
X219891000Y-122172665D01*
X219891000Y-122455335D01*
X219946147Y-122732574D01*
X220054320Y-122993727D01*
X220211363Y-123228759D01*
X220411241Y-123428637D01*
X220643759Y-123584000D01*
X220411241Y-123739363D01*
X220211363Y-123939241D01*
X220054320Y-124174273D01*
X219946147Y-124435426D01*
X219891000Y-124712665D01*
X219891000Y-124995335D01*
X219946147Y-125272574D01*
X220054320Y-125533727D01*
X220211363Y-125768759D01*
X220411241Y-125968637D01*
X220643759Y-126124000D01*
X220411241Y-126279363D01*
X220211363Y-126479241D01*
X220054320Y-126714273D01*
X219946147Y-126975426D01*
X219891000Y-127252665D01*
X219891000Y-127535335D01*
X219946147Y-127812574D01*
X220054320Y-128073727D01*
X220211363Y-128308759D01*
X220411241Y-128508637D01*
X220643759Y-128664000D01*
X220411241Y-128819363D01*
X220211363Y-129019241D01*
X220054320Y-129254273D01*
X219946147Y-129515426D01*
X219891000Y-129792665D01*
X219891000Y-130075335D01*
X219946147Y-130352574D01*
X220054320Y-130613727D01*
X220211363Y-130848759D01*
X220411241Y-131048637D01*
X220643759Y-131204000D01*
X220411241Y-131359363D01*
X220211363Y-131559241D01*
X220054320Y-131794273D01*
X219946147Y-132055426D01*
X219891000Y-132332665D01*
X219891000Y-132615335D01*
X219946147Y-132892574D01*
X220054320Y-133153727D01*
X220211363Y-133388759D01*
X220411241Y-133588637D01*
X220643759Y-133744000D01*
X220411241Y-133899363D01*
X220211363Y-134099241D01*
X220054320Y-134334273D01*
X219946147Y-134595426D01*
X219891000Y-134872665D01*
X219891000Y-135155335D01*
X219946147Y-135432574D01*
X220054320Y-135693727D01*
X220211363Y-135928759D01*
X220411241Y-136128637D01*
X220643759Y-136284000D01*
X220411241Y-136439363D01*
X220211363Y-136639241D01*
X220054320Y-136874273D01*
X219946147Y-137135426D01*
X219891000Y-137412665D01*
X219891000Y-137695335D01*
X219946147Y-137972574D01*
X220054320Y-138233727D01*
X220211363Y-138468759D01*
X220411241Y-138668637D01*
X220643759Y-138824000D01*
X220411241Y-138979363D01*
X220211363Y-139179241D01*
X220054320Y-139414273D01*
X219946147Y-139675426D01*
X219891000Y-139952665D01*
X219891000Y-140235335D01*
X219946147Y-140512574D01*
X220054320Y-140773727D01*
X220211363Y-141008759D01*
X220411241Y-141208637D01*
X220643759Y-141364000D01*
X220411241Y-141519363D01*
X220211363Y-141719241D01*
X220054320Y-141954273D01*
X219946147Y-142215426D01*
X219891000Y-142492665D01*
X219891000Y-142775335D01*
X219946147Y-143052574D01*
X220054320Y-143313727D01*
X220211363Y-143548759D01*
X220411241Y-143748637D01*
X220643759Y-143904000D01*
X220411241Y-144059363D01*
X220211363Y-144259241D01*
X220054320Y-144494273D01*
X219946147Y-144755426D01*
X219891000Y-145032665D01*
X219891000Y-145315335D01*
X219909714Y-145409417D01*
X215694574Y-149624559D01*
X215662710Y-149650709D01*
X215636562Y-149682571D01*
X215558364Y-149777855D01*
X215480828Y-149922914D01*
X215433082Y-150080312D01*
X215416960Y-150244000D01*
X215421001Y-150285029D01*
X215421000Y-160262070D01*
X215341241Y-160315363D01*
X215141363Y-160515241D01*
X214984320Y-160750273D01*
X214876147Y-161011426D01*
X214821000Y-161288665D01*
X214821000Y-161571335D01*
X214876147Y-161848574D01*
X214984320Y-162109727D01*
X215141363Y-162344759D01*
X215341241Y-162544637D01*
X215576273Y-162701680D01*
X215837426Y-162809853D01*
X216114665Y-162865000D01*
X216397335Y-162865000D01*
X216491418Y-162846285D01*
X218430563Y-164785432D01*
X218456709Y-164817291D01*
X218488568Y-164843437D01*
X218488570Y-164843439D01*
X218574196Y-164913710D01*
X218583854Y-164921636D01*
X218728913Y-164999172D01*
X218886311Y-165046918D01*
X219008981Y-165059000D01*
X219008982Y-165059000D01*
X219050000Y-165063040D01*
X219091018Y-165059000D01*
X235010982Y-165059000D01*
X235052000Y-165063040D01*
X235093018Y-165059000D01*
X235093019Y-165059000D01*
X235215689Y-165046918D01*
X235373087Y-164999172D01*
X235518146Y-164921636D01*
X235645291Y-164817291D01*
X235671446Y-164785421D01*
X237568061Y-162888807D01*
X237699740Y-162915000D01*
X237992260Y-162915000D01*
X238279158Y-162857932D01*
X238549411Y-162745990D01*
X238792632Y-162583475D01*
X238999475Y-162376632D01*
X239116000Y-162202240D01*
X239232525Y-162376632D01*
X239439368Y-162583475D01*
X239551001Y-162658066D01*
X239551000Y-167313935D01*
X239439368Y-167388525D01*
X239232525Y-167595368D01*
X239116000Y-167769760D01*
X238999475Y-167595368D01*
X238792632Y-167388525D01*
X238549411Y-167226010D01*
X238279158Y-167114068D01*
X237992260Y-167057000D01*
X237699740Y-167057000D01*
X237412842Y-167114068D01*
X237142589Y-167226010D01*
X236899368Y-167388525D01*
X236785340Y-167502553D01*
X234723365Y-165440579D01*
X234697210Y-165408709D01*
X234570065Y-165304364D01*
X234425006Y-165226828D01*
X234267608Y-165179082D01*
X234144938Y-165167000D01*
X234144937Y-165167000D01*
X234103919Y-165162960D01*
X234062901Y-165167000D01*
X213807868Y-165167000D01*
X212011000Y-163370133D01*
X212011000Y-162597930D01*
X212090759Y-162544637D01*
X212290637Y-162344759D01*
X212447680Y-162109727D01*
X212555853Y-161848574D01*
X212611000Y-161571335D01*
X212611000Y-161288665D01*
X212555853Y-161011426D01*
X212447680Y-160750273D01*
X212290637Y-160515241D01*
X212090759Y-160315363D01*
X211855727Y-160158320D01*
X211841666Y-160152496D01*
X211841666Y-155215684D01*
X211845706Y-155174666D01*
X211829584Y-155010978D01*
X211781838Y-154853579D01*
X211704302Y-154708520D01*
X211626105Y-154613236D01*
X211626103Y-154613234D01*
X211599957Y-154581375D01*
X211568099Y-154555230D01*
X207502285Y-150489418D01*
X207521000Y-150395335D01*
X207521000Y-150112665D01*
X207465853Y-149835426D01*
X207357680Y-149574273D01*
X207200637Y-149339241D01*
X207000759Y-149139363D01*
X206768241Y-148984000D01*
X207000759Y-148828637D01*
X207200637Y-148628759D01*
X207357680Y-148393727D01*
X207465853Y-148132574D01*
X207521000Y-147855335D01*
X207521000Y-147572665D01*
X207465853Y-147295426D01*
X207357680Y-147034273D01*
X207200637Y-146799241D01*
X207000759Y-146599363D01*
X206768241Y-146444000D01*
X207000759Y-146288637D01*
X207200637Y-146088759D01*
X207357680Y-145853727D01*
X207465853Y-145592574D01*
X207521000Y-145315335D01*
X207521000Y-145032665D01*
X207465853Y-144755426D01*
X207357680Y-144494273D01*
X207200637Y-144259241D01*
X207000759Y-144059363D01*
X206768241Y-143904000D01*
X207000759Y-143748637D01*
X207200637Y-143548759D01*
X207357680Y-143313727D01*
X207465853Y-143052574D01*
X207521000Y-142775335D01*
X207521000Y-142492665D01*
X207465853Y-142215426D01*
X207357680Y-141954273D01*
X207200637Y-141719241D01*
X207000759Y-141519363D01*
X206768241Y-141364000D01*
X207000759Y-141208637D01*
X207200637Y-141008759D01*
X207357680Y-140773727D01*
X207465853Y-140512574D01*
X207521000Y-140235335D01*
X207521000Y-139952665D01*
X207465853Y-139675426D01*
X207357680Y-139414273D01*
X207200637Y-139179241D01*
X207000759Y-138979363D01*
X206768241Y-138824000D01*
X207000759Y-138668637D01*
X207200637Y-138468759D01*
X207357680Y-138233727D01*
X207465853Y-137972574D01*
X207521000Y-137695335D01*
X207521000Y-137412665D01*
X207465853Y-137135426D01*
X207357680Y-136874273D01*
X207200637Y-136639241D01*
X207000759Y-136439363D01*
X206768241Y-136284000D01*
X207000759Y-136128637D01*
X207200637Y-135928759D01*
X207357680Y-135693727D01*
X207465853Y-135432574D01*
X207521000Y-135155335D01*
X207521000Y-134872665D01*
X207465853Y-134595426D01*
X207357680Y-134334273D01*
X207200637Y-134099241D01*
X207000759Y-133899363D01*
X206768241Y-133744000D01*
X207000759Y-133588637D01*
X207200637Y-133388759D01*
X207357680Y-133153727D01*
X207465853Y-132892574D01*
X207521000Y-132615335D01*
X207521000Y-132332665D01*
X207465853Y-132055426D01*
X207357680Y-131794273D01*
X207200637Y-131559241D01*
X207000759Y-131359363D01*
X206768241Y-131204000D01*
X207000759Y-131048637D01*
X207200637Y-130848759D01*
X207357680Y-130613727D01*
X207465853Y-130352574D01*
X207521000Y-130075335D01*
X207521000Y-129792665D01*
X207465853Y-129515426D01*
X207357680Y-129254273D01*
X207200637Y-129019241D01*
X207000759Y-128819363D01*
X206768241Y-128664000D01*
X207000759Y-128508637D01*
X207200637Y-128308759D01*
X207357680Y-128073727D01*
X207465853Y-127812574D01*
X207521000Y-127535335D01*
X207521000Y-127252665D01*
X207465853Y-126975426D01*
X207357680Y-126714273D01*
X207200637Y-126479241D01*
X207000759Y-126279363D01*
X206768241Y-126124000D01*
X207000759Y-125968637D01*
X207200637Y-125768759D01*
X207357680Y-125533727D01*
X207465853Y-125272574D01*
X207521000Y-124995335D01*
X207521000Y-124712665D01*
X207465853Y-124435426D01*
X207357680Y-124174273D01*
X207200637Y-123939241D01*
X207000759Y-123739363D01*
X206768241Y-123584000D01*
X207000759Y-123428637D01*
X207200637Y-123228759D01*
X207357680Y-122993727D01*
X207465853Y-122732574D01*
X207521000Y-122455335D01*
X207521000Y-122172665D01*
X207465853Y-121895426D01*
X207357680Y-121634273D01*
X207200637Y-121399241D01*
X207000759Y-121199363D01*
X206768241Y-121044000D01*
X207000759Y-120888637D01*
X207200637Y-120688759D01*
X207357680Y-120453727D01*
X207465853Y-120192574D01*
X207521000Y-119915335D01*
X207521000Y-119632665D01*
X207465853Y-119355426D01*
X207357680Y-119094273D01*
X207200637Y-118859241D01*
X207002039Y-118660643D01*
X207010482Y-118659812D01*
X207130180Y-118623502D01*
X207240494Y-118564537D01*
X207337185Y-118485185D01*
X207416537Y-118388494D01*
X207475502Y-118278180D01*
X207511812Y-118158482D01*
X207524072Y-118034000D01*
X207524072Y-116434000D01*
X207511812Y-116309518D01*
X207475502Y-116189820D01*
X207416537Y-116079506D01*
X207337185Y-115982815D01*
X207240494Y-115903463D01*
X207130180Y-115844498D01*
X207010482Y-115808188D01*
X206886000Y-115795928D01*
X205286000Y-115795928D01*
X205161518Y-115808188D01*
X205041820Y-115844498D01*
X204931506Y-115903463D01*
X204834815Y-115982815D01*
X204755463Y-116079506D01*
X204696498Y-116189820D01*
X204660188Y-116309518D01*
X204647928Y-116434000D01*
X204647928Y-116968709D01*
X204632918Y-116816311D01*
X204585172Y-116658913D01*
X204507636Y-116513854D01*
X204457764Y-116453085D01*
X204403291Y-116386709D01*
X204371427Y-116360559D01*
X202143446Y-114132579D01*
X202117291Y-114100709D01*
X201990146Y-113996364D01*
X201845087Y-113918828D01*
X201687689Y-113871082D01*
X201565019Y-113859000D01*
X201565018Y-113859000D01*
X201524000Y-113854960D01*
X201482982Y-113859000D01*
X200181998Y-113859000D01*
X200118056Y-113763304D01*
X199914696Y-113559944D01*
X199675569Y-113400165D01*
X199409866Y-113290107D01*
X199127797Y-113234000D01*
X198840203Y-113234000D01*
X198558134Y-113290107D01*
X198292431Y-113400165D01*
X198053304Y-113559944D01*
X197849944Y-113763304D01*
X197690165Y-114002431D01*
X197580107Y-114268134D01*
X197524000Y-114550203D01*
X197524000Y-114837797D01*
X197580107Y-115119866D01*
X197690165Y-115385569D01*
X197849944Y-115624696D01*
X198053304Y-115828056D01*
X198256759Y-115964000D01*
X198053304Y-116099944D01*
X197849944Y-116303304D01*
X197690165Y-116542431D01*
X197580107Y-116808134D01*
X197524000Y-117090203D01*
X197524000Y-117377797D01*
X197580107Y-117659866D01*
X197690165Y-117925569D01*
X197849944Y-118164696D01*
X198053304Y-118368056D01*
X198256759Y-118504000D01*
X198053304Y-118639944D01*
X197849944Y-118843304D01*
X197690165Y-119082431D01*
X197580107Y-119348134D01*
X197524000Y-119630203D01*
X197524000Y-119917797D01*
X197580107Y-120199866D01*
X197690165Y-120465569D01*
X197849944Y-120704696D01*
X198053304Y-120908056D01*
X198256759Y-121044000D01*
X198053304Y-121179944D01*
X197849944Y-121383304D01*
X197690165Y-121622431D01*
X197580107Y-121888134D01*
X197524000Y-122170203D01*
X197524000Y-122457797D01*
X197580107Y-122739866D01*
X197690165Y-123005569D01*
X197849944Y-123244696D01*
X198053304Y-123448056D01*
X198256759Y-123584000D01*
X198053304Y-123719944D01*
X197849944Y-123923304D01*
X197690165Y-124162431D01*
X197580107Y-124428134D01*
X197524000Y-124710203D01*
X197524000Y-124997797D01*
X197580107Y-125279866D01*
X197690165Y-125545569D01*
X197849944Y-125784696D01*
X198053304Y-125988056D01*
X198256759Y-126124000D01*
X198053304Y-126259944D01*
X197849944Y-126463304D01*
X197690165Y-126702431D01*
X197580107Y-126968134D01*
X197524000Y-127250203D01*
X197524000Y-127537797D01*
X197580107Y-127819866D01*
X197690165Y-128085569D01*
X197849944Y-128324696D01*
X198053304Y-128528056D01*
X198256759Y-128664000D01*
X198053304Y-128799944D01*
X197849944Y-129003304D01*
X197690165Y-129242431D01*
X197580107Y-129508134D01*
X197524000Y-129790203D01*
X197524000Y-130077797D01*
X197580107Y-130359866D01*
X197690165Y-130625569D01*
X197849944Y-130864696D01*
X198014506Y-131029258D01*
X197914820Y-131059498D01*
X197804506Y-131118463D01*
X197707815Y-131197815D01*
X197628463Y-131294506D01*
X197569498Y-131404820D01*
X197533188Y-131524518D01*
X197520928Y-131649000D01*
X197520928Y-133299000D01*
X197533188Y-133423482D01*
X197569498Y-133543180D01*
X197628463Y-133653494D01*
X197707815Y-133750185D01*
X197804506Y-133829537D01*
X197914820Y-133888502D01*
X198034518Y-133924812D01*
X198159000Y-133937072D01*
X199809000Y-133937072D01*
X199933482Y-133924812D01*
X200053180Y-133888502D01*
X200163494Y-133829537D01*
X200260185Y-133750185D01*
X200339537Y-133653494D01*
X200398502Y-133543180D01*
X200434812Y-133423482D01*
X200446087Y-133309000D01*
X200670133Y-133309000D01*
X204620797Y-137259665D01*
X204669604Y-137319137D01*
X204651000Y-137412665D01*
X204651000Y-137695335D01*
X204706147Y-137972574D01*
X204814320Y-138233727D01*
X204971363Y-138468759D01*
X205171241Y-138668637D01*
X205403759Y-138824000D01*
X205171241Y-138979363D01*
X204971363Y-139179241D01*
X204814320Y-139414273D01*
X204706147Y-139675426D01*
X204651000Y-139952665D01*
X204651000Y-140235335D01*
X204669714Y-140329417D01*
X198282579Y-146716554D01*
X198250709Y-146742709D01*
X198146365Y-146869854D01*
X198146364Y-146869855D01*
X198068828Y-147014914D01*
X198021082Y-147172312D01*
X198004960Y-147336000D01*
X198009000Y-147377019D01*
X198009001Y-150370002D01*
X197913304Y-150433944D01*
X197709944Y-150637304D01*
X197550165Y-150876431D01*
X197440107Y-151142134D01*
X197384000Y-151424203D01*
X197384000Y-151711797D01*
X197440107Y-151993866D01*
X197550165Y-152259569D01*
X197709944Y-152498696D01*
X197913304Y-152702056D01*
X198116759Y-152838000D01*
X197913304Y-152973944D01*
X197709944Y-153177304D01*
X197550165Y-153416431D01*
X197440107Y-153682134D01*
X197384000Y-153964203D01*
X197384000Y-154251797D01*
X197440107Y-154533866D01*
X197550165Y-154799569D01*
X197709944Y-155038696D01*
X197913304Y-155242056D01*
X198116759Y-155378000D01*
X197913304Y-155513944D01*
X197709944Y-155717304D01*
X197550165Y-155956431D01*
X197440107Y-156222134D01*
X197384000Y-156504203D01*
X197384000Y-156791797D01*
X197440107Y-157073866D01*
X197550165Y-157339569D01*
X197709944Y-157578696D01*
X197913304Y-157782056D01*
X198116759Y-157918000D01*
X197913304Y-158053944D01*
X197709944Y-158257304D01*
X197550165Y-158496431D01*
X197440107Y-158762134D01*
X197384000Y-159044203D01*
X197384000Y-159331797D01*
X197440107Y-159613866D01*
X197550165Y-159879569D01*
X197709944Y-160118696D01*
X197913304Y-160322056D01*
X198116759Y-160458000D01*
X197913304Y-160593944D01*
X197709944Y-160797304D01*
X197550165Y-161036431D01*
X197440107Y-161302134D01*
X197384000Y-161584203D01*
X197384000Y-161871797D01*
X197440107Y-162153866D01*
X197550165Y-162419569D01*
X197709944Y-162658696D01*
X197913304Y-162862056D01*
X198116759Y-162998000D01*
X197913304Y-163133944D01*
X197709944Y-163337304D01*
X197550165Y-163576431D01*
X197440107Y-163842134D01*
X197384000Y-164124203D01*
X197384000Y-164411797D01*
X197440107Y-164693866D01*
X197550165Y-164959569D01*
X197709944Y-165198696D01*
X197913304Y-165402056D01*
X198116759Y-165538000D01*
X197913304Y-165673944D01*
X197709944Y-165877304D01*
X197550165Y-166116431D01*
X197440107Y-166382134D01*
X197384000Y-166664203D01*
X197384000Y-166951797D01*
X197440107Y-167233866D01*
X197550165Y-167499569D01*
X197709944Y-167738696D01*
X197874506Y-167903258D01*
X197774820Y-167933498D01*
X197664506Y-167992463D01*
X197567815Y-168071815D01*
X197488463Y-168168506D01*
X197429498Y-168278820D01*
X197393188Y-168398518D01*
X197380928Y-168523000D01*
X197380928Y-170173000D01*
X197393188Y-170297482D01*
X197429498Y-170417180D01*
X197488463Y-170527494D01*
X197567815Y-170624185D01*
X197664506Y-170703537D01*
X197774820Y-170762502D01*
X197894518Y-170798812D01*
X198019000Y-170811072D01*
X199669000Y-170811072D01*
X199793482Y-170798812D01*
X199913180Y-170762502D01*
X200023494Y-170703537D01*
X200120185Y-170624185D01*
X200199537Y-170527494D01*
X200258502Y-170417180D01*
X200294812Y-170297482D01*
X200307072Y-170173000D01*
X200307072Y-170148354D01*
X200390087Y-170123172D01*
X200535146Y-170045636D01*
X200662291Y-169941291D01*
X200688446Y-169909421D01*
X201198827Y-169399040D01*
X204704091Y-169399040D01*
X204798930Y-169663881D01*
X204943615Y-169905131D01*
X205132586Y-170113519D01*
X205358580Y-170281037D01*
X205612913Y-170401246D01*
X205746961Y-170441904D01*
X205969000Y-170319915D01*
X205969000Y-169177000D01*
X206223000Y-169177000D01*
X206223000Y-170319915D01*
X206445039Y-170441904D01*
X206579087Y-170401246D01*
X206833420Y-170281037D01*
X207059414Y-170113519D01*
X207248385Y-169905131D01*
X207393070Y-169663881D01*
X207487909Y-169399040D01*
X209784091Y-169399040D01*
X209878930Y-169663881D01*
X210023615Y-169905131D01*
X210212586Y-170113519D01*
X210438580Y-170281037D01*
X210692913Y-170401246D01*
X210826961Y-170441904D01*
X211049000Y-170319915D01*
X211049000Y-169177000D01*
X211303000Y-169177000D01*
X211303000Y-170319915D01*
X211525039Y-170441904D01*
X211659087Y-170401246D01*
X211913420Y-170281037D01*
X212139414Y-170113519D01*
X212328385Y-169905131D01*
X212473070Y-169663881D01*
X212567909Y-169399040D01*
X214864091Y-169399040D01*
X214958930Y-169663881D01*
X215103615Y-169905131D01*
X215292586Y-170113519D01*
X215518580Y-170281037D01*
X215772913Y-170401246D01*
X215906961Y-170441904D01*
X216129000Y-170319915D01*
X216129000Y-169177000D01*
X216383000Y-169177000D01*
X216383000Y-170319915D01*
X216605039Y-170441904D01*
X216739087Y-170401246D01*
X216993420Y-170281037D01*
X217219414Y-170113519D01*
X217408385Y-169905131D01*
X217553070Y-169663881D01*
X217647909Y-169399040D01*
X219944091Y-169399040D01*
X220038930Y-169663881D01*
X220183615Y-169905131D01*
X220372586Y-170113519D01*
X220598580Y-170281037D01*
X220852913Y-170401246D01*
X220986961Y-170441904D01*
X221209000Y-170319915D01*
X221209000Y-169177000D01*
X221463000Y-169177000D01*
X221463000Y-170319915D01*
X221685039Y-170441904D01*
X221819087Y-170401246D01*
X222073420Y-170281037D01*
X222299414Y-170113519D01*
X222488385Y-169905131D01*
X222633070Y-169663881D01*
X222727909Y-169399040D01*
X222606624Y-169177000D01*
X221463000Y-169177000D01*
X221209000Y-169177000D01*
X220065376Y-169177000D01*
X219944091Y-169399040D01*
X217647909Y-169399040D01*
X217526624Y-169177000D01*
X216383000Y-169177000D01*
X216129000Y-169177000D01*
X214985376Y-169177000D01*
X214864091Y-169399040D01*
X212567909Y-169399040D01*
X212446624Y-169177000D01*
X211303000Y-169177000D01*
X211049000Y-169177000D01*
X209905376Y-169177000D01*
X209784091Y-169399040D01*
X207487909Y-169399040D01*
X207366624Y-169177000D01*
X206223000Y-169177000D01*
X205969000Y-169177000D01*
X204825376Y-169177000D01*
X204704091Y-169399040D01*
X201198827Y-169399040D01*
X201896907Y-168700960D01*
X204704091Y-168700960D01*
X204825376Y-168923000D01*
X205969000Y-168923000D01*
X205969000Y-167780085D01*
X206223000Y-167780085D01*
X206223000Y-168923000D01*
X207366624Y-168923000D01*
X207487909Y-168700960D01*
X207393070Y-168436119D01*
X207248385Y-168194869D01*
X207059414Y-167986481D01*
X206833420Y-167818963D01*
X206579087Y-167698754D01*
X206445039Y-167658096D01*
X206223000Y-167780085D01*
X205969000Y-167780085D01*
X205746961Y-167658096D01*
X205612913Y-167698754D01*
X205358580Y-167818963D01*
X205132586Y-167986481D01*
X204943615Y-168194869D01*
X204798930Y-168436119D01*
X204704091Y-168700960D01*
X201896907Y-168700960D01*
X204471427Y-166126441D01*
X204503291Y-166100291D01*
X204607636Y-165973146D01*
X204685172Y-165828087D01*
X204732918Y-165670689D01*
X204745000Y-165548019D01*
X204745000Y-165548009D01*
X204749039Y-165507001D01*
X204745000Y-165465993D01*
X204745000Y-161918231D01*
X204824320Y-162109727D01*
X204981363Y-162344759D01*
X205181241Y-162544637D01*
X205261000Y-162597930D01*
X205261000Y-163420981D01*
X205256960Y-163462000D01*
X205261000Y-163503018D01*
X205273082Y-163625688D01*
X205320828Y-163783086D01*
X205398364Y-163928145D01*
X205502709Y-164055291D01*
X205534579Y-164081446D01*
X209286563Y-167833432D01*
X209312709Y-167865291D01*
X209344568Y-167891437D01*
X209344570Y-167891439D01*
X209408747Y-167944107D01*
X209439854Y-167969636D01*
X209584913Y-168047172D01*
X209742311Y-168094918D01*
X209864981Y-168107000D01*
X209864982Y-168107000D01*
X209906000Y-168111040D01*
X209947018Y-168107000D01*
X210103297Y-168107000D01*
X210023615Y-168194869D01*
X209878930Y-168436119D01*
X209784091Y-168700960D01*
X209905376Y-168923000D01*
X211049000Y-168923000D01*
X211049000Y-168903000D01*
X211303000Y-168903000D01*
X211303000Y-168923000D01*
X212446624Y-168923000D01*
X212567909Y-168700960D01*
X212473070Y-168436119D01*
X212328385Y-168194869D01*
X212248703Y-168107000D01*
X215183297Y-168107000D01*
X215103615Y-168194869D01*
X214958930Y-168436119D01*
X214864091Y-168700960D01*
X214985376Y-168923000D01*
X216129000Y-168923000D01*
X216129000Y-168903000D01*
X216383000Y-168903000D01*
X216383000Y-168923000D01*
X217526624Y-168923000D01*
X217647909Y-168700960D01*
X217553070Y-168436119D01*
X217408385Y-168194869D01*
X217328703Y-168107000D01*
X220263297Y-168107000D01*
X220183615Y-168194869D01*
X220038930Y-168436119D01*
X219944091Y-168700960D01*
X220065376Y-168923000D01*
X221209000Y-168923000D01*
X221209000Y-168903000D01*
X221463000Y-168903000D01*
X221463000Y-168923000D01*
X222606624Y-168923000D01*
X222727909Y-168700960D01*
X222633070Y-168436119D01*
X222488385Y-168194869D01*
X222408703Y-168107000D01*
X225308133Y-168107000D01*
X225465193Y-168264060D01*
X225439000Y-168395740D01*
X225439000Y-168688260D01*
X225496068Y-168975158D01*
X225608010Y-169245411D01*
X225770525Y-169488632D01*
X225977368Y-169695475D01*
X226220589Y-169857990D01*
X226490842Y-169969932D01*
X226777740Y-170027000D01*
X227070260Y-170027000D01*
X227357158Y-169969932D01*
X227627411Y-169857990D01*
X227870632Y-169695475D01*
X228077475Y-169488632D01*
X228194000Y-169314240D01*
X228310525Y-169488632D01*
X228517368Y-169695475D01*
X228629001Y-169770066D01*
X228629001Y-170278972D01*
X228624960Y-170320000D01*
X228641082Y-170483688D01*
X228688828Y-170641086D01*
X228766364Y-170786145D01*
X228766365Y-170786146D01*
X228870710Y-170913291D01*
X228902574Y-170939441D01*
X229352554Y-171389421D01*
X229378709Y-171421291D01*
X229505854Y-171525636D01*
X229650913Y-171603172D01*
X229808311Y-171650918D01*
X229930981Y-171663000D01*
X229930991Y-171663000D01*
X229971999Y-171667039D01*
X230013007Y-171663000D01*
X239836982Y-171663000D01*
X239878000Y-171667040D01*
X239919018Y-171663000D01*
X239919019Y-171663000D01*
X240041689Y-171650918D01*
X240199087Y-171603172D01*
X240344146Y-171525636D01*
X240471291Y-171421291D01*
X240497446Y-171389421D01*
X240947422Y-170939445D01*
X240979291Y-170913291D01*
X241083636Y-170786146D01*
X241161172Y-170641087D01*
X241208918Y-170483689D01*
X241221000Y-170361019D01*
X241221000Y-170361009D01*
X241225039Y-170320001D01*
X241221000Y-170278993D01*
X241221000Y-169770065D01*
X241332632Y-169695475D01*
X241464487Y-169563620D01*
X241486498Y-169636180D01*
X241545463Y-169746494D01*
X241624815Y-169843185D01*
X241721506Y-169922537D01*
X241831820Y-169981502D01*
X241951518Y-170017812D01*
X242076000Y-170030072D01*
X243776000Y-170030072D01*
X243900482Y-170017812D01*
X244020180Y-169981502D01*
X244130494Y-169922537D01*
X244227185Y-169843185D01*
X244306537Y-169746494D01*
X244365502Y-169636180D01*
X244401812Y-169516482D01*
X244414072Y-169392000D01*
X244414072Y-167692000D01*
X244401812Y-167567518D01*
X244365502Y-167447820D01*
X244306537Y-167337506D01*
X244227185Y-167240815D01*
X244130494Y-167161463D01*
X244020180Y-167102498D01*
X243900482Y-167066188D01*
X243776000Y-167053928D01*
X242076000Y-167053928D01*
X241951518Y-167066188D01*
X241831820Y-167102498D01*
X241721506Y-167161463D01*
X241624815Y-167240815D01*
X241545463Y-167337506D01*
X241486498Y-167447820D01*
X241464487Y-167520380D01*
X241332632Y-167388525D01*
X241221000Y-167313935D01*
X241221000Y-162658065D01*
X241332632Y-162583475D01*
X241464487Y-162451620D01*
X241486498Y-162524180D01*
X241545463Y-162634494D01*
X241624815Y-162731185D01*
X241721506Y-162810537D01*
X241831820Y-162869502D01*
X241951518Y-162905812D01*
X242076000Y-162918072D01*
X243776000Y-162918072D01*
X243900482Y-162905812D01*
X244020180Y-162869502D01*
X244130494Y-162810537D01*
X244227185Y-162731185D01*
X244306537Y-162634494D01*
X244365502Y-162524180D01*
X244401812Y-162404482D01*
X244414072Y-162280000D01*
X244414072Y-160580000D01*
X244401812Y-160455518D01*
X244365502Y-160335820D01*
X244306537Y-160225506D01*
X244227185Y-160128815D01*
X244130494Y-160049463D01*
X244020180Y-159990498D01*
X243900482Y-159954188D01*
X243776000Y-159941928D01*
X243054940Y-159941928D01*
X243741433Y-159255436D01*
X243773291Y-159229291D01*
X243843288Y-159144000D01*
X243877636Y-159102146D01*
X243955172Y-158957087D01*
X244002918Y-158799688D01*
X244019040Y-158636000D01*
X244015000Y-158594982D01*
X244015000Y-157517930D01*
X244094759Y-157464637D01*
X244294637Y-157264759D01*
X244451680Y-157029727D01*
X244559853Y-156768574D01*
X244615000Y-156491335D01*
X244615000Y-156208665D01*
X244559853Y-155931426D01*
X244451680Y-155670273D01*
X244294637Y-155435241D01*
X244094759Y-155235363D01*
X243859727Y-155078320D01*
X243598574Y-154970147D01*
X243321335Y-154915000D01*
X243038665Y-154915000D01*
X242761426Y-154970147D01*
X242500273Y-155078320D01*
X242265241Y-155235363D01*
X242065363Y-155435241D01*
X242012070Y-155515000D01*
X238759930Y-155515000D01*
X238706637Y-155435241D01*
X238506759Y-155235363D01*
X238271727Y-155078320D01*
X238010574Y-154970147D01*
X237733335Y-154915000D01*
X237450665Y-154915000D01*
X237173426Y-154970147D01*
X236912273Y-155078320D01*
X236677241Y-155235363D01*
X236477363Y-155435241D01*
X236424070Y-155515000D01*
X233171930Y-155515000D01*
X233118637Y-155435241D01*
X232918759Y-155235363D01*
X232839000Y-155182070D01*
X232839000Y-153851018D01*
X232843040Y-153810000D01*
X232826918Y-153646311D01*
X232779172Y-153488913D01*
X232701636Y-153343854D01*
X232623439Y-153248570D01*
X232623437Y-153248568D01*
X232597291Y-153216709D01*
X232565432Y-153190563D01*
X230591446Y-151216579D01*
X230565291Y-151184709D01*
X230438146Y-151080364D01*
X230293087Y-151002828D01*
X230135689Y-150955082D01*
X230013019Y-150943000D01*
X230013018Y-150943000D01*
X229972000Y-150938960D01*
X229930982Y-150943000D01*
X226253869Y-150943000D01*
X224965000Y-149654133D01*
X224965000Y-146190125D01*
X225055701Y-146409095D01*
X225223688Y-146660505D01*
X225437495Y-146874312D01*
X225581000Y-146970199D01*
X225581001Y-147562069D01*
X225501241Y-147615363D01*
X225301363Y-147815241D01*
X225144320Y-148050273D01*
X225036147Y-148311426D01*
X224981000Y-148588665D01*
X224981000Y-148871335D01*
X225036147Y-149148574D01*
X225144320Y-149409727D01*
X225301363Y-149644759D01*
X225501241Y-149844637D01*
X225736273Y-150001680D01*
X225997426Y-150109853D01*
X226274665Y-150165000D01*
X226557335Y-150165000D01*
X226834574Y-150109853D01*
X227095727Y-150001680D01*
X227330759Y-149844637D01*
X227530637Y-149644759D01*
X227687680Y-149409727D01*
X227795853Y-149148574D01*
X227851000Y-148871335D01*
X227851000Y-148588665D01*
X227795853Y-148311426D01*
X227687680Y-148050273D01*
X227530637Y-147815241D01*
X227330759Y-147615363D01*
X227251000Y-147562070D01*
X227251000Y-146970199D01*
X227394505Y-146874312D01*
X227608312Y-146660505D01*
X227776299Y-146409095D01*
X227892011Y-146129743D01*
X227951000Y-145833184D01*
X227951000Y-145530816D01*
X227892011Y-145234257D01*
X227776299Y-144954905D01*
X227608312Y-144703495D01*
X227541873Y-144637056D01*
X227560180Y-144631502D01*
X227670494Y-144572537D01*
X227767185Y-144493185D01*
X227846537Y-144396494D01*
X227905502Y-144286180D01*
X227941812Y-144166482D01*
X227954072Y-144042000D01*
X227954072Y-142242000D01*
X227949837Y-142199000D01*
X230470163Y-142199000D01*
X230465928Y-142242000D01*
X230465928Y-144042000D01*
X230478188Y-144166482D01*
X230514498Y-144286180D01*
X230573463Y-144396494D01*
X230652815Y-144493185D01*
X230749506Y-144572537D01*
X230859820Y-144631502D01*
X230878127Y-144637056D01*
X230811688Y-144703495D01*
X230643701Y-144954905D01*
X230527989Y-145234257D01*
X230469000Y-145530816D01*
X230469000Y-145833184D01*
X230527989Y-146129743D01*
X230643701Y-146409095D01*
X230811688Y-146660505D01*
X231025495Y-146874312D01*
X231169000Y-146970199D01*
X231169001Y-147562069D01*
X231089241Y-147615363D01*
X230889363Y-147815241D01*
X230732320Y-148050273D01*
X230624147Y-148311426D01*
X230569000Y-148588665D01*
X230569000Y-148871335D01*
X230624147Y-149148574D01*
X230732320Y-149409727D01*
X230889363Y-149644759D01*
X231089241Y-149844637D01*
X231324273Y-150001680D01*
X231585426Y-150109853D01*
X231862665Y-150165000D01*
X232145335Y-150165000D01*
X232422574Y-150109853D01*
X232683727Y-150001680D01*
X232918759Y-149844637D01*
X233118637Y-149644759D01*
X233275680Y-149409727D01*
X233383853Y-149148574D01*
X233439000Y-148871335D01*
X233439000Y-148588665D01*
X233383853Y-148311426D01*
X233275680Y-148050273D01*
X233118637Y-147815241D01*
X232918759Y-147615363D01*
X232839000Y-147562070D01*
X232839000Y-146970199D01*
X232982505Y-146874312D01*
X233196312Y-146660505D01*
X233364299Y-146409095D01*
X233480011Y-146129743D01*
X233539000Y-145833184D01*
X233539000Y-145530816D01*
X233480011Y-145234257D01*
X233364299Y-144954905D01*
X233196312Y-144703495D01*
X233129873Y-144637056D01*
X233148180Y-144631502D01*
X233258494Y-144572537D01*
X233355185Y-144493185D01*
X233434537Y-144396494D01*
X233493502Y-144286180D01*
X233529812Y-144166482D01*
X233542072Y-144042000D01*
X233542072Y-143977000D01*
X234756982Y-143977000D01*
X234798000Y-143981040D01*
X234839018Y-143977000D01*
X234839019Y-143977000D01*
X234961689Y-143964918D01*
X235119087Y-143917172D01*
X235264146Y-143839636D01*
X235391291Y-143735291D01*
X235417446Y-143703421D01*
X236053928Y-143066940D01*
X236053928Y-144042000D01*
X236066188Y-144166482D01*
X236102498Y-144286180D01*
X236161463Y-144396494D01*
X236240815Y-144493185D01*
X236337506Y-144572537D01*
X236447820Y-144631502D01*
X236466127Y-144637056D01*
X236399688Y-144703495D01*
X236231701Y-144954905D01*
X236115989Y-145234257D01*
X236057000Y-145530816D01*
X236057000Y-145833184D01*
X236115989Y-146129743D01*
X236231701Y-146409095D01*
X236399688Y-146660505D01*
X236613495Y-146874312D01*
X236757000Y-146970199D01*
X236757001Y-147562069D01*
X236677241Y-147615363D01*
X236477363Y-147815241D01*
X236320320Y-148050273D01*
X236212147Y-148311426D01*
X236157000Y-148588665D01*
X236157000Y-148871335D01*
X236212147Y-149148574D01*
X236320320Y-149409727D01*
X236477363Y-149644759D01*
X236677241Y-149844637D01*
X236912273Y-150001680D01*
X237173426Y-150109853D01*
X237450665Y-150165000D01*
X237733335Y-150165000D01*
X238010574Y-150109853D01*
X238271727Y-150001680D01*
X238506759Y-149844637D01*
X238706637Y-149644759D01*
X238863680Y-149409727D01*
X238971853Y-149148574D01*
X239027000Y-148871335D01*
X239027000Y-148588665D01*
X238971853Y-148311426D01*
X238863680Y-148050273D01*
X238706637Y-147815241D01*
X238506759Y-147615363D01*
X238427000Y-147562070D01*
X238427000Y-146970199D01*
X238570505Y-146874312D01*
X238784312Y-146660505D01*
X238952299Y-146409095D01*
X239068011Y-146129743D01*
X239127000Y-145833184D01*
X239127000Y-145530816D01*
X239068011Y-145234257D01*
X238952299Y-144954905D01*
X238784312Y-144703495D01*
X238717873Y-144637056D01*
X238736180Y-144631502D01*
X238846494Y-144572537D01*
X238943185Y-144493185D01*
X239022537Y-144396494D01*
X239081502Y-144286180D01*
X239117812Y-144166482D01*
X239130072Y-144042000D01*
X239130072Y-143622795D01*
X241455427Y-141297441D01*
X241487291Y-141271291D01*
X241591636Y-141144146D01*
X241669172Y-140999087D01*
X241716918Y-140841689D01*
X241729000Y-140719019D01*
X241729000Y-140719017D01*
X241733040Y-140678001D01*
X241730105Y-140648204D01*
X241913607Y-140497608D01*
X242092932Y-140279101D01*
X242164000Y-140146142D01*
X242235068Y-140279100D01*
X242345001Y-140413053D01*
X242345000Y-141603928D01*
X242280000Y-141603928D01*
X242155518Y-141616188D01*
X242035820Y-141652498D01*
X241925506Y-141711463D01*
X241828815Y-141790815D01*
X241749463Y-141887506D01*
X241690498Y-141997820D01*
X241654188Y-142117518D01*
X241641928Y-142242000D01*
X241641928Y-144042000D01*
X241654188Y-144166482D01*
X241690498Y-144286180D01*
X241749463Y-144396494D01*
X241828815Y-144493185D01*
X241925506Y-144572537D01*
X242035820Y-144631502D01*
X242054127Y-144637056D01*
X241987688Y-144703495D01*
X241819701Y-144954905D01*
X241703989Y-145234257D01*
X241645000Y-145530816D01*
X241645000Y-145833184D01*
X241703989Y-146129743D01*
X241819701Y-146409095D01*
X241987688Y-146660505D01*
X242201495Y-146874312D01*
X242345000Y-146970199D01*
X242345001Y-147562069D01*
X242265241Y-147615363D01*
X242065363Y-147815241D01*
X241908320Y-148050273D01*
X241800147Y-148311426D01*
X241745000Y-148588665D01*
X241745000Y-148871335D01*
X241800147Y-149148574D01*
X241908320Y-149409727D01*
X242065363Y-149644759D01*
X242265241Y-149844637D01*
X242500273Y-150001680D01*
X242761426Y-150109853D01*
X243038665Y-150165000D01*
X243321335Y-150165000D01*
X243598574Y-150109853D01*
X243859727Y-150001680D01*
X244094759Y-149844637D01*
X244294637Y-149644759D01*
X244451680Y-149409727D01*
X244559853Y-149148574D01*
X244615000Y-148871335D01*
X244615000Y-148588665D01*
X244559853Y-148311426D01*
X244451680Y-148050273D01*
X244294637Y-147815241D01*
X244094759Y-147615363D01*
X244015000Y-147562070D01*
X244015000Y-146970199D01*
X244158505Y-146874312D01*
X244372312Y-146660505D01*
X244540299Y-146409095D01*
X244656011Y-146129743D01*
X244715000Y-145833184D01*
X244715000Y-145530816D01*
X244656011Y-145234257D01*
X244540299Y-144954905D01*
X244372312Y-144703495D01*
X244305873Y-144637056D01*
X244324180Y-144631502D01*
X244434494Y-144572537D01*
X244531185Y-144493185D01*
X244610537Y-144396494D01*
X244669502Y-144286180D01*
X244705812Y-144166482D01*
X244718072Y-144042000D01*
X244718072Y-142242000D01*
X244705812Y-142117518D01*
X244669502Y-141997820D01*
X244610537Y-141887506D01*
X244531185Y-141790815D01*
X244434494Y-141711463D01*
X244324180Y-141652498D01*
X244204482Y-141616188D01*
X244080000Y-141603928D01*
X244015000Y-141603928D01*
X244015000Y-140794578D01*
X244235100Y-140676932D01*
X244453607Y-140497608D01*
X244632932Y-140279101D01*
X244766182Y-140029808D01*
X244848236Y-139759309D01*
X244869000Y-139548492D01*
X244869000Y-138607509D01*
X244848236Y-138396691D01*
X244766182Y-138126192D01*
X244632932Y-137876899D01*
X244540445Y-137764203D01*
X246027428Y-136277221D01*
X246059291Y-136251072D01*
X246163636Y-136123927D01*
X246241172Y-135978868D01*
X246288918Y-135821470D01*
X246301000Y-135698800D01*
X246301000Y-135698790D01*
X246305039Y-135657782D01*
X246301000Y-135616774D01*
X246301000Y-121085018D01*
X246305040Y-121043999D01*
X246288918Y-120880311D01*
X246241172Y-120722913D01*
X246163636Y-120577854D01*
X246109115Y-120511420D01*
X246059291Y-120450709D01*
X246027427Y-120424559D01*
X240751446Y-115148579D01*
X240725291Y-115116709D01*
X240598146Y-115012364D01*
X240453087Y-114934828D01*
X240295689Y-114887082D01*
X240173019Y-114875000D01*
X240173018Y-114875000D01*
X240132000Y-114870960D01*
X240090982Y-114875000D01*
X234839018Y-114875000D01*
X234798000Y-114870960D01*
X234756982Y-114875000D01*
X234756981Y-114875000D01*
X234634311Y-114887082D01*
X234476913Y-114934828D01*
X234331854Y-115012364D01*
X234204709Y-115116709D01*
X234178563Y-115148569D01*
X233474578Y-115852555D01*
X233442709Y-115878709D01*
X233338365Y-116005854D01*
X233338364Y-116005855D01*
X233260828Y-116150914D01*
X233213082Y-116308312D01*
X233196960Y-116472000D01*
X233201000Y-116513019D01*
X233201001Y-121449928D01*
X232286000Y-121449928D01*
X232161518Y-121462188D01*
X232041820Y-121498498D01*
X231931506Y-121557463D01*
X231834815Y-121636815D01*
X231755463Y-121733506D01*
X231696498Y-121843820D01*
X231660188Y-121963518D01*
X231647928Y-122088000D01*
X231647928Y-122419060D01*
X225901446Y-116672579D01*
X225875291Y-116640709D01*
X225748146Y-116536364D01*
X225603087Y-116458828D01*
X225445689Y-116411082D01*
X225323019Y-116399000D01*
X225323018Y-116399000D01*
X225282000Y-116394960D01*
X225240982Y-116399000D01*
X222493930Y-116399000D01*
X222440637Y-116319241D01*
X222240759Y-116119363D01*
X222005727Y-115962320D01*
X221744574Y-115854147D01*
X221467335Y-115799000D01*
X221184665Y-115799000D01*
X221090583Y-115817714D01*
X219771364Y-114498495D01*
X242211000Y-114498495D01*
X242211000Y-114889505D01*
X242287282Y-115273003D01*
X242436915Y-115634250D01*
X242654149Y-115959364D01*
X242930636Y-116235851D01*
X243255750Y-116453085D01*
X243616997Y-116602718D01*
X244000495Y-116679000D01*
X244391505Y-116679000D01*
X244775003Y-116602718D01*
X245136250Y-116453085D01*
X245461364Y-116235851D01*
X245737851Y-115959364D01*
X245955085Y-115634250D01*
X246104718Y-115273003D01*
X246181000Y-114889505D01*
X246181000Y-114498495D01*
X246104718Y-114114997D01*
X245955085Y-113753750D01*
X245737851Y-113428636D01*
X245461364Y-113152149D01*
X245136250Y-112934915D01*
X244775003Y-112785282D01*
X244391505Y-112709000D01*
X244000495Y-112709000D01*
X243616997Y-112785282D01*
X243255750Y-112934915D01*
X242930636Y-113152149D01*
X242654149Y-113428636D01*
X242436915Y-113753750D01*
X242287282Y-114114997D01*
X242211000Y-114498495D01*
X219771364Y-114498495D01*
X216721446Y-111448579D01*
X216695291Y-111416709D01*
X216571358Y-111315000D01*
X247321001Y-111315000D01*
X247321000Y-172683000D01*
X177825000Y-172683000D01*
X177825000Y-169744495D01*
X178625000Y-169744495D01*
X178625000Y-170135505D01*
X178701282Y-170519003D01*
X178850915Y-170880250D01*
X179068149Y-171205364D01*
X179344636Y-171481851D01*
X179669750Y-171699085D01*
X180030997Y-171848718D01*
X180414495Y-171925000D01*
X180805505Y-171925000D01*
X181189003Y-171848718D01*
X181550250Y-171699085D01*
X181875364Y-171481851D01*
X182151851Y-171205364D01*
X182369085Y-170880250D01*
X182518718Y-170519003D01*
X182595000Y-170135505D01*
X182595000Y-169744495D01*
X182518718Y-169360997D01*
X182369085Y-168999750D01*
X182151851Y-168674636D01*
X181875364Y-168398149D01*
X181550250Y-168180915D01*
X181189003Y-168031282D01*
X180805505Y-167955000D01*
X180414495Y-167955000D01*
X180030997Y-168031282D01*
X179669750Y-168180915D01*
X179344636Y-168398149D01*
X179068149Y-168674636D01*
X178850915Y-168999750D01*
X178701282Y-169360997D01*
X178625000Y-169744495D01*
X177825000Y-169744495D01*
X177825000Y-151637521D01*
X184678583Y-151637521D01*
X184720303Y-151922074D01*
X184816735Y-152193020D01*
X184886927Y-152324337D01*
X185133449Y-152398946D01*
X185964395Y-151568000D01*
X185133449Y-150737054D01*
X184886927Y-150811663D01*
X184763527Y-151071439D01*
X184693177Y-151350297D01*
X184678583Y-151637521D01*
X177825000Y-151637521D01*
X177825000Y-113784495D01*
X178905000Y-113784495D01*
X178905000Y-114175505D01*
X178981282Y-114559003D01*
X179130915Y-114920250D01*
X179348149Y-115245364D01*
X179624636Y-115521851D01*
X179949750Y-115739085D01*
X180310997Y-115888718D01*
X180694495Y-115965000D01*
X181085505Y-115965000D01*
X181469003Y-115888718D01*
X181830250Y-115739085D01*
X182155364Y-115521851D01*
X182431851Y-115245364D01*
X182649085Y-114920250D01*
X182714004Y-114763521D01*
X184818583Y-114763521D01*
X184860303Y-115048074D01*
X184956735Y-115319020D01*
X185026927Y-115450337D01*
X185273449Y-115524946D01*
X186104395Y-114694000D01*
X186463605Y-114694000D01*
X187294551Y-115524946D01*
X187541073Y-115450337D01*
X187664473Y-115190561D01*
X187734823Y-114911703D01*
X187749417Y-114624479D01*
X187707697Y-114339926D01*
X187611265Y-114068980D01*
X187541073Y-113937663D01*
X187294551Y-113863054D01*
X186463605Y-114694000D01*
X186104395Y-114694000D01*
X185273449Y-113863054D01*
X185026927Y-113937663D01*
X184903527Y-114197439D01*
X184833177Y-114476297D01*
X184818583Y-114763521D01*
X182714004Y-114763521D01*
X182798718Y-114559003D01*
X182875000Y-114175505D01*
X182875000Y-113784495D01*
X182854901Y-113683449D01*
X185453054Y-113683449D01*
X186284000Y-114514395D01*
X187114946Y-113683449D01*
X187040337Y-113436927D01*
X186780561Y-113313527D01*
X186501703Y-113243177D01*
X186214479Y-113228583D01*
X185929926Y-113270303D01*
X185658980Y-113366735D01*
X185527663Y-113436927D01*
X185453054Y-113683449D01*
X182854901Y-113683449D01*
X182798718Y-113400997D01*
X182649085Y-113039750D01*
X182431851Y-112714636D01*
X182155364Y-112438149D01*
X181830250Y-112220915D01*
X181469003Y-112071282D01*
X181085505Y-111995000D01*
X180694495Y-111995000D01*
X180310997Y-112071282D01*
X179949750Y-112220915D01*
X179624636Y-112438149D01*
X179348149Y-112714636D01*
X179130915Y-113039750D01*
X178981282Y-113400997D01*
X178905000Y-113784495D01*
X177825000Y-113784495D01*
X177825000Y-111315000D01*
X194070642Y-111315000D01*
X193946709Y-111416709D01*
G37*
X193946709Y-111416709D02*
X193920563Y-111448568D01*
X188970133Y-116399000D01*
X187481998Y-116399000D01*
X187418056Y-116303304D01*
X187214696Y-116099944D01*
X187013424Y-115965459D01*
X187040337Y-115951073D01*
X187114946Y-115704551D01*
X186284000Y-114873605D01*
X185453054Y-115704551D01*
X185527663Y-115951073D01*
X185555977Y-115964523D01*
X185353304Y-116099944D01*
X185149944Y-116303304D01*
X185086002Y-116399000D01*
X182027007Y-116399000D01*
X181985999Y-116394961D01*
X181944991Y-116399000D01*
X181944981Y-116399000D01*
X181822311Y-116411082D01*
X181664913Y-116458828D01*
X181519854Y-116536364D01*
X181392709Y-116640709D01*
X181366561Y-116672571D01*
X179488574Y-118550559D01*
X179456710Y-118576709D01*
X179388878Y-118659363D01*
X179352364Y-118703855D01*
X179274828Y-118848914D01*
X179227082Y-119006312D01*
X179210960Y-119170000D01*
X179215001Y-119211029D01*
X179215000Y-142598982D01*
X179210960Y-142640000D01*
X179215000Y-142681018D01*
X179227082Y-142803688D01*
X179274828Y-142961086D01*
X179352364Y-143106145D01*
X179456709Y-143233291D01*
X179488579Y-143259446D01*
X186345484Y-150116353D01*
X186074479Y-150102583D01*
X185789926Y-150144303D01*
X185518980Y-150240735D01*
X185387663Y-150310927D01*
X185313054Y-150557449D01*
X186144000Y-151388395D01*
X186158143Y-151374253D01*
X186337748Y-151553858D01*
X186323605Y-151568000D01*
X186337748Y-151582143D01*
X186158143Y-151761748D01*
X186144000Y-151747605D01*
X185313054Y-152578551D01*
X185387663Y-152825073D01*
X185415977Y-152838523D01*
X185213304Y-152973944D01*
X185009944Y-153177304D01*
X184850165Y-153416431D01*
X184740107Y-153682134D01*
X184684000Y-153964203D01*
X184684000Y-154251797D01*
X184740107Y-154533866D01*
X184850165Y-154799569D01*
X185009944Y-155038696D01*
X185213304Y-155242056D01*
X185416759Y-155378000D01*
X185213304Y-155513944D01*
X185009944Y-155717304D01*
X184946002Y-155813000D01*
X183308065Y-155813000D01*
X183233475Y-155701368D01*
X183026632Y-155494525D01*
X182783411Y-155332010D01*
X182513158Y-155220068D01*
X182226260Y-155163000D01*
X181933740Y-155163000D01*
X181646842Y-155220068D01*
X181376589Y-155332010D01*
X181133368Y-155494525D01*
X180926525Y-155701368D01*
X180764010Y-155944589D01*
X180652068Y-156214842D01*
X180595000Y-156501740D01*
X180595000Y-156794260D01*
X180652068Y-157081158D01*
X180764010Y-157351411D01*
X180926525Y-157594632D01*
X181133368Y-157801475D01*
X181307760Y-157918000D01*
X181133368Y-158034525D01*
X180926525Y-158241368D01*
X180764010Y-158484589D01*
X180652068Y-158754842D01*
X180595000Y-159041740D01*
X180595000Y-159334260D01*
X180652068Y-159621158D01*
X180764010Y-159891411D01*
X180926525Y-160134632D01*
X181133368Y-160341475D01*
X181307760Y-160458000D01*
X181133368Y-160574525D01*
X180926525Y-160781368D01*
X180764010Y-161024589D01*
X180652068Y-161294842D01*
X180595000Y-161581740D01*
X180595000Y-161874260D01*
X180652068Y-162161158D01*
X180764010Y-162431411D01*
X180926525Y-162674632D01*
X181058380Y-162806487D01*
X180985820Y-162828498D01*
X180875506Y-162887463D01*
X180778815Y-162966815D01*
X180699463Y-163063506D01*
X180640498Y-163173820D01*
X180604188Y-163293518D01*
X180591928Y-163418000D01*
X180591928Y-165118000D01*
X180604188Y-165242482D01*
X180640498Y-165362180D01*
X180699463Y-165472494D01*
X180778815Y-165569185D01*
X180875506Y-165648537D01*
X180985820Y-165707502D01*
X181105518Y-165743812D01*
X181230000Y-165756072D01*
X182930000Y-165756072D01*
X183054482Y-165743812D01*
X183174180Y-165707502D01*
X183284494Y-165648537D01*
X183381185Y-165569185D01*
X183460537Y-165472494D01*
X183519502Y-165362180D01*
X183555812Y-165242482D01*
X183568072Y-165118000D01*
X183568072Y-165103000D01*
X184946002Y-165103000D01*
X185009944Y-165198696D01*
X185213304Y-165402056D01*
X185416759Y-165538000D01*
X185213304Y-165673944D01*
X185009944Y-165877304D01*
X184850165Y-166116431D01*
X184740107Y-166382134D01*
X184684000Y-166664203D01*
X184684000Y-166951797D01*
X184740107Y-167233866D01*
X184850165Y-167499569D01*
X185009944Y-167738696D01*
X185213304Y-167942056D01*
X185416759Y-168078000D01*
X185213304Y-168213944D01*
X185009944Y-168417304D01*
X184850165Y-168656431D01*
X184740107Y-168922134D01*
X184684000Y-169204203D01*
X184684000Y-169491797D01*
X184740107Y-169773866D01*
X184850165Y-170039569D01*
X185009944Y-170278696D01*
X185213304Y-170482056D01*
X185452431Y-170641835D01*
X185718134Y-170751893D01*
X186000203Y-170808000D01*
X186287797Y-170808000D01*
X186569866Y-170751893D01*
X186835569Y-170641835D01*
X187074696Y-170482056D01*
X187278056Y-170278696D01*
X187341311Y-170184028D01*
X187351744Y-170183000D01*
X187351745Y-170183000D01*
X187474415Y-170170918D01*
X187631813Y-170123172D01*
X187776872Y-170045636D01*
X187904017Y-169941291D01*
X187930172Y-169909421D01*
X191771428Y-166068166D01*
X191803291Y-166042017D01*
X191907636Y-165914872D01*
X191985172Y-165769813D01*
X192032918Y-165612415D01*
X192037900Y-165561835D01*
X192049040Y-165448727D01*
X192045000Y-165407708D01*
X192045000Y-144438072D01*
X192960000Y-144438072D01*
X193084482Y-144425812D01*
X193204180Y-144389502D01*
X193314494Y-144330537D01*
X193411185Y-144251185D01*
X193490537Y-144154494D01*
X193549502Y-144044180D01*
X193585812Y-143924482D01*
X193598072Y-143800000D01*
X193598072Y-140300000D01*
X193585812Y-140175518D01*
X193549502Y-140055820D01*
X193490537Y-139945506D01*
X193411185Y-139848815D01*
X193314494Y-139769463D01*
X193204180Y-139710498D01*
X193084482Y-139674188D01*
X192960000Y-139661928D01*
X192045000Y-139661928D01*
X192045000Y-136274281D01*
X192049039Y-136233273D01*
X192045000Y-136192265D01*
X192045000Y-136192255D01*
X192032918Y-136069585D01*
X191985172Y-135912187D01*
X191907636Y-135767128D01*
X191803291Y-135639983D01*
X191771428Y-135613834D01*
X188070172Y-131912579D01*
X188044017Y-131880709D01*
X187916872Y-131776364D01*
X187771813Y-131698828D01*
X187614415Y-131651082D01*
X187491745Y-131639000D01*
X187491744Y-131639000D01*
X187481311Y-131637972D01*
X187418056Y-131543304D01*
X187214696Y-131339944D01*
X187011241Y-131204000D01*
X187214696Y-131068056D01*
X187418056Y-130864696D01*
X187577835Y-130625569D01*
X187687893Y-130359866D01*
X187744000Y-130077797D01*
X187744000Y-129790203D01*
X187687893Y-129508134D01*
X187577835Y-129242431D01*
X187418056Y-129003304D01*
X187214696Y-128799944D01*
X187011241Y-128664000D01*
X187214696Y-128528056D01*
X187418056Y-128324696D01*
X187577835Y-128085569D01*
X187687893Y-127819866D01*
X187744000Y-127537797D01*
X187744000Y-127250203D01*
X187687893Y-126968134D01*
X187577835Y-126702431D01*
X187418056Y-126463304D01*
X187214696Y-126259944D01*
X187011241Y-126124000D01*
X187214696Y-125988056D01*
X187418056Y-125784696D01*
X187577835Y-125545569D01*
X187687893Y-125279866D01*
X187744000Y-124997797D01*
X187744000Y-124710203D01*
X187687893Y-124428134D01*
X187577835Y-124162431D01*
X187418056Y-123923304D01*
X187214696Y-123719944D01*
X187011241Y-123584000D01*
X187214696Y-123448056D01*
X187418056Y-123244696D01*
X187577835Y-123005569D01*
X187687893Y-122739866D01*
X187744000Y-122457797D01*
X187744000Y-122170203D01*
X187687893Y-121888134D01*
X187577835Y-121622431D01*
X187418056Y-121383304D01*
X187214696Y-121179944D01*
X187011241Y-121044000D01*
X187214696Y-120908056D01*
X187418056Y-120704696D01*
X187577835Y-120465569D01*
X187687893Y-120199866D01*
X187744000Y-119917797D01*
X187744000Y-119630203D01*
X187687893Y-119348134D01*
X187577835Y-119082431D01*
X187418056Y-118843304D01*
X187214696Y-118639944D01*
X187011241Y-118504000D01*
X187214696Y-118368056D01*
X187418056Y-118164696D01*
X187481998Y-118069000D01*
X189274982Y-118069000D01*
X189316000Y-118073040D01*
X189357018Y-118069000D01*
X189357019Y-118069000D01*
X189479689Y-118056918D01*
X189637087Y-118009172D01*
X189782146Y-117931636D01*
X189909291Y-117827291D01*
X189935446Y-117795421D01*
X194885869Y-112845000D01*
X215756133Y-112845000D01*
X219909714Y-116998583D01*
X219891000Y-117092665D01*
X219891000Y-117375335D01*
X219946147Y-117652574D01*
X220054320Y-117913727D01*
X220211363Y-118148759D01*
X220411241Y-118348637D01*
X220646273Y-118505680D01*
X220656865Y-118510067D01*
X220470869Y-118621615D01*
X220262481Y-118810586D01*
X220094963Y-119036580D01*
X219974754Y-119290913D01*
X219934096Y-119424961D01*
X220056085Y-119647000D01*
X221199000Y-119647000D01*
X221199000Y-119627000D01*
X221453000Y-119627000D01*
X221453000Y-119647000D01*
X222595915Y-119647000D01*
X222717904Y-119424961D01*
X222677246Y-119290913D01*
X222557037Y-119036580D01*
X222389519Y-118810586D01*
X222181131Y-118621615D01*
X221995135Y-118510067D01*
X222005727Y-118505680D01*
X222240759Y-118348637D01*
X222440637Y-118148759D01*
X222493930Y-118069000D01*
X224936133Y-118069000D01*
X231266559Y-124399427D01*
X231292709Y-124431291D01*
X231419854Y-124535636D01*
X231564913Y-124613172D01*
X231647928Y-124638354D01*
X231647928Y-125588000D01*
X231660188Y-125712482D01*
X231696498Y-125832180D01*
X231755463Y-125942494D01*
X231834815Y-126039185D01*
X231931506Y-126118537D01*
X232041820Y-126177502D01*
X232161518Y-126213812D01*
X232286000Y-126226072D01*
X235786000Y-126226072D01*
X235910482Y-126213812D01*
X236030180Y-126177502D01*
X236140494Y-126118537D01*
X236237185Y-126039185D01*
X236316537Y-125942494D01*
X236375502Y-125832180D01*
X236411812Y-125712482D01*
X236424072Y-125588000D01*
X237897928Y-125588000D01*
X237910188Y-125712482D01*
X237946498Y-125832180D01*
X238005463Y-125942494D01*
X238084815Y-126039185D01*
X238181506Y-126118537D01*
X238291820Y-126177502D01*
X238411518Y-126213812D01*
X238536000Y-126226072D01*
X239750250Y-126223000D01*
X239909000Y-126064250D01*
X239909000Y-123965000D01*
X240163000Y-123965000D01*
X240163000Y-126064250D01*
X240321750Y-126223000D01*
X241536000Y-126226072D01*
X241660482Y-126213812D01*
X241780180Y-126177502D01*
X241890494Y-126118537D01*
X241987185Y-126039185D01*
X242066537Y-125942494D01*
X242125502Y-125832180D01*
X242161812Y-125712482D01*
X242174072Y-125588000D01*
X242171000Y-124123750D01*
X242012250Y-123965000D01*
X240163000Y-123965000D01*
X239909000Y-123965000D01*
X238059750Y-123965000D01*
X237901000Y-124123750D01*
X237897928Y-125588000D01*
X236424072Y-125588000D01*
X236424072Y-122088000D01*
X236411812Y-121963518D01*
X236375502Y-121843820D01*
X236316537Y-121733506D01*
X236237185Y-121636815D01*
X236140494Y-121557463D01*
X236078655Y-121524409D01*
X236750250Y-121523000D01*
X236909000Y-121364250D01*
X236909000Y-119265000D01*
X237163000Y-119265000D01*
X237163000Y-121364250D01*
X237321750Y-121523000D01*
X238242367Y-121524931D01*
X238181506Y-121557463D01*
X238084815Y-121636815D01*
X238005463Y-121733506D01*
X237946498Y-121843820D01*
X237910188Y-121963518D01*
X237897928Y-122088000D01*
X237901000Y-123552250D01*
X238059750Y-123711000D01*
X239909000Y-123711000D01*
X239909000Y-121611750D01*
X240163000Y-121611750D01*
X240163000Y-123711000D01*
X242012250Y-123711000D01*
X242171000Y-123552250D01*
X242174072Y-122088000D01*
X242161812Y-121963518D01*
X242125502Y-121843820D01*
X242066537Y-121733506D01*
X241987185Y-121636815D01*
X241890494Y-121557463D01*
X241780180Y-121498498D01*
X241660482Y-121462188D01*
X241536000Y-121449928D01*
X240321750Y-121453000D01*
X240163000Y-121611750D01*
X239909000Y-121611750D01*
X239750250Y-121453000D01*
X239079195Y-121451302D01*
X239140494Y-121418537D01*
X239237185Y-121339185D01*
X239316537Y-121242494D01*
X239375502Y-121132180D01*
X239411812Y-121012482D01*
X239424072Y-120888000D01*
X239421000Y-119423750D01*
X239262250Y-119265000D01*
X237163000Y-119265000D01*
X236909000Y-119265000D01*
X236889000Y-119265000D01*
X236889000Y-119011000D01*
X236909000Y-119011000D01*
X236909000Y-116911750D01*
X237163000Y-116911750D01*
X237163000Y-119011000D01*
X239262250Y-119011000D01*
X239421000Y-118852250D01*
X239424072Y-117388000D01*
X239411812Y-117263518D01*
X239375502Y-117143820D01*
X239316537Y-117033506D01*
X239237185Y-116936815D01*
X239140494Y-116857463D01*
X239030180Y-116798498D01*
X238910482Y-116762188D01*
X238786000Y-116749928D01*
X237321750Y-116753000D01*
X237163000Y-116911750D01*
X236909000Y-116911750D01*
X236750250Y-116753000D01*
X235286000Y-116749928D01*
X235161518Y-116762188D01*
X235041820Y-116798498D01*
X234931506Y-116857463D01*
X234871000Y-116907119D01*
X234871000Y-116817868D01*
X235143868Y-116545000D01*
X239786133Y-116545000D01*
X244631001Y-121389869D01*
X244631000Y-129762347D01*
X244588494Y-129727463D01*
X244478180Y-129668498D01*
X244358482Y-129632188D01*
X244234000Y-129619928D01*
X242634000Y-129619928D01*
X242509518Y-129632188D01*
X242389820Y-129668498D01*
X242279506Y-129727463D01*
X242182815Y-129806815D01*
X242103463Y-129903506D01*
X242044498Y-130013820D01*
X242008188Y-130133518D01*
X242006419Y-130151482D01*
X241913608Y-130038392D01*
X241695101Y-129859068D01*
X241445808Y-129725818D01*
X241175309Y-129643764D01*
X240894000Y-129616057D01*
X240612692Y-129643764D01*
X240342193Y-129725818D01*
X240092900Y-129859068D01*
X239874393Y-130038392D01*
X239695068Y-130256899D01*
X239624000Y-130389858D01*
X239552932Y-130256899D01*
X239373608Y-130038392D01*
X239155101Y-129859068D01*
X238905808Y-129725818D01*
X238635309Y-129643764D01*
X238354000Y-129616057D01*
X238072692Y-129643764D01*
X237802193Y-129725818D01*
X237552900Y-129859068D01*
X237334393Y-130038392D01*
X237155068Y-130256899D01*
X237084000Y-130389858D01*
X237012932Y-130256899D01*
X236833608Y-130038392D01*
X236615101Y-129859068D01*
X236365808Y-129725818D01*
X236095309Y-129643764D01*
X235814000Y-129616057D01*
X235532692Y-129643764D01*
X235262193Y-129725818D01*
X235012900Y-129859068D01*
X234794393Y-130038392D01*
X234615068Y-130256899D01*
X234544000Y-130389858D01*
X234472932Y-130256899D01*
X234293608Y-130038392D01*
X234075101Y-129859068D01*
X233825808Y-129725818D01*
X233555309Y-129643764D01*
X233274000Y-129616057D01*
X232992692Y-129643764D01*
X232722193Y-129725818D01*
X232472900Y-129859068D01*
X232254393Y-130038392D01*
X232075068Y-130256899D01*
X232004000Y-130389858D01*
X231932932Y-130256899D01*
X231753608Y-130038392D01*
X231535101Y-129859068D01*
X231285808Y-129725818D01*
X231015309Y-129643764D01*
X230734000Y-129616057D01*
X230452692Y-129643764D01*
X230182193Y-129725818D01*
X229932900Y-129859068D01*
X229714393Y-130038392D01*
X229535068Y-130256899D01*
X229464000Y-130389858D01*
X229392932Y-130256899D01*
X229213608Y-130038392D01*
X228995101Y-129859068D01*
X228745808Y-129725818D01*
X228475309Y-129643764D01*
X228194000Y-129616057D01*
X227912692Y-129643764D01*
X227642193Y-129725818D01*
X227392900Y-129859068D01*
X227174393Y-130038392D01*
X226995068Y-130256899D01*
X226926735Y-130384741D01*
X226776601Y-130155161D01*
X226578895Y-129953500D01*
X226345646Y-129794285D01*
X226085818Y-129683633D01*
X226003039Y-129666096D01*
X225781000Y-129788085D01*
X225781000Y-131331000D01*
X225801000Y-131331000D01*
X225801000Y-131585000D01*
X225781000Y-131585000D01*
X225781000Y-131605000D01*
X225527000Y-131605000D01*
X225527000Y-131585000D01*
X224219000Y-131585000D01*
X224219000Y-131985000D01*
X224255998Y-132181131D01*
X223987446Y-131912579D01*
X223961291Y-131880709D01*
X223834146Y-131776364D01*
X223689087Y-131698828D01*
X223531689Y-131651082D01*
X223409019Y-131639000D01*
X223409018Y-131639000D01*
X223368000Y-131634960D01*
X223326982Y-131639000D01*
X222493930Y-131639000D01*
X222440637Y-131559241D01*
X222240759Y-131359363D01*
X222008241Y-131204000D01*
X222240759Y-131048637D01*
X222358396Y-130931000D01*
X224219000Y-130931000D01*
X224219000Y-131331000D01*
X225527000Y-131331000D01*
X225527000Y-129788085D01*
X225304961Y-129666096D01*
X225222182Y-129683633D01*
X224962354Y-129794285D01*
X224729105Y-129953500D01*
X224531399Y-130155161D01*
X224376834Y-130391517D01*
X224271350Y-130653486D01*
X224219000Y-130931000D01*
X222358396Y-130931000D01*
X222440637Y-130848759D01*
X222597680Y-130613727D01*
X222705853Y-130352574D01*
X222761000Y-130075335D01*
X222761000Y-129792665D01*
X222705853Y-129515426D01*
X222597680Y-129254273D01*
X222440637Y-129019241D01*
X222240759Y-128819363D01*
X222008241Y-128664000D01*
X222240759Y-128508637D01*
X222440637Y-128308759D01*
X222597680Y-128073727D01*
X222705853Y-127812574D01*
X222761000Y-127535335D01*
X222761000Y-127252665D01*
X222705853Y-126975426D01*
X222597680Y-126714273D01*
X222440637Y-126479241D01*
X222240759Y-126279363D01*
X222008241Y-126124000D01*
X222240759Y-125968637D01*
X222440637Y-125768759D01*
X222597680Y-125533727D01*
X222705853Y-125272574D01*
X222761000Y-124995335D01*
X222761000Y-124712665D01*
X222705853Y-124435426D01*
X222597680Y-124174273D01*
X222440637Y-123939241D01*
X222240759Y-123739363D01*
X222008241Y-123584000D01*
X222240759Y-123428637D01*
X222440637Y-123228759D01*
X222597680Y-122993727D01*
X222705853Y-122732574D01*
X222761000Y-122455335D01*
X222761000Y-122172665D01*
X222705853Y-121895426D01*
X222597680Y-121634273D01*
X222440637Y-121399241D01*
X222240759Y-121199363D01*
X222005727Y-121042320D01*
X221995135Y-121037933D01*
X222181131Y-120926385D01*
X222389519Y-120737414D01*
X222557037Y-120511420D01*
X222677246Y-120257087D01*
X222717904Y-120123039D01*
X222595915Y-119901000D01*
X221453000Y-119901000D01*
X221453000Y-119921000D01*
X221199000Y-119921000D01*
X221199000Y-119901000D01*
X220056085Y-119901000D01*
X219934096Y-120123039D01*
X219974754Y-120257087D01*
X220094963Y-120511420D01*
X220262481Y-120737414D01*
X220470869Y-120926385D01*
X220656865Y-121037933D01*
X220646273Y-121042320D01*
X220411241Y-121199363D01*
X220211363Y-121399241D01*
X220054320Y-121634273D01*
X219946147Y-121895426D01*
X219891000Y-122172665D01*
X219891000Y-122455335D01*
X219946147Y-122732574D01*
X220054320Y-122993727D01*
X220211363Y-123228759D01*
X220411241Y-123428637D01*
X220643759Y-123584000D01*
X220411241Y-123739363D01*
X220211363Y-123939241D01*
X220054320Y-124174273D01*
X219946147Y-124435426D01*
X219891000Y-124712665D01*
X219891000Y-124995335D01*
X219946147Y-125272574D01*
X220054320Y-125533727D01*
X220211363Y-125768759D01*
X220411241Y-125968637D01*
X220643759Y-126124000D01*
X220411241Y-126279363D01*
X220211363Y-126479241D01*
X220054320Y-126714273D01*
X219946147Y-126975426D01*
X219891000Y-127252665D01*
X219891000Y-127535335D01*
X219946147Y-127812574D01*
X220054320Y-128073727D01*
X220211363Y-128308759D01*
X220411241Y-128508637D01*
X220643759Y-128664000D01*
X220411241Y-128819363D01*
X220211363Y-129019241D01*
X220054320Y-129254273D01*
X219946147Y-129515426D01*
X219891000Y-129792665D01*
X219891000Y-130075335D01*
X219946147Y-130352574D01*
X220054320Y-130613727D01*
X220211363Y-130848759D01*
X220411241Y-131048637D01*
X220643759Y-131204000D01*
X220411241Y-131359363D01*
X220211363Y-131559241D01*
X220054320Y-131794273D01*
X219946147Y-132055426D01*
X219891000Y-132332665D01*
X219891000Y-132615335D01*
X219946147Y-132892574D01*
X220054320Y-133153727D01*
X220211363Y-133388759D01*
X220411241Y-133588637D01*
X220643759Y-133744000D01*
X220411241Y-133899363D01*
X220211363Y-134099241D01*
X220054320Y-134334273D01*
X219946147Y-134595426D01*
X219891000Y-134872665D01*
X219891000Y-135155335D01*
X219946147Y-135432574D01*
X220054320Y-135693727D01*
X220211363Y-135928759D01*
X220411241Y-136128637D01*
X220643759Y-136284000D01*
X220411241Y-136439363D01*
X220211363Y-136639241D01*
X220054320Y-136874273D01*
X219946147Y-137135426D01*
X219891000Y-137412665D01*
X219891000Y-137695335D01*
X219946147Y-137972574D01*
X220054320Y-138233727D01*
X220211363Y-138468759D01*
X220411241Y-138668637D01*
X220643759Y-138824000D01*
X220411241Y-138979363D01*
X220211363Y-139179241D01*
X220054320Y-139414273D01*
X219946147Y-139675426D01*
X219891000Y-139952665D01*
X219891000Y-140235335D01*
X219946147Y-140512574D01*
X220054320Y-140773727D01*
X220211363Y-141008759D01*
X220411241Y-141208637D01*
X220643759Y-141364000D01*
X220411241Y-141519363D01*
X220211363Y-141719241D01*
X220054320Y-141954273D01*
X219946147Y-142215426D01*
X219891000Y-142492665D01*
X219891000Y-142775335D01*
X219946147Y-143052574D01*
X220054320Y-143313727D01*
X220211363Y-143548759D01*
X220411241Y-143748637D01*
X220643759Y-143904000D01*
X220411241Y-144059363D01*
X220211363Y-144259241D01*
X220054320Y-144494273D01*
X219946147Y-144755426D01*
X219891000Y-145032665D01*
X219891000Y-145315335D01*
X219909714Y-145409417D01*
X215694574Y-149624559D01*
X215662710Y-149650709D01*
X215636562Y-149682571D01*
X215558364Y-149777855D01*
X215480828Y-149922914D01*
X215433082Y-150080312D01*
X215416960Y-150244000D01*
X215421001Y-150285029D01*
X215421000Y-160262070D01*
X215341241Y-160315363D01*
X215141363Y-160515241D01*
X214984320Y-160750273D01*
X214876147Y-161011426D01*
X214821000Y-161288665D01*
X214821000Y-161571335D01*
X214876147Y-161848574D01*
X214984320Y-162109727D01*
X215141363Y-162344759D01*
X215341241Y-162544637D01*
X215576273Y-162701680D01*
X215837426Y-162809853D01*
X216114665Y-162865000D01*
X216397335Y-162865000D01*
X216491418Y-162846285D01*
X218430563Y-164785432D01*
X218456709Y-164817291D01*
X218488568Y-164843437D01*
X218488570Y-164843439D01*
X218574196Y-164913710D01*
X218583854Y-164921636D01*
X218728913Y-164999172D01*
X218886311Y-165046918D01*
X219008981Y-165059000D01*
X219008982Y-165059000D01*
X219050000Y-165063040D01*
X219091018Y-165059000D01*
X235010982Y-165059000D01*
X235052000Y-165063040D01*
X235093018Y-165059000D01*
X235093019Y-165059000D01*
X235215689Y-165046918D01*
X235373087Y-164999172D01*
X235518146Y-164921636D01*
X235645291Y-164817291D01*
X235671446Y-164785421D01*
X237568061Y-162888807D01*
X237699740Y-162915000D01*
X237992260Y-162915000D01*
X238279158Y-162857932D01*
X238549411Y-162745990D01*
X238792632Y-162583475D01*
X238999475Y-162376632D01*
X239116000Y-162202240D01*
X239232525Y-162376632D01*
X239439368Y-162583475D01*
X239551001Y-162658066D01*
X239551000Y-167313935D01*
X239439368Y-167388525D01*
X239232525Y-167595368D01*
X239116000Y-167769760D01*
X238999475Y-167595368D01*
X238792632Y-167388525D01*
X238549411Y-167226010D01*
X238279158Y-167114068D01*
X237992260Y-167057000D01*
X237699740Y-167057000D01*
X237412842Y-167114068D01*
X237142589Y-167226010D01*
X236899368Y-167388525D01*
X236785340Y-167502553D01*
X234723365Y-165440579D01*
X234697210Y-165408709D01*
X234570065Y-165304364D01*
X234425006Y-165226828D01*
X234267608Y-165179082D01*
X234144938Y-165167000D01*
X234144937Y-165167000D01*
X234103919Y-165162960D01*
X234062901Y-165167000D01*
X213807868Y-165167000D01*
X212011000Y-163370133D01*
X212011000Y-162597930D01*
X212090759Y-162544637D01*
X212290637Y-162344759D01*
X212447680Y-162109727D01*
X212555853Y-161848574D01*
X212611000Y-161571335D01*
X212611000Y-161288665D01*
X212555853Y-161011426D01*
X212447680Y-160750273D01*
X212290637Y-160515241D01*
X212090759Y-160315363D01*
X211855727Y-160158320D01*
X211841666Y-160152496D01*
X211841666Y-155215684D01*
X211845706Y-155174666D01*
X211829584Y-155010978D01*
X211781838Y-154853579D01*
X211704302Y-154708520D01*
X211626105Y-154613236D01*
X211626103Y-154613234D01*
X211599957Y-154581375D01*
X211568099Y-154555230D01*
X207502285Y-150489418D01*
X207521000Y-150395335D01*
X207521000Y-150112665D01*
X207465853Y-149835426D01*
X207357680Y-149574273D01*
X207200637Y-149339241D01*
X207000759Y-149139363D01*
X206768241Y-148984000D01*
X207000759Y-148828637D01*
X207200637Y-148628759D01*
X207357680Y-148393727D01*
X207465853Y-148132574D01*
X207521000Y-147855335D01*
X207521000Y-147572665D01*
X207465853Y-147295426D01*
X207357680Y-147034273D01*
X207200637Y-146799241D01*
X207000759Y-146599363D01*
X206768241Y-146444000D01*
X207000759Y-146288637D01*
X207200637Y-146088759D01*
X207357680Y-145853727D01*
X207465853Y-145592574D01*
X207521000Y-145315335D01*
X207521000Y-145032665D01*
X207465853Y-144755426D01*
X207357680Y-144494273D01*
X207200637Y-144259241D01*
X207000759Y-144059363D01*
X206768241Y-143904000D01*
X207000759Y-143748637D01*
X207200637Y-143548759D01*
X207357680Y-143313727D01*
X207465853Y-143052574D01*
X207521000Y-142775335D01*
X207521000Y-142492665D01*
X207465853Y-142215426D01*
X207357680Y-141954273D01*
X207200637Y-141719241D01*
X207000759Y-141519363D01*
X206768241Y-141364000D01*
X207000759Y-141208637D01*
X207200637Y-141008759D01*
X207357680Y-140773727D01*
X207465853Y-140512574D01*
X207521000Y-140235335D01*
X207521000Y-139952665D01*
X207465853Y-139675426D01*
X207357680Y-139414273D01*
X207200637Y-139179241D01*
X207000759Y-138979363D01*
X206768241Y-138824000D01*
X207000759Y-138668637D01*
X207200637Y-138468759D01*
X207357680Y-138233727D01*
X207465853Y-137972574D01*
X207521000Y-137695335D01*
X207521000Y-137412665D01*
X207465853Y-137135426D01*
X207357680Y-136874273D01*
X207200637Y-136639241D01*
X207000759Y-136439363D01*
X206768241Y-136284000D01*
X207000759Y-136128637D01*
X207200637Y-135928759D01*
X207357680Y-135693727D01*
X207465853Y-135432574D01*
X207521000Y-135155335D01*
X207521000Y-134872665D01*
X207465853Y-134595426D01*
X207357680Y-134334273D01*
X207200637Y-134099241D01*
X207000759Y-133899363D01*
X206768241Y-133744000D01*
X207000759Y-133588637D01*
X207200637Y-133388759D01*
X207357680Y-133153727D01*
X207465853Y-132892574D01*
X207521000Y-132615335D01*
X207521000Y-132332665D01*
X207465853Y-132055426D01*
X207357680Y-131794273D01*
X207200637Y-131559241D01*
X207000759Y-131359363D01*
X206768241Y-131204000D01*
X207000759Y-131048637D01*
X207200637Y-130848759D01*
X207357680Y-130613727D01*
X207465853Y-130352574D01*
X207521000Y-130075335D01*
X207521000Y-129792665D01*
X207465853Y-129515426D01*
X207357680Y-129254273D01*
X207200637Y-129019241D01*
X207000759Y-128819363D01*
X206768241Y-128664000D01*
X207000759Y-128508637D01*
X207200637Y-128308759D01*
X207357680Y-128073727D01*
X207465853Y-127812574D01*
X207521000Y-127535335D01*
X207521000Y-127252665D01*
X207465853Y-126975426D01*
X207357680Y-126714273D01*
X207200637Y-126479241D01*
X207000759Y-126279363D01*
X206768241Y-126124000D01*
X207000759Y-125968637D01*
X207200637Y-125768759D01*
X207357680Y-125533727D01*
X207465853Y-125272574D01*
X207521000Y-124995335D01*
X207521000Y-124712665D01*
X207465853Y-124435426D01*
X207357680Y-124174273D01*
X207200637Y-123939241D01*
X207000759Y-123739363D01*
X206768241Y-123584000D01*
X207000759Y-123428637D01*
X207200637Y-123228759D01*
X207357680Y-122993727D01*
X207465853Y-122732574D01*
X207521000Y-122455335D01*
X207521000Y-122172665D01*
X207465853Y-121895426D01*
X207357680Y-121634273D01*
X207200637Y-121399241D01*
X207000759Y-121199363D01*
X206768241Y-121044000D01*
X207000759Y-120888637D01*
X207200637Y-120688759D01*
X207357680Y-120453727D01*
X207465853Y-120192574D01*
X207521000Y-119915335D01*
X207521000Y-119632665D01*
X207465853Y-119355426D01*
X207357680Y-119094273D01*
X207200637Y-118859241D01*
X207002039Y-118660643D01*
X207010482Y-118659812D01*
X207130180Y-118623502D01*
X207240494Y-118564537D01*
X207337185Y-118485185D01*
X207416537Y-118388494D01*
X207475502Y-118278180D01*
X207511812Y-118158482D01*
X207524072Y-118034000D01*
X207524072Y-116434000D01*
X207511812Y-116309518D01*
X207475502Y-116189820D01*
X207416537Y-116079506D01*
X207337185Y-115982815D01*
X207240494Y-115903463D01*
X207130180Y-115844498D01*
X207010482Y-115808188D01*
X206886000Y-115795928D01*
X205286000Y-115795928D01*
X205161518Y-115808188D01*
X205041820Y-115844498D01*
X204931506Y-115903463D01*
X204834815Y-115982815D01*
X204755463Y-116079506D01*
X204696498Y-116189820D01*
X204660188Y-116309518D01*
X204647928Y-116434000D01*
X204647928Y-116968709D01*
X204632918Y-116816311D01*
X204585172Y-116658913D01*
X204507636Y-116513854D01*
X204457764Y-116453085D01*
X204403291Y-116386709D01*
X204371427Y-116360559D01*
X202143446Y-114132579D01*
X202117291Y-114100709D01*
X201990146Y-113996364D01*
X201845087Y-113918828D01*
X201687689Y-113871082D01*
X201565019Y-113859000D01*
X201565018Y-113859000D01*
X201524000Y-113854960D01*
X201482982Y-113859000D01*
X200181998Y-113859000D01*
X200118056Y-113763304D01*
X199914696Y-113559944D01*
X199675569Y-113400165D01*
X199409866Y-113290107D01*
X199127797Y-113234000D01*
X198840203Y-113234000D01*
X198558134Y-113290107D01*
X198292431Y-113400165D01*
X198053304Y-113559944D01*
X197849944Y-113763304D01*
X197690165Y-114002431D01*
X197580107Y-114268134D01*
X197524000Y-114550203D01*
X197524000Y-114837797D01*
X197580107Y-115119866D01*
X197690165Y-115385569D01*
X197849944Y-115624696D01*
X198053304Y-115828056D01*
X198256759Y-115964000D01*
X198053304Y-116099944D01*
X197849944Y-116303304D01*
X197690165Y-116542431D01*
X197580107Y-116808134D01*
X197524000Y-117090203D01*
X197524000Y-117377797D01*
X197580107Y-117659866D01*
X197690165Y-117925569D01*
X197849944Y-118164696D01*
X198053304Y-118368056D01*
X198256759Y-118504000D01*
X198053304Y-118639944D01*
X197849944Y-118843304D01*
X197690165Y-119082431D01*
X197580107Y-119348134D01*
X197524000Y-119630203D01*
X197524000Y-119917797D01*
X197580107Y-120199866D01*
X197690165Y-120465569D01*
X197849944Y-120704696D01*
X198053304Y-120908056D01*
X198256759Y-121044000D01*
X198053304Y-121179944D01*
X197849944Y-121383304D01*
X197690165Y-121622431D01*
X197580107Y-121888134D01*
X197524000Y-122170203D01*
X197524000Y-122457797D01*
X197580107Y-122739866D01*
X197690165Y-123005569D01*
X197849944Y-123244696D01*
X198053304Y-123448056D01*
X198256759Y-123584000D01*
X198053304Y-123719944D01*
X197849944Y-123923304D01*
X197690165Y-124162431D01*
X197580107Y-124428134D01*
X197524000Y-124710203D01*
X197524000Y-124997797D01*
X197580107Y-125279866D01*
X197690165Y-125545569D01*
X197849944Y-125784696D01*
X198053304Y-125988056D01*
X198256759Y-126124000D01*
X198053304Y-126259944D01*
X197849944Y-126463304D01*
X197690165Y-126702431D01*
X197580107Y-126968134D01*
X197524000Y-127250203D01*
X197524000Y-127537797D01*
X197580107Y-127819866D01*
X197690165Y-128085569D01*
X197849944Y-128324696D01*
X198053304Y-128528056D01*
X198256759Y-128664000D01*
X198053304Y-128799944D01*
X197849944Y-129003304D01*
X197690165Y-129242431D01*
X197580107Y-129508134D01*
X197524000Y-129790203D01*
X197524000Y-130077797D01*
X197580107Y-130359866D01*
X197690165Y-130625569D01*
X197849944Y-130864696D01*
X198014506Y-131029258D01*
X197914820Y-131059498D01*
X197804506Y-131118463D01*
X197707815Y-131197815D01*
X197628463Y-131294506D01*
X197569498Y-131404820D01*
X197533188Y-131524518D01*
X197520928Y-131649000D01*
X197520928Y-133299000D01*
X197533188Y-133423482D01*
X197569498Y-133543180D01*
X197628463Y-133653494D01*
X197707815Y-133750185D01*
X197804506Y-133829537D01*
X197914820Y-133888502D01*
X198034518Y-133924812D01*
X198159000Y-133937072D01*
X199809000Y-133937072D01*
X199933482Y-133924812D01*
X200053180Y-133888502D01*
X200163494Y-133829537D01*
X200260185Y-133750185D01*
X200339537Y-133653494D01*
X200398502Y-133543180D01*
X200434812Y-133423482D01*
X200446087Y-133309000D01*
X200670133Y-133309000D01*
X204620797Y-137259665D01*
X204669604Y-137319137D01*
X204651000Y-137412665D01*
X204651000Y-137695335D01*
X204706147Y-137972574D01*
X204814320Y-138233727D01*
X204971363Y-138468759D01*
X205171241Y-138668637D01*
X205403759Y-138824000D01*
X205171241Y-138979363D01*
X204971363Y-139179241D01*
X204814320Y-139414273D01*
X204706147Y-139675426D01*
X204651000Y-139952665D01*
X204651000Y-140235335D01*
X204669714Y-140329417D01*
X198282579Y-146716554D01*
X198250709Y-146742709D01*
X198146365Y-146869854D01*
X198146364Y-146869855D01*
X198068828Y-147014914D01*
X198021082Y-147172312D01*
X198004960Y-147336000D01*
X198009000Y-147377019D01*
X198009001Y-150370002D01*
X197913304Y-150433944D01*
X197709944Y-150637304D01*
X197550165Y-150876431D01*
X197440107Y-151142134D01*
X197384000Y-151424203D01*
X197384000Y-151711797D01*
X197440107Y-151993866D01*
X197550165Y-152259569D01*
X197709944Y-152498696D01*
X197913304Y-152702056D01*
X198116759Y-152838000D01*
X197913304Y-152973944D01*
X197709944Y-153177304D01*
X197550165Y-153416431D01*
X197440107Y-153682134D01*
X197384000Y-153964203D01*
X197384000Y-154251797D01*
X197440107Y-154533866D01*
X197550165Y-154799569D01*
X197709944Y-155038696D01*
X197913304Y-155242056D01*
X198116759Y-155378000D01*
X197913304Y-155513944D01*
X197709944Y-155717304D01*
X197550165Y-155956431D01*
X197440107Y-156222134D01*
X197384000Y-156504203D01*
X197384000Y-156791797D01*
X197440107Y-157073866D01*
X197550165Y-157339569D01*
X197709944Y-157578696D01*
X197913304Y-157782056D01*
X198116759Y-157918000D01*
X197913304Y-158053944D01*
X197709944Y-158257304D01*
X197550165Y-158496431D01*
X197440107Y-158762134D01*
X197384000Y-159044203D01*
X197384000Y-159331797D01*
X197440107Y-159613866D01*
X197550165Y-159879569D01*
X197709944Y-160118696D01*
X197913304Y-160322056D01*
X198116759Y-160458000D01*
X197913304Y-160593944D01*
X197709944Y-160797304D01*
X197550165Y-161036431D01*
X197440107Y-161302134D01*
X197384000Y-161584203D01*
X197384000Y-161871797D01*
X197440107Y-162153866D01*
X197550165Y-162419569D01*
X197709944Y-162658696D01*
X197913304Y-162862056D01*
X198116759Y-162998000D01*
X197913304Y-163133944D01*
X197709944Y-163337304D01*
X197550165Y-163576431D01*
X197440107Y-163842134D01*
X197384000Y-164124203D01*
X197384000Y-164411797D01*
X197440107Y-164693866D01*
X197550165Y-164959569D01*
X197709944Y-165198696D01*
X197913304Y-165402056D01*
X198116759Y-165538000D01*
X197913304Y-165673944D01*
X197709944Y-165877304D01*
X197550165Y-166116431D01*
X197440107Y-166382134D01*
X197384000Y-166664203D01*
X197384000Y-166951797D01*
X197440107Y-167233866D01*
X197550165Y-167499569D01*
X197709944Y-167738696D01*
X197874506Y-167903258D01*
X197774820Y-167933498D01*
X197664506Y-167992463D01*
X197567815Y-168071815D01*
X197488463Y-168168506D01*
X197429498Y-168278820D01*
X197393188Y-168398518D01*
X197380928Y-168523000D01*
X197380928Y-170173000D01*
X197393188Y-170297482D01*
X197429498Y-170417180D01*
X197488463Y-170527494D01*
X197567815Y-170624185D01*
X197664506Y-170703537D01*
X197774820Y-170762502D01*
X197894518Y-170798812D01*
X198019000Y-170811072D01*
X199669000Y-170811072D01*
X199793482Y-170798812D01*
X199913180Y-170762502D01*
X200023494Y-170703537D01*
X200120185Y-170624185D01*
X200199537Y-170527494D01*
X200258502Y-170417180D01*
X200294812Y-170297482D01*
X200307072Y-170173000D01*
X200307072Y-170148354D01*
X200390087Y-170123172D01*
X200535146Y-170045636D01*
X200662291Y-169941291D01*
X200688446Y-169909421D01*
X201198827Y-169399040D01*
X204704091Y-169399040D01*
X204798930Y-169663881D01*
X204943615Y-169905131D01*
X205132586Y-170113519D01*
X205358580Y-170281037D01*
X205612913Y-170401246D01*
X205746961Y-170441904D01*
X205969000Y-170319915D01*
X205969000Y-169177000D01*
X206223000Y-169177000D01*
X206223000Y-170319915D01*
X206445039Y-170441904D01*
X206579087Y-170401246D01*
X206833420Y-170281037D01*
X207059414Y-170113519D01*
X207248385Y-169905131D01*
X207393070Y-169663881D01*
X207487909Y-169399040D01*
X209784091Y-169399040D01*
X209878930Y-169663881D01*
X210023615Y-169905131D01*
X210212586Y-170113519D01*
X210438580Y-170281037D01*
X210692913Y-170401246D01*
X210826961Y-170441904D01*
X211049000Y-170319915D01*
X211049000Y-169177000D01*
X211303000Y-169177000D01*
X211303000Y-170319915D01*
X211525039Y-170441904D01*
X211659087Y-170401246D01*
X211913420Y-170281037D01*
X212139414Y-170113519D01*
X212328385Y-169905131D01*
X212473070Y-169663881D01*
X212567909Y-169399040D01*
X214864091Y-169399040D01*
X214958930Y-169663881D01*
X215103615Y-169905131D01*
X215292586Y-170113519D01*
X215518580Y-170281037D01*
X215772913Y-170401246D01*
X215906961Y-170441904D01*
X216129000Y-170319915D01*
X216129000Y-169177000D01*
X216383000Y-169177000D01*
X216383000Y-170319915D01*
X216605039Y-170441904D01*
X216739087Y-170401246D01*
X216993420Y-170281037D01*
X217219414Y-170113519D01*
X217408385Y-169905131D01*
X217553070Y-169663881D01*
X217647909Y-169399040D01*
X219944091Y-169399040D01*
X220038930Y-169663881D01*
X220183615Y-169905131D01*
X220372586Y-170113519D01*
X220598580Y-170281037D01*
X220852913Y-170401246D01*
X220986961Y-170441904D01*
X221209000Y-170319915D01*
X221209000Y-169177000D01*
X221463000Y-169177000D01*
X221463000Y-170319915D01*
X221685039Y-170441904D01*
X221819087Y-170401246D01*
X222073420Y-170281037D01*
X222299414Y-170113519D01*
X222488385Y-169905131D01*
X222633070Y-169663881D01*
X222727909Y-169399040D01*
X222606624Y-169177000D01*
X221463000Y-169177000D01*
X221209000Y-169177000D01*
X220065376Y-169177000D01*
X219944091Y-169399040D01*
X217647909Y-169399040D01*
X217526624Y-169177000D01*
X216383000Y-169177000D01*
X216129000Y-169177000D01*
X214985376Y-169177000D01*
X214864091Y-169399040D01*
X212567909Y-169399040D01*
X212446624Y-169177000D01*
X211303000Y-169177000D01*
X211049000Y-169177000D01*
X209905376Y-169177000D01*
X209784091Y-169399040D01*
X207487909Y-169399040D01*
X207366624Y-169177000D01*
X206223000Y-169177000D01*
X205969000Y-169177000D01*
X204825376Y-169177000D01*
X204704091Y-169399040D01*
X201198827Y-169399040D01*
X201896907Y-168700960D01*
X204704091Y-168700960D01*
X204825376Y-168923000D01*
X205969000Y-168923000D01*
X205969000Y-167780085D01*
X206223000Y-167780085D01*
X206223000Y-168923000D01*
X207366624Y-168923000D01*
X207487909Y-168700960D01*
X207393070Y-168436119D01*
X207248385Y-168194869D01*
X207059414Y-167986481D01*
X206833420Y-167818963D01*
X206579087Y-167698754D01*
X206445039Y-167658096D01*
X206223000Y-167780085D01*
X205969000Y-167780085D01*
X205746961Y-167658096D01*
X205612913Y-167698754D01*
X205358580Y-167818963D01*
X205132586Y-167986481D01*
X204943615Y-168194869D01*
X204798930Y-168436119D01*
X204704091Y-168700960D01*
X201896907Y-168700960D01*
X204471427Y-166126441D01*
X204503291Y-166100291D01*
X204607636Y-165973146D01*
X204685172Y-165828087D01*
X204732918Y-165670689D01*
X204745000Y-165548019D01*
X204745000Y-165548009D01*
X204749039Y-165507001D01*
X204745000Y-165465993D01*
X204745000Y-161918231D01*
X204824320Y-162109727D01*
X204981363Y-162344759D01*
X205181241Y-162544637D01*
X205261000Y-162597930D01*
X205261000Y-163420981D01*
X205256960Y-163462000D01*
X205261000Y-163503018D01*
X205273082Y-163625688D01*
X205320828Y-163783086D01*
X205398364Y-163928145D01*
X205502709Y-164055291D01*
X205534579Y-164081446D01*
X209286563Y-167833432D01*
X209312709Y-167865291D01*
X209344568Y-167891437D01*
X209344570Y-167891439D01*
X209408747Y-167944107D01*
X209439854Y-167969636D01*
X209584913Y-168047172D01*
X209742311Y-168094918D01*
X209864981Y-168107000D01*
X209864982Y-168107000D01*
X209906000Y-168111040D01*
X209947018Y-168107000D01*
X210103297Y-168107000D01*
X210023615Y-168194869D01*
X209878930Y-168436119D01*
X209784091Y-168700960D01*
X209905376Y-168923000D01*
X211049000Y-168923000D01*
X211049000Y-168903000D01*
X211303000Y-168903000D01*
X211303000Y-168923000D01*
X212446624Y-168923000D01*
X212567909Y-168700960D01*
X212473070Y-168436119D01*
X212328385Y-168194869D01*
X212248703Y-168107000D01*
X215183297Y-168107000D01*
X215103615Y-168194869D01*
X214958930Y-168436119D01*
X214864091Y-168700960D01*
X214985376Y-168923000D01*
X216129000Y-168923000D01*
X216129000Y-168903000D01*
X216383000Y-168903000D01*
X216383000Y-168923000D01*
X217526624Y-168923000D01*
X217647909Y-168700960D01*
X217553070Y-168436119D01*
X217408385Y-168194869D01*
X217328703Y-168107000D01*
X220263297Y-168107000D01*
X220183615Y-168194869D01*
X220038930Y-168436119D01*
X219944091Y-168700960D01*
X220065376Y-168923000D01*
X221209000Y-168923000D01*
X221209000Y-168903000D01*
X221463000Y-168903000D01*
X221463000Y-168923000D01*
X222606624Y-168923000D01*
X222727909Y-168700960D01*
X222633070Y-168436119D01*
X222488385Y-168194869D01*
X222408703Y-168107000D01*
X225308133Y-168107000D01*
X225465193Y-168264060D01*
X225439000Y-168395740D01*
X225439000Y-168688260D01*
X225496068Y-168975158D01*
X225608010Y-169245411D01*
X225770525Y-169488632D01*
X225977368Y-169695475D01*
X226220589Y-169857990D01*
X226490842Y-169969932D01*
X226777740Y-170027000D01*
X227070260Y-170027000D01*
X227357158Y-169969932D01*
X227627411Y-169857990D01*
X227870632Y-169695475D01*
X228077475Y-169488632D01*
X228194000Y-169314240D01*
X228310525Y-169488632D01*
X228517368Y-169695475D01*
X228629001Y-169770066D01*
X228629001Y-170278972D01*
X228624960Y-170320000D01*
X228641082Y-170483688D01*
X228688828Y-170641086D01*
X228766364Y-170786145D01*
X228766365Y-170786146D01*
X228870710Y-170913291D01*
X228902574Y-170939441D01*
X229352554Y-171389421D01*
X229378709Y-171421291D01*
X229505854Y-171525636D01*
X229650913Y-171603172D01*
X229808311Y-171650918D01*
X229930981Y-171663000D01*
X229930991Y-171663000D01*
X229971999Y-171667039D01*
X230013007Y-171663000D01*
X239836982Y-171663000D01*
X239878000Y-171667040D01*
X239919018Y-171663000D01*
X239919019Y-171663000D01*
X240041689Y-171650918D01*
X240199087Y-171603172D01*
X240344146Y-171525636D01*
X240471291Y-171421291D01*
X240497446Y-171389421D01*
X240947422Y-170939445D01*
X240979291Y-170913291D01*
X241083636Y-170786146D01*
X241161172Y-170641087D01*
X241208918Y-170483689D01*
X241221000Y-170361019D01*
X241221000Y-170361009D01*
X241225039Y-170320001D01*
X241221000Y-170278993D01*
X241221000Y-169770065D01*
X241332632Y-169695475D01*
X241464487Y-169563620D01*
X241486498Y-169636180D01*
X241545463Y-169746494D01*
X241624815Y-169843185D01*
X241721506Y-169922537D01*
X241831820Y-169981502D01*
X241951518Y-170017812D01*
X242076000Y-170030072D01*
X243776000Y-170030072D01*
X243900482Y-170017812D01*
X244020180Y-169981502D01*
X244130494Y-169922537D01*
X244227185Y-169843185D01*
X244306537Y-169746494D01*
X244365502Y-169636180D01*
X244401812Y-169516482D01*
X244414072Y-169392000D01*
X244414072Y-167692000D01*
X244401812Y-167567518D01*
X244365502Y-167447820D01*
X244306537Y-167337506D01*
X244227185Y-167240815D01*
X244130494Y-167161463D01*
X244020180Y-167102498D01*
X243900482Y-167066188D01*
X243776000Y-167053928D01*
X242076000Y-167053928D01*
X241951518Y-167066188D01*
X241831820Y-167102498D01*
X241721506Y-167161463D01*
X241624815Y-167240815D01*
X241545463Y-167337506D01*
X241486498Y-167447820D01*
X241464487Y-167520380D01*
X241332632Y-167388525D01*
X241221000Y-167313935D01*
X241221000Y-162658065D01*
X241332632Y-162583475D01*
X241464487Y-162451620D01*
X241486498Y-162524180D01*
X241545463Y-162634494D01*
X241624815Y-162731185D01*
X241721506Y-162810537D01*
X241831820Y-162869502D01*
X241951518Y-162905812D01*
X242076000Y-162918072D01*
X243776000Y-162918072D01*
X243900482Y-162905812D01*
X244020180Y-162869502D01*
X244130494Y-162810537D01*
X244227185Y-162731185D01*
X244306537Y-162634494D01*
X244365502Y-162524180D01*
X244401812Y-162404482D01*
X244414072Y-162280000D01*
X244414072Y-160580000D01*
X244401812Y-160455518D01*
X244365502Y-160335820D01*
X244306537Y-160225506D01*
X244227185Y-160128815D01*
X244130494Y-160049463D01*
X244020180Y-159990498D01*
X243900482Y-159954188D01*
X243776000Y-159941928D01*
X243054940Y-159941928D01*
X243741433Y-159255436D01*
X243773291Y-159229291D01*
X243843288Y-159144000D01*
X243877636Y-159102146D01*
X243955172Y-158957087D01*
X244002918Y-158799688D01*
X244019040Y-158636000D01*
X244015000Y-158594982D01*
X244015000Y-157517930D01*
X244094759Y-157464637D01*
X244294637Y-157264759D01*
X244451680Y-157029727D01*
X244559853Y-156768574D01*
X244615000Y-156491335D01*
X244615000Y-156208665D01*
X244559853Y-155931426D01*
X244451680Y-155670273D01*
X244294637Y-155435241D01*
X244094759Y-155235363D01*
X243859727Y-155078320D01*
X243598574Y-154970147D01*
X243321335Y-154915000D01*
X243038665Y-154915000D01*
X242761426Y-154970147D01*
X242500273Y-155078320D01*
X242265241Y-155235363D01*
X242065363Y-155435241D01*
X242012070Y-155515000D01*
X238759930Y-155515000D01*
X238706637Y-155435241D01*
X238506759Y-155235363D01*
X238271727Y-155078320D01*
X238010574Y-154970147D01*
X237733335Y-154915000D01*
X237450665Y-154915000D01*
X237173426Y-154970147D01*
X236912273Y-155078320D01*
X236677241Y-155235363D01*
X236477363Y-155435241D01*
X236424070Y-155515000D01*
X233171930Y-155515000D01*
X233118637Y-155435241D01*
X232918759Y-155235363D01*
X232839000Y-155182070D01*
X232839000Y-153851018D01*
X232843040Y-153810000D01*
X232826918Y-153646311D01*
X232779172Y-153488913D01*
X232701636Y-153343854D01*
X232623439Y-153248570D01*
X232623437Y-153248568D01*
X232597291Y-153216709D01*
X232565432Y-153190563D01*
X230591446Y-151216579D01*
X230565291Y-151184709D01*
X230438146Y-151080364D01*
X230293087Y-151002828D01*
X230135689Y-150955082D01*
X230013019Y-150943000D01*
X230013018Y-150943000D01*
X229972000Y-150938960D01*
X229930982Y-150943000D01*
X226253869Y-150943000D01*
X224965000Y-149654133D01*
X224965000Y-146190125D01*
X225055701Y-146409095D01*
X225223688Y-146660505D01*
X225437495Y-146874312D01*
X225581000Y-146970199D01*
X225581001Y-147562069D01*
X225501241Y-147615363D01*
X225301363Y-147815241D01*
X225144320Y-148050273D01*
X225036147Y-148311426D01*
X224981000Y-148588665D01*
X224981000Y-148871335D01*
X225036147Y-149148574D01*
X225144320Y-149409727D01*
X225301363Y-149644759D01*
X225501241Y-149844637D01*
X225736273Y-150001680D01*
X225997426Y-150109853D01*
X226274665Y-150165000D01*
X226557335Y-150165000D01*
X226834574Y-150109853D01*
X227095727Y-150001680D01*
X227330759Y-149844637D01*
X227530637Y-149644759D01*
X227687680Y-149409727D01*
X227795853Y-149148574D01*
X227851000Y-148871335D01*
X227851000Y-148588665D01*
X227795853Y-148311426D01*
X227687680Y-148050273D01*
X227530637Y-147815241D01*
X227330759Y-147615363D01*
X227251000Y-147562070D01*
X227251000Y-146970199D01*
X227394505Y-146874312D01*
X227608312Y-146660505D01*
X227776299Y-146409095D01*
X227892011Y-146129743D01*
X227951000Y-145833184D01*
X227951000Y-145530816D01*
X227892011Y-145234257D01*
X227776299Y-144954905D01*
X227608312Y-144703495D01*
X227541873Y-144637056D01*
X227560180Y-144631502D01*
X227670494Y-144572537D01*
X227767185Y-144493185D01*
X227846537Y-144396494D01*
X227905502Y-144286180D01*
X227941812Y-144166482D01*
X227954072Y-144042000D01*
X227954072Y-142242000D01*
X227949837Y-142199000D01*
X230470163Y-142199000D01*
X230465928Y-142242000D01*
X230465928Y-144042000D01*
X230478188Y-144166482D01*
X230514498Y-144286180D01*
X230573463Y-144396494D01*
X230652815Y-144493185D01*
X230749506Y-144572537D01*
X230859820Y-144631502D01*
X230878127Y-144637056D01*
X230811688Y-144703495D01*
X230643701Y-144954905D01*
X230527989Y-145234257D01*
X230469000Y-145530816D01*
X230469000Y-145833184D01*
X230527989Y-146129743D01*
X230643701Y-146409095D01*
X230811688Y-146660505D01*
X231025495Y-146874312D01*
X231169000Y-146970199D01*
X231169001Y-147562069D01*
X231089241Y-147615363D01*
X230889363Y-147815241D01*
X230732320Y-148050273D01*
X230624147Y-148311426D01*
X230569000Y-148588665D01*
X230569000Y-148871335D01*
X230624147Y-149148574D01*
X230732320Y-149409727D01*
X230889363Y-149644759D01*
X231089241Y-149844637D01*
X231324273Y-150001680D01*
X231585426Y-150109853D01*
X231862665Y-150165000D01*
X232145335Y-150165000D01*
X232422574Y-150109853D01*
X232683727Y-150001680D01*
X232918759Y-149844637D01*
X233118637Y-149644759D01*
X233275680Y-149409727D01*
X233383853Y-149148574D01*
X233439000Y-148871335D01*
X233439000Y-148588665D01*
X233383853Y-148311426D01*
X233275680Y-148050273D01*
X233118637Y-147815241D01*
X232918759Y-147615363D01*
X232839000Y-147562070D01*
X232839000Y-146970199D01*
X232982505Y-146874312D01*
X233196312Y-146660505D01*
X233364299Y-146409095D01*
X233480011Y-146129743D01*
X233539000Y-145833184D01*
X233539000Y-145530816D01*
X233480011Y-145234257D01*
X233364299Y-144954905D01*
X233196312Y-144703495D01*
X233129873Y-144637056D01*
X233148180Y-144631502D01*
X233258494Y-144572537D01*
X233355185Y-144493185D01*
X233434537Y-144396494D01*
X233493502Y-144286180D01*
X233529812Y-144166482D01*
X233542072Y-144042000D01*
X233542072Y-143977000D01*
X234756982Y-143977000D01*
X234798000Y-143981040D01*
X234839018Y-143977000D01*
X234839019Y-143977000D01*
X234961689Y-143964918D01*
X235119087Y-143917172D01*
X235264146Y-143839636D01*
X235391291Y-143735291D01*
X235417446Y-143703421D01*
X236053928Y-143066940D01*
X236053928Y-144042000D01*
X236066188Y-144166482D01*
X236102498Y-144286180D01*
X236161463Y-144396494D01*
X236240815Y-144493185D01*
X236337506Y-144572537D01*
X236447820Y-144631502D01*
X236466127Y-144637056D01*
X236399688Y-144703495D01*
X236231701Y-144954905D01*
X236115989Y-145234257D01*
X236057000Y-145530816D01*
X236057000Y-145833184D01*
X236115989Y-146129743D01*
X236231701Y-146409095D01*
X236399688Y-146660505D01*
X236613495Y-146874312D01*
X236757000Y-146970199D01*
X236757001Y-147562069D01*
X236677241Y-147615363D01*
X236477363Y-147815241D01*
X236320320Y-148050273D01*
X236212147Y-148311426D01*
X236157000Y-148588665D01*
X236157000Y-148871335D01*
X236212147Y-149148574D01*
X236320320Y-149409727D01*
X236477363Y-149644759D01*
X236677241Y-149844637D01*
X236912273Y-150001680D01*
X237173426Y-150109853D01*
X237450665Y-150165000D01*
X237733335Y-150165000D01*
X238010574Y-150109853D01*
X238271727Y-150001680D01*
X238506759Y-149844637D01*
X238706637Y-149644759D01*
X238863680Y-149409727D01*
X238971853Y-149148574D01*
X239027000Y-148871335D01*
X239027000Y-148588665D01*
X238971853Y-148311426D01*
X238863680Y-148050273D01*
X238706637Y-147815241D01*
X238506759Y-147615363D01*
X238427000Y-147562070D01*
X238427000Y-146970199D01*
X238570505Y-146874312D01*
X238784312Y-146660505D01*
X238952299Y-146409095D01*
X239068011Y-146129743D01*
X239127000Y-145833184D01*
X239127000Y-145530816D01*
X239068011Y-145234257D01*
X238952299Y-144954905D01*
X238784312Y-144703495D01*
X238717873Y-144637056D01*
X238736180Y-144631502D01*
X238846494Y-144572537D01*
X238943185Y-144493185D01*
X239022537Y-144396494D01*
X239081502Y-144286180D01*
X239117812Y-144166482D01*
X239130072Y-144042000D01*
X239130072Y-143622795D01*
X241455427Y-141297441D01*
X241487291Y-141271291D01*
X241591636Y-141144146D01*
X241669172Y-140999087D01*
X241716918Y-140841689D01*
X241729000Y-140719019D01*
X241729000Y-140719017D01*
X241733040Y-140678001D01*
X241730105Y-140648204D01*
X241913607Y-140497608D01*
X242092932Y-140279101D01*
X242164000Y-140146142D01*
X242235068Y-140279100D01*
X242345001Y-140413053D01*
X242345000Y-141603928D01*
X242280000Y-141603928D01*
X242155518Y-141616188D01*
X242035820Y-141652498D01*
X241925506Y-141711463D01*
X241828815Y-141790815D01*
X241749463Y-141887506D01*
X241690498Y-141997820D01*
X241654188Y-142117518D01*
X241641928Y-142242000D01*
X241641928Y-144042000D01*
X241654188Y-144166482D01*
X241690498Y-144286180D01*
X241749463Y-144396494D01*
X241828815Y-144493185D01*
X241925506Y-144572537D01*
X242035820Y-144631502D01*
X242054127Y-144637056D01*
X241987688Y-144703495D01*
X241819701Y-144954905D01*
X241703989Y-145234257D01*
X241645000Y-145530816D01*
X241645000Y-145833184D01*
X241703989Y-146129743D01*
X241819701Y-146409095D01*
X241987688Y-146660505D01*
X242201495Y-146874312D01*
X242345000Y-146970199D01*
X242345001Y-147562069D01*
X242265241Y-147615363D01*
X242065363Y-147815241D01*
X241908320Y-148050273D01*
X241800147Y-148311426D01*
X241745000Y-148588665D01*
X241745000Y-148871335D01*
X241800147Y-149148574D01*
X241908320Y-149409727D01*
X242065363Y-149644759D01*
X242265241Y-149844637D01*
X242500273Y-150001680D01*
X242761426Y-150109853D01*
X243038665Y-150165000D01*
X243321335Y-150165000D01*
X243598574Y-150109853D01*
X243859727Y-150001680D01*
X244094759Y-149844637D01*
X244294637Y-149644759D01*
X244451680Y-149409727D01*
X244559853Y-149148574D01*
X244615000Y-148871335D01*
X244615000Y-148588665D01*
X244559853Y-148311426D01*
X244451680Y-148050273D01*
X244294637Y-147815241D01*
X244094759Y-147615363D01*
X244015000Y-147562070D01*
X244015000Y-146970199D01*
X244158505Y-146874312D01*
X244372312Y-146660505D01*
X244540299Y-146409095D01*
X244656011Y-146129743D01*
X244715000Y-145833184D01*
X244715000Y-145530816D01*
X244656011Y-145234257D01*
X244540299Y-144954905D01*
X244372312Y-144703495D01*
X244305873Y-144637056D01*
X244324180Y-144631502D01*
X244434494Y-144572537D01*
X244531185Y-144493185D01*
X244610537Y-144396494D01*
X244669502Y-144286180D01*
X244705812Y-144166482D01*
X244718072Y-144042000D01*
X244718072Y-142242000D01*
X244705812Y-142117518D01*
X244669502Y-141997820D01*
X244610537Y-141887506D01*
X244531185Y-141790815D01*
X244434494Y-141711463D01*
X244324180Y-141652498D01*
X244204482Y-141616188D01*
X244080000Y-141603928D01*
X244015000Y-141603928D01*
X244015000Y-140794578D01*
X244235100Y-140676932D01*
X244453607Y-140497608D01*
X244632932Y-140279101D01*
X244766182Y-140029808D01*
X244848236Y-139759309D01*
X244869000Y-139548492D01*
X244869000Y-138607509D01*
X244848236Y-138396691D01*
X244766182Y-138126192D01*
X244632932Y-137876899D01*
X244540445Y-137764203D01*
X246027428Y-136277221D01*
X246059291Y-136251072D01*
X246163636Y-136123927D01*
X246241172Y-135978868D01*
X246288918Y-135821470D01*
X246301000Y-135698800D01*
X246301000Y-135698790D01*
X246305039Y-135657782D01*
X246301000Y-135616774D01*
X246301000Y-121085018D01*
X246305040Y-121043999D01*
X246288918Y-120880311D01*
X246241172Y-120722913D01*
X246163636Y-120577854D01*
X246109115Y-120511420D01*
X246059291Y-120450709D01*
X246027427Y-120424559D01*
X240751446Y-115148579D01*
X240725291Y-115116709D01*
X240598146Y-115012364D01*
X240453087Y-114934828D01*
X240295689Y-114887082D01*
X240173019Y-114875000D01*
X240173018Y-114875000D01*
X240132000Y-114870960D01*
X240090982Y-114875000D01*
X234839018Y-114875000D01*
X234798000Y-114870960D01*
X234756982Y-114875000D01*
X234756981Y-114875000D01*
X234634311Y-114887082D01*
X234476913Y-114934828D01*
X234331854Y-115012364D01*
X234204709Y-115116709D01*
X234178563Y-115148569D01*
X233474578Y-115852555D01*
X233442709Y-115878709D01*
X233338365Y-116005854D01*
X233338364Y-116005855D01*
X233260828Y-116150914D01*
X233213082Y-116308312D01*
X233196960Y-116472000D01*
X233201000Y-116513019D01*
X233201001Y-121449928D01*
X232286000Y-121449928D01*
X232161518Y-121462188D01*
X232041820Y-121498498D01*
X231931506Y-121557463D01*
X231834815Y-121636815D01*
X231755463Y-121733506D01*
X231696498Y-121843820D01*
X231660188Y-121963518D01*
X231647928Y-122088000D01*
X231647928Y-122419060D01*
X225901446Y-116672579D01*
X225875291Y-116640709D01*
X225748146Y-116536364D01*
X225603087Y-116458828D01*
X225445689Y-116411082D01*
X225323019Y-116399000D01*
X225323018Y-116399000D01*
X225282000Y-116394960D01*
X225240982Y-116399000D01*
X222493930Y-116399000D01*
X222440637Y-116319241D01*
X222240759Y-116119363D01*
X222005727Y-115962320D01*
X221744574Y-115854147D01*
X221467335Y-115799000D01*
X221184665Y-115799000D01*
X221090583Y-115817714D01*
X219771364Y-114498495D01*
X242211000Y-114498495D01*
X242211000Y-114889505D01*
X242287282Y-115273003D01*
X242436915Y-115634250D01*
X242654149Y-115959364D01*
X242930636Y-116235851D01*
X243255750Y-116453085D01*
X243616997Y-116602718D01*
X244000495Y-116679000D01*
X244391505Y-116679000D01*
X244775003Y-116602718D01*
X245136250Y-116453085D01*
X245461364Y-116235851D01*
X245737851Y-115959364D01*
X245955085Y-115634250D01*
X246104718Y-115273003D01*
X246181000Y-114889505D01*
X246181000Y-114498495D01*
X246104718Y-114114997D01*
X245955085Y-113753750D01*
X245737851Y-113428636D01*
X245461364Y-113152149D01*
X245136250Y-112934915D01*
X244775003Y-112785282D01*
X244391505Y-112709000D01*
X244000495Y-112709000D01*
X243616997Y-112785282D01*
X243255750Y-112934915D01*
X242930636Y-113152149D01*
X242654149Y-113428636D01*
X242436915Y-113753750D01*
X242287282Y-114114997D01*
X242211000Y-114498495D01*
X219771364Y-114498495D01*
X216721446Y-111448579D01*
X216695291Y-111416709D01*
X216571358Y-111315000D01*
X247321001Y-111315000D01*
X247321000Y-172683000D01*
X177825000Y-172683000D01*
X177825000Y-169744495D01*
X178625000Y-169744495D01*
X178625000Y-170135505D01*
X178701282Y-170519003D01*
X178850915Y-170880250D01*
X179068149Y-171205364D01*
X179344636Y-171481851D01*
X179669750Y-171699085D01*
X180030997Y-171848718D01*
X180414495Y-171925000D01*
X180805505Y-171925000D01*
X181189003Y-171848718D01*
X181550250Y-171699085D01*
X181875364Y-171481851D01*
X182151851Y-171205364D01*
X182369085Y-170880250D01*
X182518718Y-170519003D01*
X182595000Y-170135505D01*
X182595000Y-169744495D01*
X182518718Y-169360997D01*
X182369085Y-168999750D01*
X182151851Y-168674636D01*
X181875364Y-168398149D01*
X181550250Y-168180915D01*
X181189003Y-168031282D01*
X180805505Y-167955000D01*
X180414495Y-167955000D01*
X180030997Y-168031282D01*
X179669750Y-168180915D01*
X179344636Y-168398149D01*
X179068149Y-168674636D01*
X178850915Y-168999750D01*
X178701282Y-169360997D01*
X178625000Y-169744495D01*
X177825000Y-169744495D01*
X177825000Y-151637521D01*
X184678583Y-151637521D01*
X184720303Y-151922074D01*
X184816735Y-152193020D01*
X184886927Y-152324337D01*
X185133449Y-152398946D01*
X185964395Y-151568000D01*
X185133449Y-150737054D01*
X184886927Y-150811663D01*
X184763527Y-151071439D01*
X184693177Y-151350297D01*
X184678583Y-151637521D01*
X177825000Y-151637521D01*
X177825000Y-113784495D01*
X178905000Y-113784495D01*
X178905000Y-114175505D01*
X178981282Y-114559003D01*
X179130915Y-114920250D01*
X179348149Y-115245364D01*
X179624636Y-115521851D01*
X179949750Y-115739085D01*
X180310997Y-115888718D01*
X180694495Y-115965000D01*
X181085505Y-115965000D01*
X181469003Y-115888718D01*
X181830250Y-115739085D01*
X182155364Y-115521851D01*
X182431851Y-115245364D01*
X182649085Y-114920250D01*
X182714004Y-114763521D01*
X184818583Y-114763521D01*
X184860303Y-115048074D01*
X184956735Y-115319020D01*
X185026927Y-115450337D01*
X185273449Y-115524946D01*
X186104395Y-114694000D01*
X186463605Y-114694000D01*
X187294551Y-115524946D01*
X187541073Y-115450337D01*
X187664473Y-115190561D01*
X187734823Y-114911703D01*
X187749417Y-114624479D01*
X187707697Y-114339926D01*
X187611265Y-114068980D01*
X187541073Y-113937663D01*
X187294551Y-113863054D01*
X186463605Y-114694000D01*
X186104395Y-114694000D01*
X185273449Y-113863054D01*
X185026927Y-113937663D01*
X184903527Y-114197439D01*
X184833177Y-114476297D01*
X184818583Y-114763521D01*
X182714004Y-114763521D01*
X182798718Y-114559003D01*
X182875000Y-114175505D01*
X182875000Y-113784495D01*
X182854901Y-113683449D01*
X185453054Y-113683449D01*
X186284000Y-114514395D01*
X187114946Y-113683449D01*
X187040337Y-113436927D01*
X186780561Y-113313527D01*
X186501703Y-113243177D01*
X186214479Y-113228583D01*
X185929926Y-113270303D01*
X185658980Y-113366735D01*
X185527663Y-113436927D01*
X185453054Y-113683449D01*
X182854901Y-113683449D01*
X182798718Y-113400997D01*
X182649085Y-113039750D01*
X182431851Y-112714636D01*
X182155364Y-112438149D01*
X181830250Y-112220915D01*
X181469003Y-112071282D01*
X181085505Y-111995000D01*
X180694495Y-111995000D01*
X180310997Y-112071282D01*
X179949750Y-112220915D01*
X179624636Y-112438149D01*
X179348149Y-112714636D01*
X179130915Y-113039750D01*
X178981282Y-113400997D01*
X178905000Y-113784495D01*
X177825000Y-113784495D01*
X177825000Y-111315000D01*
X194070642Y-111315000D01*
X193946709Y-111416709D01*
M02*
