G04 #@! TF.GenerationSoftware,KiCad,Pcbnew,5.1.5-52549c5~84~ubuntu18.04.1*
G04 #@! TF.CreationDate,2020-09-18T13:51:25-05:00*
G04 #@! TF.ProjectId,pcb,7063622e-6b69-4636-9164-5f7063625858,rev?*
G04 #@! TF.SameCoordinates,Original*
G04 #@! TF.FileFunction,Legend,Top*
G04 #@! TF.FilePolarity,Positive*
%FSLAX46Y46*%
G04 Gerber Fmt 4.6, Leading zero omitted, Abs format (unit mm)*
G04 Created by KiCad (PCBNEW 5.1.5-52549c5~84~ubuntu18.04.1) date 2020-09-18 13:51:25*
%MOMM*%
%LPD*%
G04 APERTURE LIST*
%ADD10C,0.200000*%
%ADD11C,0.120000*%
%ADD12C,0.127000*%
%ADD13C,0.150000*%
%ADD14C,0.015000*%
G04 APERTURE END LIST*
D10*
X212989976Y-150484047D02*
X212156642Y-150484047D01*
X212275690Y-150484047D02*
X212216166Y-150424523D01*
X212156642Y-150305476D01*
X212156642Y-150126904D01*
X212216166Y-150007857D01*
X212335214Y-149948333D01*
X212989976Y-149948333D01*
X212335214Y-149948333D02*
X212216166Y-149888809D01*
X212156642Y-149769761D01*
X212156642Y-149591190D01*
X212216166Y-149472142D01*
X212335214Y-149412619D01*
X212989976Y-149412619D01*
X212989976Y-148281666D02*
X212335214Y-148281666D01*
X212216166Y-148341190D01*
X212156642Y-148460238D01*
X212156642Y-148698333D01*
X212216166Y-148817380D01*
X212930452Y-148281666D02*
X212989976Y-148400714D01*
X212989976Y-148698333D01*
X212930452Y-148817380D01*
X212811404Y-148876904D01*
X212692357Y-148876904D01*
X212573309Y-148817380D01*
X212513785Y-148698333D01*
X212513785Y-148400714D01*
X212454261Y-148281666D01*
X212989976Y-147150714D02*
X211739976Y-147150714D01*
X212930452Y-147150714D02*
X212989976Y-147269761D01*
X212989976Y-147507857D01*
X212930452Y-147626904D01*
X212870928Y-147686428D01*
X212751880Y-147745952D01*
X212394738Y-147745952D01*
X212275690Y-147686428D01*
X212216166Y-147626904D01*
X212156642Y-147507857D01*
X212156642Y-147269761D01*
X212216166Y-147150714D01*
X212930452Y-146079285D02*
X212989976Y-146198333D01*
X212989976Y-146436428D01*
X212930452Y-146555476D01*
X212811404Y-146615000D01*
X212335214Y-146615000D01*
X212216166Y-146555476D01*
X212156642Y-146436428D01*
X212156642Y-146198333D01*
X212216166Y-146079285D01*
X212335214Y-146019761D01*
X212454261Y-146019761D01*
X212573309Y-146615000D01*
X212989976Y-144531666D02*
X212156642Y-144531666D01*
X211739976Y-144531666D02*
X211799500Y-144591190D01*
X211859023Y-144531666D01*
X211799500Y-144472142D01*
X211739976Y-144531666D01*
X211859023Y-144531666D01*
X212156642Y-143936428D02*
X212989976Y-143936428D01*
X212275690Y-143936428D02*
X212216166Y-143876904D01*
X212156642Y-143757857D01*
X212156642Y-143579285D01*
X212216166Y-143460238D01*
X212335214Y-143400714D01*
X212989976Y-143400714D01*
X212930452Y-141376904D02*
X212989976Y-141495952D01*
X212989976Y-141734047D01*
X212930452Y-141853095D01*
X212811404Y-141912619D01*
X212335214Y-141912619D01*
X212216166Y-141853095D01*
X212156642Y-141734047D01*
X212156642Y-141495952D01*
X212216166Y-141376904D01*
X212335214Y-141317380D01*
X212454261Y-141317380D01*
X212573309Y-141912619D01*
X212989976Y-140245952D02*
X212335214Y-140245952D01*
X212216166Y-140305476D01*
X212156642Y-140424523D01*
X212156642Y-140662619D01*
X212216166Y-140781666D01*
X212930452Y-140245952D02*
X212989976Y-140365000D01*
X212989976Y-140662619D01*
X212930452Y-140781666D01*
X212811404Y-140841190D01*
X212692357Y-140841190D01*
X212573309Y-140781666D01*
X212513785Y-140662619D01*
X212513785Y-140365000D01*
X212454261Y-140245952D01*
X212989976Y-139650714D02*
X212156642Y-139650714D01*
X212394738Y-139650714D02*
X212275690Y-139591190D01*
X212216166Y-139531666D01*
X212156642Y-139412619D01*
X212156642Y-139293571D01*
X212156642Y-139055476D02*
X212156642Y-138579285D01*
X211739976Y-138876904D02*
X212811404Y-138876904D01*
X212930452Y-138817380D01*
X212989976Y-138698333D01*
X212989976Y-138579285D01*
X212989976Y-138162619D02*
X211739976Y-138162619D01*
X212989976Y-137626904D02*
X212335214Y-137626904D01*
X212216166Y-137686428D01*
X212156642Y-137805476D01*
X212156642Y-137984047D01*
X212216166Y-138103095D01*
X212275690Y-138162619D01*
X212156642Y-136198333D02*
X212989976Y-135960238D01*
X212394738Y-135722142D01*
X212989976Y-135484047D01*
X212156642Y-135245952D01*
X212989976Y-134769761D02*
X212156642Y-134769761D01*
X211739976Y-134769761D02*
X211799500Y-134829285D01*
X211859023Y-134769761D01*
X211799500Y-134710238D01*
X211739976Y-134769761D01*
X211859023Y-134769761D01*
X212156642Y-134353095D02*
X212156642Y-133876904D01*
X211739976Y-134174523D02*
X212811404Y-134174523D01*
X212930452Y-134115000D01*
X212989976Y-133995952D01*
X212989976Y-133876904D01*
X212989976Y-133460238D02*
X211739976Y-133460238D01*
X212989976Y-132924523D02*
X212335214Y-132924523D01*
X212216166Y-132984047D01*
X212156642Y-133103095D01*
X212156642Y-133281666D01*
X212216166Y-133400714D01*
X212275690Y-133460238D01*
X212989976Y-131198333D02*
X212930452Y-131317380D01*
X212811404Y-131376904D01*
X211739976Y-131376904D01*
X212989976Y-130543571D02*
X212930452Y-130662619D01*
X212870928Y-130722142D01*
X212751880Y-130781666D01*
X212394738Y-130781666D01*
X212275690Y-130722142D01*
X212216166Y-130662619D01*
X212156642Y-130543571D01*
X212156642Y-130365000D01*
X212216166Y-130245952D01*
X212275690Y-130186428D01*
X212394738Y-130126904D01*
X212751880Y-130126904D01*
X212870928Y-130186428D01*
X212930452Y-130245952D01*
X212989976Y-130365000D01*
X212989976Y-130543571D01*
X212156642Y-129710238D02*
X212989976Y-129412619D01*
X212156642Y-129115000D01*
X212930452Y-128162619D02*
X212989976Y-128281666D01*
X212989976Y-128519761D01*
X212930452Y-128638809D01*
X212811404Y-128698333D01*
X212335214Y-128698333D01*
X212216166Y-128638809D01*
X212156642Y-128519761D01*
X212156642Y-128281666D01*
X212216166Y-128162619D01*
X212335214Y-128103095D01*
X212454261Y-128103095D01*
X212573309Y-128698333D01*
X212989976Y-126615000D02*
X211739976Y-126615000D01*
X212216166Y-126615000D02*
X212156642Y-126495952D01*
X212156642Y-126257857D01*
X212216166Y-126138809D01*
X212275690Y-126079285D01*
X212394738Y-126019761D01*
X212751880Y-126019761D01*
X212870928Y-126079285D01*
X212930452Y-126138809D01*
X212989976Y-126257857D01*
X212989976Y-126495952D01*
X212930452Y-126615000D01*
X212156642Y-125603095D02*
X212989976Y-125305476D01*
X212156642Y-125007857D02*
X212989976Y-125305476D01*
X213287595Y-125424523D01*
X213347119Y-125484047D01*
X213406642Y-125603095D01*
X212989976Y-123579285D02*
X211739976Y-123579285D01*
X211739976Y-123281666D01*
X211799500Y-123103095D01*
X211918547Y-122984047D01*
X212037595Y-122924523D01*
X212275690Y-122865000D01*
X212454261Y-122865000D01*
X212692357Y-122924523D01*
X212811404Y-122984047D01*
X212930452Y-123103095D01*
X212989976Y-123281666D01*
X212989976Y-123579285D01*
X212989976Y-121793571D02*
X212335214Y-121793571D01*
X212216166Y-121853095D01*
X212156642Y-121972142D01*
X212156642Y-122210238D01*
X212216166Y-122329285D01*
X212930452Y-121793571D02*
X212989976Y-121912619D01*
X212989976Y-122210238D01*
X212930452Y-122329285D01*
X212811404Y-122388809D01*
X212692357Y-122388809D01*
X212573309Y-122329285D01*
X212513785Y-122210238D01*
X212513785Y-121912619D01*
X212454261Y-121793571D01*
X212156642Y-121376904D02*
X212156642Y-120900714D01*
X211739976Y-121198333D02*
X212811404Y-121198333D01*
X212930452Y-121138809D01*
X212989976Y-121019761D01*
X212989976Y-120900714D01*
X212989976Y-119948333D02*
X212335214Y-119948333D01*
X212216166Y-120007857D01*
X212156642Y-120126904D01*
X212156642Y-120365000D01*
X212216166Y-120484047D01*
X212930452Y-119948333D02*
X212989976Y-120067380D01*
X212989976Y-120365000D01*
X212930452Y-120484047D01*
X212811404Y-120543571D01*
X212692357Y-120543571D01*
X212573309Y-120484047D01*
X212513785Y-120365000D01*
X212513785Y-120067380D01*
X212454261Y-119948333D01*
X212989976Y-119174523D02*
X212930452Y-119293571D01*
X212811404Y-119353095D01*
X211739976Y-119353095D01*
X212989976Y-118698333D02*
X212156642Y-118698333D01*
X211739976Y-118698333D02*
X211799500Y-118757857D01*
X211859023Y-118698333D01*
X211799500Y-118638809D01*
X211739976Y-118698333D01*
X211859023Y-118698333D01*
X212930452Y-117567380D02*
X212989976Y-117686428D01*
X212989976Y-117924523D01*
X212930452Y-118043571D01*
X212870928Y-118103095D01*
X212751880Y-118162619D01*
X212394738Y-118162619D01*
X212275690Y-118103095D01*
X212216166Y-118043571D01*
X212156642Y-117924523D01*
X212156642Y-117686428D01*
X212216166Y-117567380D01*
X212989976Y-116495952D02*
X212335214Y-116495952D01*
X212216166Y-116555476D01*
X212156642Y-116674523D01*
X212156642Y-116912619D01*
X212216166Y-117031666D01*
X212930452Y-116495952D02*
X212989976Y-116615000D01*
X212989976Y-116912619D01*
X212930452Y-117031666D01*
X212811404Y-117091190D01*
X212692357Y-117091190D01*
X212573309Y-117031666D01*
X212513785Y-116912619D01*
X212513785Y-116615000D01*
X212454261Y-116495952D01*
X215064976Y-146793571D02*
X213814976Y-146793571D01*
X213814976Y-146317380D01*
X213874500Y-146198333D01*
X213934023Y-146138809D01*
X214053071Y-146079285D01*
X214231642Y-146079285D01*
X214350690Y-146138809D01*
X214410214Y-146198333D01*
X214469738Y-146317380D01*
X214469738Y-146793571D01*
X215064976Y-145365000D02*
X215005452Y-145484047D01*
X214945928Y-145543571D01*
X214826880Y-145603095D01*
X214469738Y-145603095D01*
X214350690Y-145543571D01*
X214291166Y-145484047D01*
X214231642Y-145365000D01*
X214231642Y-145186428D01*
X214291166Y-145067380D01*
X214350690Y-145007857D01*
X214469738Y-144948333D01*
X214826880Y-144948333D01*
X214945928Y-145007857D01*
X215005452Y-145067380D01*
X215064976Y-145186428D01*
X215064976Y-145365000D01*
X215064976Y-144412619D02*
X214231642Y-144412619D01*
X213814976Y-144412619D02*
X213874500Y-144472142D01*
X213934023Y-144412619D01*
X213874500Y-144353095D01*
X213814976Y-144412619D01*
X213934023Y-144412619D01*
X214231642Y-143817380D02*
X215064976Y-143817380D01*
X214350690Y-143817380D02*
X214291166Y-143757857D01*
X214231642Y-143638809D01*
X214231642Y-143460238D01*
X214291166Y-143341190D01*
X214410214Y-143281666D01*
X215064976Y-143281666D01*
X214231642Y-142865000D02*
X214231642Y-142388809D01*
X213814976Y-142686428D02*
X214886404Y-142686428D01*
X215005452Y-142626904D01*
X215064976Y-142507857D01*
X215064976Y-142388809D01*
X215005452Y-140484047D02*
X215064976Y-140603095D01*
X215064976Y-140841190D01*
X215005452Y-140960238D01*
X214945928Y-141019761D01*
X214826880Y-141079285D01*
X214469738Y-141079285D01*
X214350690Y-141019761D01*
X214291166Y-140960238D01*
X214231642Y-140841190D01*
X214231642Y-140603095D01*
X214291166Y-140484047D01*
X215064976Y-139769761D02*
X215005452Y-139888809D01*
X214945928Y-139948333D01*
X214826880Y-140007857D01*
X214469738Y-140007857D01*
X214350690Y-139948333D01*
X214291166Y-139888809D01*
X214231642Y-139769761D01*
X214231642Y-139591190D01*
X214291166Y-139472142D01*
X214350690Y-139412619D01*
X214469738Y-139353095D01*
X214826880Y-139353095D01*
X214945928Y-139412619D01*
X215005452Y-139472142D01*
X215064976Y-139591190D01*
X215064976Y-139769761D01*
X214231642Y-138281666D02*
X215064976Y-138281666D01*
X214231642Y-138817380D02*
X214886404Y-138817380D01*
X215005452Y-138757857D01*
X215064976Y-138638809D01*
X215064976Y-138460238D01*
X215005452Y-138341190D01*
X214945928Y-138281666D01*
X214231642Y-137686428D02*
X215064976Y-137686428D01*
X214350690Y-137686428D02*
X214291166Y-137626904D01*
X214231642Y-137507857D01*
X214231642Y-137329285D01*
X214291166Y-137210238D01*
X214410214Y-137150714D01*
X215064976Y-137150714D01*
X214231642Y-136734047D02*
X214231642Y-136257857D01*
X213814976Y-136555476D02*
X214886404Y-136555476D01*
X215005452Y-136495952D01*
X215064976Y-136376904D01*
X215064976Y-136257857D01*
X215005452Y-135365000D02*
X215064976Y-135484047D01*
X215064976Y-135722142D01*
X215005452Y-135841190D01*
X214886404Y-135900714D01*
X214410214Y-135900714D01*
X214291166Y-135841190D01*
X214231642Y-135722142D01*
X214231642Y-135484047D01*
X214291166Y-135365000D01*
X214410214Y-135305476D01*
X214529261Y-135305476D01*
X214648309Y-135900714D01*
X215064976Y-134769761D02*
X214231642Y-134769761D01*
X214469738Y-134769761D02*
X214350690Y-134710238D01*
X214291166Y-134650714D01*
X214231642Y-134531666D01*
X214231642Y-134412619D01*
X215064976Y-133043571D02*
X213814976Y-133043571D01*
X215064976Y-132507857D02*
X214410214Y-132507857D01*
X214291166Y-132567380D01*
X214231642Y-132686428D01*
X214231642Y-132865000D01*
X214291166Y-132984047D01*
X214350690Y-133043571D01*
X215064976Y-131376904D02*
X214410214Y-131376904D01*
X214291166Y-131436428D01*
X214231642Y-131555476D01*
X214231642Y-131793571D01*
X214291166Y-131912619D01*
X215005452Y-131376904D02*
X215064976Y-131495952D01*
X215064976Y-131793571D01*
X215005452Y-131912619D01*
X214886404Y-131972142D01*
X214767357Y-131972142D01*
X214648309Y-131912619D01*
X214588785Y-131793571D01*
X214588785Y-131495952D01*
X214529261Y-131376904D01*
X215064976Y-130781666D02*
X214231642Y-130781666D01*
X214469738Y-130781666D02*
X214350690Y-130722142D01*
X214291166Y-130662619D01*
X214231642Y-130543571D01*
X214231642Y-130424523D01*
X215064976Y-129472142D02*
X213814976Y-129472142D01*
X215005452Y-129472142D02*
X215064976Y-129591190D01*
X215064976Y-129829285D01*
X215005452Y-129948333D01*
X214945928Y-130007857D01*
X214826880Y-130067380D01*
X214469738Y-130067380D01*
X214350690Y-130007857D01*
X214291166Y-129948333D01*
X214231642Y-129829285D01*
X214231642Y-129591190D01*
X214291166Y-129472142D01*
X214231642Y-128995952D02*
X215064976Y-128757857D01*
X214469738Y-128519761D01*
X215064976Y-128281666D01*
X214231642Y-128043571D01*
X215064976Y-127031666D02*
X214410214Y-127031666D01*
X214291166Y-127091190D01*
X214231642Y-127210238D01*
X214231642Y-127448333D01*
X214291166Y-127567380D01*
X215005452Y-127031666D02*
X215064976Y-127150714D01*
X215064976Y-127448333D01*
X215005452Y-127567380D01*
X214886404Y-127626904D01*
X214767357Y-127626904D01*
X214648309Y-127567380D01*
X214588785Y-127448333D01*
X214588785Y-127150714D01*
X214529261Y-127031666D01*
X215064976Y-126436428D02*
X214231642Y-126436428D01*
X214469738Y-126436428D02*
X214350690Y-126376904D01*
X214291166Y-126317380D01*
X214231642Y-126198333D01*
X214231642Y-126079285D01*
X215005452Y-125186428D02*
X215064976Y-125305476D01*
X215064976Y-125543571D01*
X215005452Y-125662619D01*
X214886404Y-125722142D01*
X214410214Y-125722142D01*
X214291166Y-125662619D01*
X214231642Y-125543571D01*
X214231642Y-125305476D01*
X214291166Y-125186428D01*
X214410214Y-125126904D01*
X214529261Y-125126904D01*
X214648309Y-125722142D01*
X213814976Y-123817380D02*
X215064976Y-123400714D01*
X213814976Y-122984047D01*
X215064976Y-121912619D02*
X215064976Y-122626904D01*
X215064976Y-122269761D02*
X213814976Y-122269761D01*
X213993547Y-122388809D01*
X214112595Y-122507857D01*
X214172119Y-122626904D01*
X214945928Y-121376904D02*
X215005452Y-121317380D01*
X215064976Y-121376904D01*
X215005452Y-121436428D01*
X214945928Y-121376904D01*
X215064976Y-121376904D01*
X213814976Y-120543571D02*
X213814976Y-120424523D01*
X213874500Y-120305476D01*
X213934023Y-120245952D01*
X214053071Y-120186428D01*
X214291166Y-120126904D01*
X214588785Y-120126904D01*
X214826880Y-120186428D01*
X214945928Y-120245952D01*
X215005452Y-120305476D01*
X215064976Y-120424523D01*
X215064976Y-120543571D01*
X215005452Y-120662619D01*
X214945928Y-120722142D01*
X214826880Y-120781666D01*
X214588785Y-120841190D01*
X214291166Y-120841190D01*
X214053071Y-120781666D01*
X213934023Y-120722142D01*
X213874500Y-120662619D01*
X213814976Y-120543571D01*
D11*
X219966000Y-168510000D02*
X220296000Y-168510000D01*
X219966000Y-161970000D02*
X219966000Y-168510000D01*
X220296000Y-161970000D02*
X219966000Y-161970000D01*
X222706000Y-168510000D02*
X222376000Y-168510000D01*
X222706000Y-161970000D02*
X222706000Y-168510000D01*
X222376000Y-161970000D02*
X222706000Y-161970000D01*
X207356000Y-118504000D02*
X207356000Y-115964000D01*
X207356000Y-115964000D02*
X204686000Y-115964000D01*
X204686000Y-118504000D02*
X204686000Y-156734000D01*
X204686000Y-113294000D02*
X204686000Y-115964000D01*
X220056000Y-115964000D02*
X222726000Y-115964000D01*
X220056000Y-115964000D02*
X220056000Y-154064000D01*
X220056000Y-154064000D02*
X222726000Y-154064000D01*
X207356000Y-118504000D02*
X204686000Y-118504000D01*
X207356000Y-118504000D02*
X207356000Y-154064000D01*
X207356000Y-154064000D02*
X204686000Y-154064000D01*
X204686000Y-156734000D02*
X222726000Y-156734000D01*
X222726000Y-156734000D02*
X222726000Y-113294000D01*
X222726000Y-113294000D02*
X204686000Y-113294000D01*
X183550000Y-128724000D02*
X182220000Y-128724000D01*
X183550000Y-127394000D02*
X183550000Y-128724000D01*
X183550000Y-126124000D02*
X180890000Y-126124000D01*
X180890000Y-126124000D02*
X180890000Y-118444000D01*
X183550000Y-126124000D02*
X183550000Y-118444000D01*
X183550000Y-118444000D02*
X180890000Y-118444000D01*
X244550000Y-149270000D02*
X244220000Y-149270000D01*
X244550000Y-155810000D02*
X244550000Y-149270000D01*
X244220000Y-155810000D02*
X244550000Y-155810000D01*
X241810000Y-149270000D02*
X242140000Y-149270000D01*
X241810000Y-155810000D02*
X241810000Y-149270000D01*
X242140000Y-155810000D02*
X241810000Y-155810000D01*
X238962000Y-149270000D02*
X238632000Y-149270000D01*
X238962000Y-155810000D02*
X238962000Y-149270000D01*
X238632000Y-155810000D02*
X238962000Y-155810000D01*
X236222000Y-149270000D02*
X236552000Y-149270000D01*
X236222000Y-155810000D02*
X236222000Y-149270000D01*
X236552000Y-155810000D02*
X236222000Y-155810000D01*
X233374000Y-149270000D02*
X233044000Y-149270000D01*
X233374000Y-155810000D02*
X233374000Y-149270000D01*
X233044000Y-155810000D02*
X233374000Y-155810000D01*
X230634000Y-149270000D02*
X230964000Y-149270000D01*
X230634000Y-155810000D02*
X230634000Y-149270000D01*
X230964000Y-155810000D02*
X230634000Y-155810000D01*
X227786000Y-149270000D02*
X227456000Y-149270000D01*
X227786000Y-155810000D02*
X227786000Y-149270000D01*
X227456000Y-155810000D02*
X227786000Y-155810000D01*
X225046000Y-149270000D02*
X225376000Y-149270000D01*
X225046000Y-155810000D02*
X225046000Y-149270000D01*
X225376000Y-155810000D02*
X225046000Y-155810000D01*
X204726000Y-168510000D02*
X205056000Y-168510000D01*
X204726000Y-161970000D02*
X204726000Y-168510000D01*
X205056000Y-161970000D02*
X204726000Y-161970000D01*
X207466000Y-168510000D02*
X207136000Y-168510000D01*
X207466000Y-161970000D02*
X207466000Y-168510000D01*
X207136000Y-161970000D02*
X207466000Y-161970000D01*
X209806000Y-168510000D02*
X210136000Y-168510000D01*
X209806000Y-161970000D02*
X209806000Y-168510000D01*
X210136000Y-161970000D02*
X209806000Y-161970000D01*
X212546000Y-168510000D02*
X212216000Y-168510000D01*
X212546000Y-161970000D02*
X212546000Y-168510000D01*
X212216000Y-161970000D02*
X212546000Y-161970000D01*
X214886000Y-168510000D02*
X215216000Y-168510000D01*
X214886000Y-161970000D02*
X214886000Y-168510000D01*
X215216000Y-161970000D02*
X214886000Y-161970000D01*
X217626000Y-168510000D02*
X217296000Y-168510000D01*
X217626000Y-161970000D02*
X217626000Y-168510000D01*
X217296000Y-161970000D02*
X217626000Y-161970000D01*
X192110000Y-137450000D02*
X192110000Y-140050000D01*
X177410000Y-137450000D02*
X192110000Y-137450000D01*
X192110000Y-146650000D02*
X190210000Y-146650000D01*
X192110000Y-143950000D02*
X192110000Y-146650000D01*
X177410000Y-146650000D02*
X177410000Y-137450000D01*
X186210000Y-146650000D02*
X177410000Y-146650000D01*
X191260000Y-137250000D02*
X192310000Y-137250000D01*
X192310000Y-138300000D02*
X192310000Y-137250000D01*
X183410000Y-165598000D02*
X182080000Y-165598000D01*
X183410000Y-164268000D02*
X183410000Y-165598000D01*
X183410000Y-162998000D02*
X180750000Y-162998000D01*
X180750000Y-162998000D02*
X180750000Y-155318000D01*
X183410000Y-162998000D02*
X183410000Y-155318000D01*
X183410000Y-155318000D02*
X180750000Y-155318000D01*
D10*
X201194000Y-169458000D02*
G75*
G03X201194000Y-169458000I-100000J0D01*
G01*
D12*
X184874000Y-150298000D02*
X200114000Y-150298000D01*
X184874000Y-170618000D02*
X184874000Y-150298000D01*
X200114000Y-150298000D02*
X200114000Y-170618000D01*
X200114000Y-170618000D02*
X184874000Y-170618000D01*
D10*
X201334000Y-132584000D02*
G75*
G03X201334000Y-132584000I-100000J0D01*
G01*
D12*
X185014000Y-113424000D02*
X200254000Y-113424000D01*
X185014000Y-133744000D02*
X185014000Y-113424000D01*
X200254000Y-113424000D02*
X200254000Y-133744000D01*
X200254000Y-133744000D02*
X185014000Y-133744000D01*
D11*
X233080000Y-160100000D02*
X233080000Y-161430000D01*
X231750000Y-160100000D02*
X233080000Y-160100000D01*
X230480000Y-160100000D02*
X230480000Y-162760000D01*
X230480000Y-162760000D02*
X225340000Y-162760000D01*
X230480000Y-160100000D02*
X225340000Y-160100000D01*
X225340000Y-160100000D02*
X225340000Y-162760000D01*
X233334000Y-167212000D02*
X233334000Y-168542000D01*
X232004000Y-167212000D02*
X233334000Y-167212000D01*
X230734000Y-167212000D02*
X230734000Y-169872000D01*
X230734000Y-169872000D02*
X225594000Y-169872000D01*
X230734000Y-167212000D02*
X225594000Y-167212000D01*
X225594000Y-167212000D02*
X225594000Y-169872000D01*
X244256000Y-167212000D02*
X244256000Y-168542000D01*
X242926000Y-167212000D02*
X244256000Y-167212000D01*
X241656000Y-167212000D02*
X241656000Y-169872000D01*
X241656000Y-169872000D02*
X236516000Y-169872000D01*
X241656000Y-167212000D02*
X236516000Y-167212000D01*
X236516000Y-167212000D02*
X236516000Y-169872000D01*
X244256000Y-160100000D02*
X244256000Y-161430000D01*
X242926000Y-160100000D02*
X244256000Y-160100000D01*
X241656000Y-160100000D02*
X241656000Y-162760000D01*
X241656000Y-162760000D02*
X236516000Y-162760000D01*
X241656000Y-160100000D02*
X236516000Y-160100000D01*
X236516000Y-160100000D02*
X236516000Y-162760000D01*
X244764000Y-137518000D02*
X244764000Y-136268000D01*
X224324000Y-137518000D02*
X244764000Y-137518000D01*
X224324000Y-133018000D02*
X224324000Y-137518000D01*
X244764000Y-133018000D02*
X224324000Y-133018000D01*
X244764000Y-134268000D02*
X244764000Y-133018000D01*
X244764000Y-136268000D02*
G75*
G02X244764000Y-134268000I0J1000000D01*
G01*
X242100000Y-142852000D02*
X241944000Y-142852000D01*
X244416000Y-142852000D02*
X244260000Y-142852000D01*
X242100163Y-145453130D02*
G75*
G02X242100000Y-143371039I1079837J1041130D01*
G01*
X244259837Y-145453130D02*
G75*
G03X244260000Y-143371039I-1079837J1041130D01*
G01*
X242101392Y-146084335D02*
G75*
G02X241944484Y-142852000I1078608J1672335D01*
G01*
X244258608Y-146084335D02*
G75*
G03X244415516Y-142852000I-1078608J1672335D01*
G01*
X236512000Y-142852000D02*
X236356000Y-142852000D01*
X238828000Y-142852000D02*
X238672000Y-142852000D01*
X236512163Y-145453130D02*
G75*
G02X236512000Y-143371039I1079837J1041130D01*
G01*
X238671837Y-145453130D02*
G75*
G03X238672000Y-143371039I-1079837J1041130D01*
G01*
X236513392Y-146084335D02*
G75*
G02X236356484Y-142852000I1078608J1672335D01*
G01*
X238670608Y-146084335D02*
G75*
G03X238827516Y-142852000I-1078608J1672335D01*
G01*
X230924000Y-142852000D02*
X230768000Y-142852000D01*
X233240000Y-142852000D02*
X233084000Y-142852000D01*
X230924163Y-145453130D02*
G75*
G02X230924000Y-143371039I1079837J1041130D01*
G01*
X233083837Y-145453130D02*
G75*
G03X233084000Y-143371039I-1079837J1041130D01*
G01*
X230925392Y-146084335D02*
G75*
G02X230768484Y-142852000I1078608J1672335D01*
G01*
X233082608Y-146084335D02*
G75*
G03X233239516Y-142852000I-1078608J1672335D01*
G01*
X225336000Y-142852000D02*
X225180000Y-142852000D01*
X227652000Y-142852000D02*
X227496000Y-142852000D01*
X225336163Y-145453130D02*
G75*
G02X225336000Y-143371039I1079837J1041130D01*
G01*
X227495837Y-145453130D02*
G75*
G03X227496000Y-143371039I-1079837J1041130D01*
G01*
X225337392Y-146084335D02*
G75*
G02X225180484Y-142852000I1078608J1672335D01*
G01*
X227494608Y-146084335D02*
G75*
G03X227651516Y-142852000I-1078608J1672335D01*
G01*
X233136000Y-128438000D02*
X233136000Y-125838000D01*
X247836000Y-128438000D02*
X233136000Y-128438000D01*
X233136000Y-119238000D02*
X235036000Y-119238000D01*
X233136000Y-121938000D02*
X233136000Y-119238000D01*
X247836000Y-119238000D02*
X247836000Y-128438000D01*
X239036000Y-119238000D02*
X247836000Y-119238000D01*
X233986000Y-128638000D02*
X232936000Y-128638000D01*
X232936000Y-127588000D02*
X232936000Y-128638000D01*
D13*
X237890476Y-114372380D02*
X237890476Y-113372380D01*
X238223809Y-114086666D01*
X238557142Y-113372380D01*
X238557142Y-114372380D01*
X239033333Y-114372380D02*
X239033333Y-113372380D01*
X239604761Y-114372380D02*
X239176190Y-113800952D01*
X239604761Y-113372380D02*
X239033333Y-113943809D01*
X240557142Y-114372380D02*
X239985714Y-114372380D01*
X240271428Y-114372380D02*
X240271428Y-113372380D01*
X240176190Y-113515238D01*
X240080952Y-113610476D01*
X239985714Y-113658095D01*
X221169333Y-172042380D02*
X220836000Y-171566190D01*
X220597904Y-172042380D02*
X220597904Y-171042380D01*
X220978857Y-171042380D01*
X221074095Y-171090000D01*
X221121714Y-171137619D01*
X221169333Y-171232857D01*
X221169333Y-171375714D01*
X221121714Y-171470952D01*
X221074095Y-171518571D01*
X220978857Y-171566190D01*
X220597904Y-171566190D01*
X222026476Y-171375714D02*
X222026476Y-172042380D01*
X221788380Y-170994761D02*
X221550285Y-171709047D01*
X222169333Y-171709047D01*
X208372666Y-112320666D02*
X208848857Y-112320666D01*
X208277428Y-112606380D02*
X208610761Y-111606380D01*
X208944095Y-112606380D01*
X209277428Y-112606380D02*
X209277428Y-111939714D01*
X209277428Y-112130190D02*
X209325047Y-112034952D01*
X209372666Y-111987333D01*
X209467904Y-111939714D01*
X209563142Y-111939714D01*
X210325047Y-112606380D02*
X210325047Y-111606380D01*
X210325047Y-112558761D02*
X210229809Y-112606380D01*
X210039333Y-112606380D01*
X209944095Y-112558761D01*
X209896476Y-112511142D01*
X209848857Y-112415904D01*
X209848857Y-112130190D01*
X209896476Y-112034952D01*
X209944095Y-111987333D01*
X210039333Y-111939714D01*
X210229809Y-111939714D01*
X210325047Y-111987333D01*
X211229809Y-111939714D02*
X211229809Y-112606380D01*
X210801238Y-111939714D02*
X210801238Y-112463523D01*
X210848857Y-112558761D01*
X210944095Y-112606380D01*
X211086952Y-112606380D01*
X211182190Y-112558761D01*
X211229809Y-112511142D01*
X211706000Y-112606380D02*
X211706000Y-111939714D01*
X211706000Y-111606380D02*
X211658380Y-111654000D01*
X211706000Y-111701619D01*
X211753619Y-111654000D01*
X211706000Y-111606380D01*
X211706000Y-111701619D01*
X212182190Y-111939714D02*
X212182190Y-112606380D01*
X212182190Y-112034952D02*
X212229809Y-111987333D01*
X212325047Y-111939714D01*
X212467904Y-111939714D01*
X212563142Y-111987333D01*
X212610761Y-112082571D01*
X212610761Y-112606380D01*
X213229809Y-112606380D02*
X213134571Y-112558761D01*
X213086952Y-112511142D01*
X213039333Y-112415904D01*
X213039333Y-112130190D01*
X213086952Y-112034952D01*
X213134571Y-111987333D01*
X213229809Y-111939714D01*
X213372666Y-111939714D01*
X213467904Y-111987333D01*
X213515523Y-112034952D01*
X213563142Y-112130190D01*
X213563142Y-112415904D01*
X213515523Y-112511142D01*
X213467904Y-112558761D01*
X213372666Y-112606380D01*
X213229809Y-112606380D01*
X213753619Y-112701619D02*
X214515523Y-112701619D01*
X214753619Y-112606380D02*
X214753619Y-111606380D01*
X215325047Y-112606380D01*
X215325047Y-111606380D01*
X216229809Y-112606380D02*
X216229809Y-112082571D01*
X216182190Y-111987333D01*
X216086952Y-111939714D01*
X215896476Y-111939714D01*
X215801238Y-111987333D01*
X216229809Y-112558761D02*
X216134571Y-112606380D01*
X215896476Y-112606380D01*
X215801238Y-112558761D01*
X215753619Y-112463523D01*
X215753619Y-112368285D01*
X215801238Y-112273047D01*
X215896476Y-112225428D01*
X216134571Y-112225428D01*
X216229809Y-112177809D01*
X216706000Y-111939714D02*
X216706000Y-112606380D01*
X216706000Y-112034952D02*
X216753619Y-111987333D01*
X216848857Y-111939714D01*
X216991714Y-111939714D01*
X217086952Y-111987333D01*
X217134571Y-112082571D01*
X217134571Y-112606380D01*
X217753619Y-112606380D02*
X217658380Y-112558761D01*
X217610761Y-112511142D01*
X217563142Y-112415904D01*
X217563142Y-112130190D01*
X217610761Y-112034952D01*
X217658380Y-111987333D01*
X217753619Y-111939714D01*
X217896476Y-111939714D01*
X217991714Y-111987333D01*
X218039333Y-112034952D01*
X218086952Y-112130190D01*
X218086952Y-112415904D01*
X218039333Y-112511142D01*
X217991714Y-112558761D01*
X217896476Y-112606380D01*
X217753619Y-112606380D01*
X219039333Y-112606380D02*
X218467904Y-112606380D01*
X218753619Y-112606380D02*
X218753619Y-111606380D01*
X218658380Y-111749238D01*
X218563142Y-111844476D01*
X218467904Y-111892095D01*
X179878380Y-127194952D02*
X179211714Y-127194952D01*
X179306952Y-127194952D02*
X179259333Y-127147333D01*
X179211714Y-127052095D01*
X179211714Y-126909238D01*
X179259333Y-126814000D01*
X179354571Y-126766380D01*
X179878380Y-126766380D01*
X179354571Y-126766380D02*
X179259333Y-126718761D01*
X179211714Y-126623523D01*
X179211714Y-126480666D01*
X179259333Y-126385428D01*
X179354571Y-126337809D01*
X179878380Y-126337809D01*
X179878380Y-125718761D02*
X179830761Y-125814000D01*
X179783142Y-125861619D01*
X179687904Y-125909238D01*
X179402190Y-125909238D01*
X179306952Y-125861619D01*
X179259333Y-125814000D01*
X179211714Y-125718761D01*
X179211714Y-125575904D01*
X179259333Y-125480666D01*
X179306952Y-125433047D01*
X179402190Y-125385428D01*
X179687904Y-125385428D01*
X179783142Y-125433047D01*
X179830761Y-125480666D01*
X179878380Y-125575904D01*
X179878380Y-125718761D01*
X179211714Y-125099714D02*
X179211714Y-124718761D01*
X178878380Y-124956857D02*
X179735523Y-124956857D01*
X179830761Y-124909238D01*
X179878380Y-124814000D01*
X179878380Y-124718761D01*
X179878380Y-124242571D02*
X179830761Y-124337809D01*
X179783142Y-124385428D01*
X179687904Y-124433047D01*
X179402190Y-124433047D01*
X179306952Y-124385428D01*
X179259333Y-124337809D01*
X179211714Y-124242571D01*
X179211714Y-124099714D01*
X179259333Y-124004476D01*
X179306952Y-123956857D01*
X179402190Y-123909238D01*
X179687904Y-123909238D01*
X179783142Y-123956857D01*
X179830761Y-124004476D01*
X179878380Y-124099714D01*
X179878380Y-124242571D01*
X179878380Y-123480666D02*
X179211714Y-123480666D01*
X179402190Y-123480666D02*
X179306952Y-123433047D01*
X179259333Y-123385428D01*
X179211714Y-123290190D01*
X179211714Y-123194952D01*
X179878380Y-122337809D02*
X179878380Y-122909238D01*
X179878380Y-122623523D02*
X178878380Y-122623523D01*
X179021238Y-122718761D01*
X179116476Y-122814000D01*
X179164095Y-122909238D01*
X179973619Y-122147333D02*
X179973619Y-121385428D01*
X179211714Y-121147333D02*
X180211714Y-121147333D01*
X179259333Y-121147333D02*
X179211714Y-121052095D01*
X179211714Y-120861619D01*
X179259333Y-120766380D01*
X179306952Y-120718761D01*
X179402190Y-120671142D01*
X179687904Y-120671142D01*
X179783142Y-120718761D01*
X179830761Y-120766380D01*
X179878380Y-120861619D01*
X179878380Y-121052095D01*
X179830761Y-121147333D01*
X179878380Y-120099714D02*
X179830761Y-120194952D01*
X179735523Y-120242571D01*
X178878380Y-120242571D01*
X179211714Y-119290190D02*
X179878380Y-119290190D01*
X179211714Y-119718761D02*
X179735523Y-119718761D01*
X179830761Y-119671142D01*
X179878380Y-119575904D01*
X179878380Y-119433047D01*
X179830761Y-119337809D01*
X179783142Y-119290190D01*
X179211714Y-118385428D02*
X180021238Y-118385428D01*
X180116476Y-118433047D01*
X180164095Y-118480666D01*
X180211714Y-118575904D01*
X180211714Y-118718761D01*
X180164095Y-118814000D01*
X179830761Y-118385428D02*
X179878380Y-118480666D01*
X179878380Y-118671142D01*
X179830761Y-118766380D01*
X179783142Y-118814000D01*
X179687904Y-118861619D01*
X179402190Y-118861619D01*
X179306952Y-118814000D01*
X179259333Y-118766380D01*
X179211714Y-118671142D01*
X179211714Y-118480666D01*
X179259333Y-118385428D01*
X179878380Y-117385428D02*
X179878380Y-117956857D01*
X179878380Y-117671142D02*
X178878380Y-117671142D01*
X179021238Y-117766380D01*
X179116476Y-117861619D01*
X179164095Y-117956857D01*
X183760476Y-111962380D02*
X183760476Y-110962380D01*
X184093809Y-111676666D01*
X184427142Y-110962380D01*
X184427142Y-111962380D01*
X184903333Y-111962380D02*
X184903333Y-110962380D01*
X185474761Y-111962380D02*
X185046190Y-111390952D01*
X185474761Y-110962380D02*
X184903333Y-111533809D01*
X186331904Y-111295714D02*
X186331904Y-111962380D01*
X186093809Y-110914761D02*
X185855714Y-111629047D01*
X186474761Y-111629047D01*
X184480476Y-172612380D02*
X184480476Y-171612380D01*
X184813809Y-172326666D01*
X185147142Y-171612380D01*
X185147142Y-172612380D01*
X185623333Y-172612380D02*
X185623333Y-171612380D01*
X186194761Y-172612380D02*
X185766190Y-172040952D01*
X186194761Y-171612380D02*
X185623333Y-172183809D01*
X186528095Y-171612380D02*
X187147142Y-171612380D01*
X186813809Y-171993333D01*
X186956666Y-171993333D01*
X187051904Y-172040952D01*
X187099523Y-172088571D01*
X187147142Y-172183809D01*
X187147142Y-172421904D01*
X187099523Y-172517142D01*
X187051904Y-172564761D01*
X186956666Y-172612380D01*
X186670952Y-172612380D01*
X186575714Y-172564761D01*
X186528095Y-172517142D01*
X241262380Y-152706666D02*
X240786190Y-153040000D01*
X241262380Y-153278095D02*
X240262380Y-153278095D01*
X240262380Y-152897142D01*
X240310000Y-152801904D01*
X240357619Y-152754285D01*
X240452857Y-152706666D01*
X240595714Y-152706666D01*
X240690952Y-152754285D01*
X240738571Y-152801904D01*
X240786190Y-152897142D01*
X240786190Y-153278095D01*
X240690952Y-152135238D02*
X240643333Y-152230476D01*
X240595714Y-152278095D01*
X240500476Y-152325714D01*
X240452857Y-152325714D01*
X240357619Y-152278095D01*
X240310000Y-152230476D01*
X240262380Y-152135238D01*
X240262380Y-151944761D01*
X240310000Y-151849523D01*
X240357619Y-151801904D01*
X240452857Y-151754285D01*
X240500476Y-151754285D01*
X240595714Y-151801904D01*
X240643333Y-151849523D01*
X240690952Y-151944761D01*
X240690952Y-152135238D01*
X240738571Y-152230476D01*
X240786190Y-152278095D01*
X240881428Y-152325714D01*
X241071904Y-152325714D01*
X241167142Y-152278095D01*
X241214761Y-152230476D01*
X241262380Y-152135238D01*
X241262380Y-151944761D01*
X241214761Y-151849523D01*
X241167142Y-151801904D01*
X241071904Y-151754285D01*
X240881428Y-151754285D01*
X240786190Y-151801904D01*
X240738571Y-151849523D01*
X240690952Y-151944761D01*
X235674380Y-152706666D02*
X235198190Y-153040000D01*
X235674380Y-153278095D02*
X234674380Y-153278095D01*
X234674380Y-152897142D01*
X234722000Y-152801904D01*
X234769619Y-152754285D01*
X234864857Y-152706666D01*
X235007714Y-152706666D01*
X235102952Y-152754285D01*
X235150571Y-152801904D01*
X235198190Y-152897142D01*
X235198190Y-153278095D01*
X234674380Y-152373333D02*
X234674380Y-151706666D01*
X235674380Y-152135238D01*
X230086380Y-152706666D02*
X229610190Y-153040000D01*
X230086380Y-153278095D02*
X229086380Y-153278095D01*
X229086380Y-152897142D01*
X229134000Y-152801904D01*
X229181619Y-152754285D01*
X229276857Y-152706666D01*
X229419714Y-152706666D01*
X229514952Y-152754285D01*
X229562571Y-152801904D01*
X229610190Y-152897142D01*
X229610190Y-153278095D01*
X229086380Y-151849523D02*
X229086380Y-152040000D01*
X229134000Y-152135238D01*
X229181619Y-152182857D01*
X229324476Y-152278095D01*
X229514952Y-152325714D01*
X229895904Y-152325714D01*
X229991142Y-152278095D01*
X230038761Y-152230476D01*
X230086380Y-152135238D01*
X230086380Y-151944761D01*
X230038761Y-151849523D01*
X229991142Y-151801904D01*
X229895904Y-151754285D01*
X229657809Y-151754285D01*
X229562571Y-151801904D01*
X229514952Y-151849523D01*
X229467333Y-151944761D01*
X229467333Y-152135238D01*
X229514952Y-152230476D01*
X229562571Y-152278095D01*
X229657809Y-152325714D01*
X224498380Y-152706666D02*
X224022190Y-153040000D01*
X224498380Y-153278095D02*
X223498380Y-153278095D01*
X223498380Y-152897142D01*
X223546000Y-152801904D01*
X223593619Y-152754285D01*
X223688857Y-152706666D01*
X223831714Y-152706666D01*
X223926952Y-152754285D01*
X223974571Y-152801904D01*
X224022190Y-152897142D01*
X224022190Y-153278095D01*
X223498380Y-151801904D02*
X223498380Y-152278095D01*
X223974571Y-152325714D01*
X223926952Y-152278095D01*
X223879333Y-152182857D01*
X223879333Y-151944761D01*
X223926952Y-151849523D01*
X223974571Y-151801904D01*
X224069809Y-151754285D01*
X224307904Y-151754285D01*
X224403142Y-151801904D01*
X224450761Y-151849523D01*
X224498380Y-151944761D01*
X224498380Y-152182857D01*
X224450761Y-152278095D01*
X224403142Y-152325714D01*
X205929333Y-172042380D02*
X205596000Y-171566190D01*
X205357904Y-172042380D02*
X205357904Y-171042380D01*
X205738857Y-171042380D01*
X205834095Y-171090000D01*
X205881714Y-171137619D01*
X205929333Y-171232857D01*
X205929333Y-171375714D01*
X205881714Y-171470952D01*
X205834095Y-171518571D01*
X205738857Y-171566190D01*
X205357904Y-171566190D01*
X206262666Y-171042380D02*
X206881714Y-171042380D01*
X206548380Y-171423333D01*
X206691238Y-171423333D01*
X206786476Y-171470952D01*
X206834095Y-171518571D01*
X206881714Y-171613809D01*
X206881714Y-171851904D01*
X206834095Y-171947142D01*
X206786476Y-171994761D01*
X206691238Y-172042380D01*
X206405523Y-172042380D01*
X206310285Y-171994761D01*
X206262666Y-171947142D01*
X210924667Y-172042380D02*
X210591334Y-171566190D01*
X210353238Y-172042380D02*
X210353238Y-171042380D01*
X210734191Y-171042380D01*
X210829429Y-171090000D01*
X210877048Y-171137619D01*
X210924667Y-171232857D01*
X210924667Y-171375714D01*
X210877048Y-171470952D01*
X210829429Y-171518571D01*
X210734191Y-171566190D01*
X210353238Y-171566190D01*
X211305619Y-171137619D02*
X211353238Y-171090000D01*
X211448476Y-171042380D01*
X211686572Y-171042380D01*
X211781810Y-171090000D01*
X211829429Y-171137619D01*
X211877048Y-171232857D01*
X211877048Y-171328095D01*
X211829429Y-171470952D01*
X211258000Y-172042380D01*
X211877048Y-172042380D01*
X216343333Y-172042380D02*
X216010000Y-171566190D01*
X215771904Y-172042380D02*
X215771904Y-171042380D01*
X216152857Y-171042380D01*
X216248095Y-171090000D01*
X216295714Y-171137619D01*
X216343333Y-171232857D01*
X216343333Y-171375714D01*
X216295714Y-171470952D01*
X216248095Y-171518571D01*
X216152857Y-171566190D01*
X215771904Y-171566190D01*
X217295714Y-172042380D02*
X216724285Y-172042380D01*
X217010000Y-172042380D02*
X217010000Y-171042380D01*
X216914761Y-171185238D01*
X216819523Y-171280476D01*
X216724285Y-171328095D01*
X178002857Y-136660380D02*
X178002857Y-135660380D01*
X178336190Y-136374666D01*
X178669523Y-135660380D01*
X178669523Y-136660380D01*
X179288571Y-136660380D02*
X179193333Y-136612761D01*
X179145714Y-136565142D01*
X179098095Y-136469904D01*
X179098095Y-136184190D01*
X179145714Y-136088952D01*
X179193333Y-136041333D01*
X179288571Y-135993714D01*
X179431428Y-135993714D01*
X179526666Y-136041333D01*
X179574285Y-136088952D01*
X179621904Y-136184190D01*
X179621904Y-136469904D01*
X179574285Y-136565142D01*
X179526666Y-136612761D01*
X179431428Y-136660380D01*
X179288571Y-136660380D01*
X179907619Y-135993714D02*
X180288571Y-135993714D01*
X180050476Y-135660380D02*
X180050476Y-136517523D01*
X180098095Y-136612761D01*
X180193333Y-136660380D01*
X180288571Y-136660380D01*
X180764761Y-136660380D02*
X180669523Y-136612761D01*
X180621904Y-136565142D01*
X180574285Y-136469904D01*
X180574285Y-136184190D01*
X180621904Y-136088952D01*
X180669523Y-136041333D01*
X180764761Y-135993714D01*
X180907619Y-135993714D01*
X181002857Y-136041333D01*
X181050476Y-136088952D01*
X181098095Y-136184190D01*
X181098095Y-136469904D01*
X181050476Y-136565142D01*
X181002857Y-136612761D01*
X180907619Y-136660380D01*
X180764761Y-136660380D01*
X181526666Y-136660380D02*
X181526666Y-135993714D01*
X181526666Y-136184190D02*
X181574285Y-136088952D01*
X181621904Y-136041333D01*
X181717142Y-135993714D01*
X181812380Y-135993714D01*
X181907619Y-136755619D02*
X182669523Y-136755619D01*
X182907619Y-135993714D02*
X182907619Y-136993714D01*
X182907619Y-136041333D02*
X183002857Y-135993714D01*
X183193333Y-135993714D01*
X183288571Y-136041333D01*
X183336190Y-136088952D01*
X183383809Y-136184190D01*
X183383809Y-136469904D01*
X183336190Y-136565142D01*
X183288571Y-136612761D01*
X183193333Y-136660380D01*
X183002857Y-136660380D01*
X182907619Y-136612761D01*
X183955238Y-136660380D02*
X183860000Y-136612761D01*
X183812380Y-136565142D01*
X183764761Y-136469904D01*
X183764761Y-136184190D01*
X183812380Y-136088952D01*
X183860000Y-136041333D01*
X183955238Y-135993714D01*
X184098095Y-135993714D01*
X184193333Y-136041333D01*
X184240952Y-136088952D01*
X184288571Y-136184190D01*
X184288571Y-136469904D01*
X184240952Y-136565142D01*
X184193333Y-136612761D01*
X184098095Y-136660380D01*
X183955238Y-136660380D01*
X184621904Y-135993714D02*
X184812380Y-136660380D01*
X185002857Y-136184190D01*
X185193333Y-136660380D01*
X185383809Y-135993714D01*
X186145714Y-136612761D02*
X186050476Y-136660380D01*
X185860000Y-136660380D01*
X185764761Y-136612761D01*
X185717142Y-136517523D01*
X185717142Y-136136571D01*
X185764761Y-136041333D01*
X185860000Y-135993714D01*
X186050476Y-135993714D01*
X186145714Y-136041333D01*
X186193333Y-136136571D01*
X186193333Y-136231809D01*
X185717142Y-136327047D01*
X186621904Y-136660380D02*
X186621904Y-135993714D01*
X186621904Y-136184190D02*
X186669523Y-136088952D01*
X186717142Y-136041333D01*
X186812380Y-135993714D01*
X186907619Y-135993714D01*
X187002857Y-136755619D02*
X187764761Y-136755619D01*
X188002857Y-135993714D02*
X188002857Y-136993714D01*
X188002857Y-136041333D02*
X188098095Y-135993714D01*
X188288571Y-135993714D01*
X188383809Y-136041333D01*
X188431428Y-136088952D01*
X188479047Y-136184190D01*
X188479047Y-136469904D01*
X188431428Y-136565142D01*
X188383809Y-136612761D01*
X188288571Y-136660380D01*
X188098095Y-136660380D01*
X188002857Y-136612761D01*
X189050476Y-136660380D02*
X188955238Y-136612761D01*
X188907619Y-136517523D01*
X188907619Y-135660380D01*
X189860000Y-135993714D02*
X189860000Y-136660380D01*
X189431428Y-135993714D02*
X189431428Y-136517523D01*
X189479047Y-136612761D01*
X189574285Y-136660380D01*
X189717142Y-136660380D01*
X189812380Y-136612761D01*
X189860000Y-136565142D01*
X190764761Y-135993714D02*
X190764761Y-136803238D01*
X190717142Y-136898476D01*
X190669523Y-136946095D01*
X190574285Y-136993714D01*
X190431428Y-136993714D01*
X190336190Y-136946095D01*
X190764761Y-136612761D02*
X190669523Y-136660380D01*
X190479047Y-136660380D01*
X190383809Y-136612761D01*
X190336190Y-136565142D01*
X190288571Y-136469904D01*
X190288571Y-136184190D01*
X190336190Y-136088952D01*
X190383809Y-136041333D01*
X190479047Y-135993714D01*
X190669523Y-135993714D01*
X190764761Y-136041333D01*
X191764761Y-136660380D02*
X191193333Y-136660380D01*
X191479047Y-136660380D02*
X191479047Y-135660380D01*
X191383809Y-135803238D01*
X191288571Y-135898476D01*
X191193333Y-135946095D01*
X179738380Y-164068952D02*
X179071714Y-164068952D01*
X179166952Y-164068952D02*
X179119333Y-164021333D01*
X179071714Y-163926095D01*
X179071714Y-163783238D01*
X179119333Y-163688000D01*
X179214571Y-163640380D01*
X179738380Y-163640380D01*
X179214571Y-163640380D02*
X179119333Y-163592761D01*
X179071714Y-163497523D01*
X179071714Y-163354666D01*
X179119333Y-163259428D01*
X179214571Y-163211809D01*
X179738380Y-163211809D01*
X179738380Y-162592761D02*
X179690761Y-162688000D01*
X179643142Y-162735619D01*
X179547904Y-162783238D01*
X179262190Y-162783238D01*
X179166952Y-162735619D01*
X179119333Y-162688000D01*
X179071714Y-162592761D01*
X179071714Y-162449904D01*
X179119333Y-162354666D01*
X179166952Y-162307047D01*
X179262190Y-162259428D01*
X179547904Y-162259428D01*
X179643142Y-162307047D01*
X179690761Y-162354666D01*
X179738380Y-162449904D01*
X179738380Y-162592761D01*
X179071714Y-161973714D02*
X179071714Y-161592761D01*
X178738380Y-161830857D02*
X179595523Y-161830857D01*
X179690761Y-161783238D01*
X179738380Y-161688000D01*
X179738380Y-161592761D01*
X179738380Y-161116571D02*
X179690761Y-161211809D01*
X179643142Y-161259428D01*
X179547904Y-161307047D01*
X179262190Y-161307047D01*
X179166952Y-161259428D01*
X179119333Y-161211809D01*
X179071714Y-161116571D01*
X179071714Y-160973714D01*
X179119333Y-160878476D01*
X179166952Y-160830857D01*
X179262190Y-160783238D01*
X179547904Y-160783238D01*
X179643142Y-160830857D01*
X179690761Y-160878476D01*
X179738380Y-160973714D01*
X179738380Y-161116571D01*
X179738380Y-160354666D02*
X179071714Y-160354666D01*
X179262190Y-160354666D02*
X179166952Y-160307047D01*
X179119333Y-160259428D01*
X179071714Y-160164190D01*
X179071714Y-160068952D01*
X178833619Y-159783238D02*
X178786000Y-159735619D01*
X178738380Y-159640380D01*
X178738380Y-159402285D01*
X178786000Y-159307047D01*
X178833619Y-159259428D01*
X178928857Y-159211809D01*
X179024095Y-159211809D01*
X179166952Y-159259428D01*
X179738380Y-159830857D01*
X179738380Y-159211809D01*
X179833619Y-159021333D02*
X179833619Y-158259428D01*
X179071714Y-158021333D02*
X180071714Y-158021333D01*
X179119333Y-158021333D02*
X179071714Y-157926095D01*
X179071714Y-157735619D01*
X179119333Y-157640380D01*
X179166952Y-157592761D01*
X179262190Y-157545142D01*
X179547904Y-157545142D01*
X179643142Y-157592761D01*
X179690761Y-157640380D01*
X179738380Y-157735619D01*
X179738380Y-157926095D01*
X179690761Y-158021333D01*
X179738380Y-156973714D02*
X179690761Y-157068952D01*
X179595523Y-157116571D01*
X178738380Y-157116571D01*
X179071714Y-156164190D02*
X179738380Y-156164190D01*
X179071714Y-156592761D02*
X179595523Y-156592761D01*
X179690761Y-156545142D01*
X179738380Y-156449904D01*
X179738380Y-156307047D01*
X179690761Y-156211809D01*
X179643142Y-156164190D01*
X179071714Y-155259428D02*
X179881238Y-155259428D01*
X179976476Y-155307047D01*
X180024095Y-155354666D01*
X180071714Y-155449904D01*
X180071714Y-155592761D01*
X180024095Y-155688000D01*
X179690761Y-155259428D02*
X179738380Y-155354666D01*
X179738380Y-155545142D01*
X179690761Y-155640380D01*
X179643142Y-155688000D01*
X179547904Y-155735619D01*
X179262190Y-155735619D01*
X179166952Y-155688000D01*
X179119333Y-155640380D01*
X179071714Y-155545142D01*
X179071714Y-155354666D01*
X179119333Y-155259428D01*
X179738380Y-154259428D02*
X179738380Y-154830857D01*
X179738380Y-154545142D02*
X178738380Y-154545142D01*
X178881238Y-154640380D01*
X178976476Y-154735619D01*
X179024095Y-154830857D01*
D14*
X195100476Y-149442380D02*
X195100476Y-148442380D01*
X195433809Y-149156666D01*
X195767142Y-148442380D01*
X195767142Y-149442380D01*
X196386190Y-149442380D02*
X196290952Y-149394761D01*
X196243333Y-149347142D01*
X196195714Y-149251904D01*
X196195714Y-148966190D01*
X196243333Y-148870952D01*
X196290952Y-148823333D01*
X196386190Y-148775714D01*
X196529047Y-148775714D01*
X196624285Y-148823333D01*
X196671904Y-148870952D01*
X196719523Y-148966190D01*
X196719523Y-149251904D01*
X196671904Y-149347142D01*
X196624285Y-149394761D01*
X196529047Y-149442380D01*
X196386190Y-149442380D01*
X197005238Y-148775714D02*
X197386190Y-148775714D01*
X197148095Y-148442380D02*
X197148095Y-149299523D01*
X197195714Y-149394761D01*
X197290952Y-149442380D01*
X197386190Y-149442380D01*
X197862380Y-149442380D02*
X197767142Y-149394761D01*
X197719523Y-149347142D01*
X197671904Y-149251904D01*
X197671904Y-148966190D01*
X197719523Y-148870952D01*
X197767142Y-148823333D01*
X197862380Y-148775714D01*
X198005238Y-148775714D01*
X198100476Y-148823333D01*
X198148095Y-148870952D01*
X198195714Y-148966190D01*
X198195714Y-149251904D01*
X198148095Y-149347142D01*
X198100476Y-149394761D01*
X198005238Y-149442380D01*
X197862380Y-149442380D01*
X198624285Y-149442380D02*
X198624285Y-148775714D01*
X198624285Y-148966190D02*
X198671904Y-148870952D01*
X198719523Y-148823333D01*
X198814761Y-148775714D01*
X198910000Y-148775714D01*
X199195714Y-148537619D02*
X199243333Y-148490000D01*
X199338571Y-148442380D01*
X199576666Y-148442380D01*
X199671904Y-148490000D01*
X199719523Y-148537619D01*
X199767142Y-148632857D01*
X199767142Y-148728095D01*
X199719523Y-148870952D01*
X199148095Y-149442380D01*
X199767142Y-149442380D01*
X194769476Y-136101380D02*
X194769476Y-135101380D01*
X195102809Y-135815666D01*
X195436142Y-135101380D01*
X195436142Y-136101380D01*
X196055190Y-136101380D02*
X195959952Y-136053761D01*
X195912333Y-136006142D01*
X195864714Y-135910904D01*
X195864714Y-135625190D01*
X195912333Y-135529952D01*
X195959952Y-135482333D01*
X196055190Y-135434714D01*
X196198047Y-135434714D01*
X196293285Y-135482333D01*
X196340904Y-135529952D01*
X196388523Y-135625190D01*
X196388523Y-135910904D01*
X196340904Y-136006142D01*
X196293285Y-136053761D01*
X196198047Y-136101380D01*
X196055190Y-136101380D01*
X196674238Y-135434714D02*
X197055190Y-135434714D01*
X196817095Y-135101380D02*
X196817095Y-135958523D01*
X196864714Y-136053761D01*
X196959952Y-136101380D01*
X197055190Y-136101380D01*
X197531380Y-136101380D02*
X197436142Y-136053761D01*
X197388523Y-136006142D01*
X197340904Y-135910904D01*
X197340904Y-135625190D01*
X197388523Y-135529952D01*
X197436142Y-135482333D01*
X197531380Y-135434714D01*
X197674238Y-135434714D01*
X197769476Y-135482333D01*
X197817095Y-135529952D01*
X197864714Y-135625190D01*
X197864714Y-135910904D01*
X197817095Y-136006142D01*
X197769476Y-136053761D01*
X197674238Y-136101380D01*
X197531380Y-136101380D01*
X198293285Y-136101380D02*
X198293285Y-135434714D01*
X198293285Y-135625190D02*
X198340904Y-135529952D01*
X198388523Y-135482333D01*
X198483761Y-135434714D01*
X198579000Y-135434714D01*
X199436142Y-136101380D02*
X198864714Y-136101380D01*
X199150428Y-136101380D02*
X199150428Y-135101380D01*
X199055190Y-135244238D01*
X198959952Y-135339476D01*
X198864714Y-135387095D01*
D13*
X225328666Y-158564571D02*
X224995333Y-158564571D01*
X224995333Y-159088380D02*
X224995333Y-158088380D01*
X225471523Y-158088380D01*
X226423904Y-158993142D02*
X226376285Y-159040761D01*
X226233428Y-159088380D01*
X226138190Y-159088380D01*
X225995333Y-159040761D01*
X225900095Y-158945523D01*
X225852476Y-158850285D01*
X225804857Y-158659809D01*
X225804857Y-158516952D01*
X225852476Y-158326476D01*
X225900095Y-158231238D01*
X225995333Y-158136000D01*
X226138190Y-158088380D01*
X226233428Y-158088380D01*
X226376285Y-158136000D01*
X226423904Y-158183619D01*
X227281047Y-158421714D02*
X227281047Y-159088380D01*
X227042952Y-158040761D02*
X226804857Y-158755047D01*
X227423904Y-158755047D01*
X225328666Y-165676571D02*
X224995333Y-165676571D01*
X224995333Y-166200380D02*
X224995333Y-165200380D01*
X225471523Y-165200380D01*
X226423904Y-166105142D02*
X226376285Y-166152761D01*
X226233428Y-166200380D01*
X226138190Y-166200380D01*
X225995333Y-166152761D01*
X225900095Y-166057523D01*
X225852476Y-165962285D01*
X225804857Y-165771809D01*
X225804857Y-165628952D01*
X225852476Y-165438476D01*
X225900095Y-165343238D01*
X225995333Y-165248000D01*
X226138190Y-165200380D01*
X226233428Y-165200380D01*
X226376285Y-165248000D01*
X226423904Y-165295619D01*
X226757238Y-165200380D02*
X227376285Y-165200380D01*
X227042952Y-165581333D01*
X227185809Y-165581333D01*
X227281047Y-165628952D01*
X227328666Y-165676571D01*
X227376285Y-165771809D01*
X227376285Y-166009904D01*
X227328666Y-166105142D01*
X227281047Y-166152761D01*
X227185809Y-166200380D01*
X226900095Y-166200380D01*
X226804857Y-166152761D01*
X226757238Y-166105142D01*
X236504666Y-165930571D02*
X236171333Y-165930571D01*
X236171333Y-166454380D02*
X236171333Y-165454380D01*
X236647523Y-165454380D01*
X237599904Y-166359142D02*
X237552285Y-166406761D01*
X237409428Y-166454380D01*
X237314190Y-166454380D01*
X237171333Y-166406761D01*
X237076095Y-166311523D01*
X237028476Y-166216285D01*
X236980857Y-166025809D01*
X236980857Y-165882952D01*
X237028476Y-165692476D01*
X237076095Y-165597238D01*
X237171333Y-165502000D01*
X237314190Y-165454380D01*
X237409428Y-165454380D01*
X237552285Y-165502000D01*
X237599904Y-165549619D01*
X237980857Y-165549619D02*
X238028476Y-165502000D01*
X238123714Y-165454380D01*
X238361809Y-165454380D01*
X238457047Y-165502000D01*
X238504666Y-165549619D01*
X238552285Y-165644857D01*
X238552285Y-165740095D01*
X238504666Y-165882952D01*
X237933238Y-166454380D01*
X238552285Y-166454380D01*
X236504666Y-158818571D02*
X236171333Y-158818571D01*
X236171333Y-159342380D02*
X236171333Y-158342380D01*
X236647523Y-158342380D01*
X237599904Y-159247142D02*
X237552285Y-159294761D01*
X237409428Y-159342380D01*
X237314190Y-159342380D01*
X237171333Y-159294761D01*
X237076095Y-159199523D01*
X237028476Y-159104285D01*
X236980857Y-158913809D01*
X236980857Y-158770952D01*
X237028476Y-158580476D01*
X237076095Y-158485238D01*
X237171333Y-158390000D01*
X237314190Y-158342380D01*
X237409428Y-158342380D01*
X237552285Y-158390000D01*
X237599904Y-158437619D01*
X238552285Y-159342380D02*
X237980857Y-159342380D01*
X238266571Y-159342380D02*
X238266571Y-158342380D01*
X238171333Y-158485238D01*
X238076095Y-158580476D01*
X237980857Y-158628095D01*
X246216380Y-139196571D02*
X246216380Y-139672761D01*
X245216380Y-139672761D01*
X245692571Y-138863238D02*
X245692571Y-138529904D01*
X246216380Y-138387047D02*
X246216380Y-138863238D01*
X245216380Y-138863238D01*
X245216380Y-138387047D01*
X246216380Y-137958476D02*
X245216380Y-137958476D01*
X245216380Y-137720380D01*
X245264000Y-137577523D01*
X245359238Y-137482285D01*
X245454476Y-137434666D01*
X245644952Y-137387047D01*
X245787809Y-137387047D01*
X245978285Y-137434666D01*
X246073523Y-137482285D01*
X246168761Y-137577523D01*
X246216380Y-137720380D01*
X246216380Y-137958476D01*
X245216380Y-136910857D02*
X245406857Y-137006095D01*
X246168761Y-136529904D02*
X246216380Y-136434666D01*
X246216380Y-136244190D01*
X246168761Y-136148952D01*
X246073523Y-136101333D01*
X246025904Y-136101333D01*
X245930666Y-136148952D01*
X245883047Y-136244190D01*
X245883047Y-136387047D01*
X245835428Y-136482285D01*
X245740190Y-136529904D01*
X245692571Y-136529904D01*
X245597333Y-136482285D01*
X245549714Y-136387047D01*
X245549714Y-136244190D01*
X245597333Y-136148952D01*
X246216380Y-135672761D02*
X245216380Y-135672761D01*
X245216380Y-135434666D01*
X245264000Y-135291809D01*
X245359238Y-135196571D01*
X245454476Y-135148952D01*
X245644952Y-135101333D01*
X245787809Y-135101333D01*
X245978285Y-135148952D01*
X246073523Y-135196571D01*
X246168761Y-135291809D01*
X246216380Y-135434666D01*
X246216380Y-135672761D01*
X246216380Y-134672761D02*
X245549714Y-134672761D01*
X245740190Y-134672761D02*
X245644952Y-134625142D01*
X245597333Y-134577523D01*
X245549714Y-134482285D01*
X245549714Y-134387047D01*
X246216380Y-134053714D02*
X245549714Y-134053714D01*
X245216380Y-134053714D02*
X245264000Y-134101333D01*
X245311619Y-134053714D01*
X245264000Y-134006095D01*
X245216380Y-134053714D01*
X245311619Y-134053714D01*
X245549714Y-133672761D02*
X246216380Y-133434666D01*
X245549714Y-133196571D01*
X246168761Y-132434666D02*
X246216380Y-132529904D01*
X246216380Y-132720380D01*
X246168761Y-132815619D01*
X246073523Y-132863238D01*
X245692571Y-132863238D01*
X245597333Y-132815619D01*
X245549714Y-132720380D01*
X245549714Y-132529904D01*
X245597333Y-132434666D01*
X245692571Y-132387047D01*
X245787809Y-132387047D01*
X245883047Y-132863238D01*
X246216380Y-131958476D02*
X245549714Y-131958476D01*
X245740190Y-131958476D02*
X245644952Y-131910857D01*
X245597333Y-131863238D01*
X245549714Y-131768000D01*
X245549714Y-131672761D01*
X246216380Y-130815619D02*
X246216380Y-131387047D01*
X246216380Y-131101333D02*
X245216380Y-131101333D01*
X245359238Y-131196571D01*
X245454476Y-131291809D01*
X245502095Y-131387047D01*
X246592380Y-145150095D02*
X245592380Y-145150095D01*
X245592380Y-144912000D01*
X245640000Y-144769142D01*
X245735238Y-144673904D01*
X245830476Y-144626285D01*
X246020952Y-144578666D01*
X246163809Y-144578666D01*
X246354285Y-144626285D01*
X246449523Y-144673904D01*
X246544761Y-144769142D01*
X246592380Y-144912000D01*
X246592380Y-145150095D01*
X245925714Y-143721523D02*
X246592380Y-143721523D01*
X245544761Y-143959619D02*
X246259047Y-144197714D01*
X246259047Y-143578666D01*
X241004380Y-145150095D02*
X240004380Y-145150095D01*
X240004380Y-144912000D01*
X240052000Y-144769142D01*
X240147238Y-144673904D01*
X240242476Y-144626285D01*
X240432952Y-144578666D01*
X240575809Y-144578666D01*
X240766285Y-144626285D01*
X240861523Y-144673904D01*
X240956761Y-144769142D01*
X241004380Y-144912000D01*
X241004380Y-145150095D01*
X240004380Y-144245333D02*
X240004380Y-143626285D01*
X240385333Y-143959619D01*
X240385333Y-143816761D01*
X240432952Y-143721523D01*
X240480571Y-143673904D01*
X240575809Y-143626285D01*
X240813904Y-143626285D01*
X240909142Y-143673904D01*
X240956761Y-143721523D01*
X241004380Y-143816761D01*
X241004380Y-144102476D01*
X240956761Y-144197714D01*
X240909142Y-144245333D01*
X235416380Y-145150095D02*
X234416380Y-145150095D01*
X234416380Y-144912000D01*
X234464000Y-144769142D01*
X234559238Y-144673904D01*
X234654476Y-144626285D01*
X234844952Y-144578666D01*
X234987809Y-144578666D01*
X235178285Y-144626285D01*
X235273523Y-144673904D01*
X235368761Y-144769142D01*
X235416380Y-144912000D01*
X235416380Y-145150095D01*
X234511619Y-144197714D02*
X234464000Y-144150095D01*
X234416380Y-144054857D01*
X234416380Y-143816761D01*
X234464000Y-143721523D01*
X234511619Y-143673904D01*
X234606857Y-143626285D01*
X234702095Y-143626285D01*
X234844952Y-143673904D01*
X235416380Y-144245333D01*
X235416380Y-143626285D01*
X229828380Y-145150095D02*
X228828380Y-145150095D01*
X228828380Y-144912000D01*
X228876000Y-144769142D01*
X228971238Y-144673904D01*
X229066476Y-144626285D01*
X229256952Y-144578666D01*
X229399809Y-144578666D01*
X229590285Y-144626285D01*
X229685523Y-144673904D01*
X229780761Y-144769142D01*
X229828380Y-144912000D01*
X229828380Y-145150095D01*
X229828380Y-143626285D02*
X229828380Y-144197714D01*
X229828380Y-143912000D02*
X228828380Y-143912000D01*
X228971238Y-144007238D01*
X229066476Y-144102476D01*
X229114095Y-144197714D01*
X232512952Y-130354666D02*
X232989142Y-130354666D01*
X232417714Y-130640380D02*
X232751047Y-129640380D01*
X233084380Y-130640380D01*
X233417714Y-130640380D02*
X233417714Y-129973714D01*
X233417714Y-130164190D02*
X233465333Y-130068952D01*
X233512952Y-130021333D01*
X233608190Y-129973714D01*
X233703428Y-129973714D01*
X234465333Y-130640380D02*
X234465333Y-129640380D01*
X234465333Y-130592761D02*
X234370095Y-130640380D01*
X234179619Y-130640380D01*
X234084380Y-130592761D01*
X234036761Y-130545142D01*
X233989142Y-130449904D01*
X233989142Y-130164190D01*
X234036761Y-130068952D01*
X234084380Y-130021333D01*
X234179619Y-129973714D01*
X234370095Y-129973714D01*
X234465333Y-130021333D01*
X235370095Y-129973714D02*
X235370095Y-130640380D01*
X234941523Y-129973714D02*
X234941523Y-130497523D01*
X234989142Y-130592761D01*
X235084380Y-130640380D01*
X235227238Y-130640380D01*
X235322476Y-130592761D01*
X235370095Y-130545142D01*
X235846285Y-130640380D02*
X235846285Y-129973714D01*
X235846285Y-129640380D02*
X235798666Y-129688000D01*
X235846285Y-129735619D01*
X235893904Y-129688000D01*
X235846285Y-129640380D01*
X235846285Y-129735619D01*
X236322476Y-129973714D02*
X236322476Y-130640380D01*
X236322476Y-130068952D02*
X236370095Y-130021333D01*
X236465333Y-129973714D01*
X236608190Y-129973714D01*
X236703428Y-130021333D01*
X236751047Y-130116571D01*
X236751047Y-130640380D01*
X237370095Y-130640380D02*
X237274857Y-130592761D01*
X237227238Y-130545142D01*
X237179619Y-130449904D01*
X237179619Y-130164190D01*
X237227238Y-130068952D01*
X237274857Y-130021333D01*
X237370095Y-129973714D01*
X237512952Y-129973714D01*
X237608190Y-130021333D01*
X237655809Y-130068952D01*
X237703428Y-130164190D01*
X237703428Y-130449904D01*
X237655809Y-130545142D01*
X237608190Y-130592761D01*
X237512952Y-130640380D01*
X237370095Y-130640380D01*
X237893904Y-130735619D02*
X238655809Y-130735619D01*
X238893904Y-129973714D02*
X238893904Y-130973714D01*
X238893904Y-130021333D02*
X238989142Y-129973714D01*
X239179619Y-129973714D01*
X239274857Y-130021333D01*
X239322476Y-130068952D01*
X239370095Y-130164190D01*
X239370095Y-130449904D01*
X239322476Y-130545142D01*
X239274857Y-130592761D01*
X239179619Y-130640380D01*
X238989142Y-130640380D01*
X238893904Y-130592761D01*
X239941523Y-130640380D02*
X239846285Y-130592761D01*
X239798666Y-130545142D01*
X239751047Y-130449904D01*
X239751047Y-130164190D01*
X239798666Y-130068952D01*
X239846285Y-130021333D01*
X239941523Y-129973714D01*
X240084380Y-129973714D01*
X240179619Y-130021333D01*
X240227238Y-130068952D01*
X240274857Y-130164190D01*
X240274857Y-130449904D01*
X240227238Y-130545142D01*
X240179619Y-130592761D01*
X240084380Y-130640380D01*
X239941523Y-130640380D01*
X240608190Y-129973714D02*
X240798666Y-130640380D01*
X240989142Y-130164190D01*
X241179619Y-130640380D01*
X241370095Y-129973714D01*
X242132000Y-130592761D02*
X242036761Y-130640380D01*
X241846285Y-130640380D01*
X241751047Y-130592761D01*
X241703428Y-130497523D01*
X241703428Y-130116571D01*
X241751047Y-130021333D01*
X241846285Y-129973714D01*
X242036761Y-129973714D01*
X242132000Y-130021333D01*
X242179619Y-130116571D01*
X242179619Y-130211809D01*
X241703428Y-130307047D01*
X242608190Y-130640380D02*
X242608190Y-129973714D01*
X242608190Y-130164190D02*
X242655809Y-130068952D01*
X242703428Y-130021333D01*
X242798666Y-129973714D01*
X242893904Y-129973714D01*
X242989142Y-130735619D02*
X243751047Y-130735619D01*
X243989142Y-129973714D02*
X243989142Y-130973714D01*
X243989142Y-130021333D02*
X244084380Y-129973714D01*
X244274857Y-129973714D01*
X244370095Y-130021333D01*
X244417714Y-130068952D01*
X244465333Y-130164190D01*
X244465333Y-130449904D01*
X244417714Y-130545142D01*
X244370095Y-130592761D01*
X244274857Y-130640380D01*
X244084380Y-130640380D01*
X243989142Y-130592761D01*
X245036761Y-130640380D02*
X244941523Y-130592761D01*
X244893904Y-130497523D01*
X244893904Y-129640380D01*
X245846285Y-129973714D02*
X245846285Y-130640380D01*
X245417714Y-129973714D02*
X245417714Y-130497523D01*
X245465333Y-130592761D01*
X245560571Y-130640380D01*
X245703428Y-130640380D01*
X245798666Y-130592761D01*
X245846285Y-130545142D01*
X246751047Y-129973714D02*
X246751047Y-130783238D01*
X246703428Y-130878476D01*
X246655809Y-130926095D01*
X246560571Y-130973714D01*
X246417714Y-130973714D01*
X246322476Y-130926095D01*
X246751047Y-130592761D02*
X246655809Y-130640380D01*
X246465333Y-130640380D01*
X246370095Y-130592761D01*
X246322476Y-130545142D01*
X246274857Y-130449904D01*
X246274857Y-130164190D01*
X246322476Y-130068952D01*
X246370095Y-130021333D01*
X246465333Y-129973714D01*
X246655809Y-129973714D01*
X246751047Y-130021333D01*
X247751047Y-130640380D02*
X247179619Y-130640380D01*
X247465333Y-130640380D02*
X247465333Y-129640380D01*
X247370095Y-129783238D01*
X247274857Y-129878476D01*
X247179619Y-129926095D01*
M02*
