G04 #@! TF.GenerationSoftware,KiCad,Pcbnew,5.1.5-52549c5~84~ubuntu18.04.1*
G04 #@! TF.CreationDate,2020-09-18T13:51:25-05:00*
G04 #@! TF.ProjectId,pcb,7063622e-6b69-4636-9164-5f7063625858,rev?*
G04 #@! TF.SameCoordinates,Original*
G04 #@! TF.FileFunction,Legend,Bot*
G04 #@! TF.FilePolarity,Positive*
%FSLAX46Y46*%
G04 Gerber Fmt 4.6, Leading zero omitted, Abs format (unit mm)*
G04 Created by KiCad (PCBNEW 5.1.5-52549c5~84~ubuntu18.04.1) date 2020-09-18 13:51:25*
%MOMM*%
%LPD*%
G04 APERTURE LIST*
%ADD10C,0.150000*%
G04 APERTURE END LIST*
D10*
X173141995Y-138311578D02*
X173141843Y-138121102D01*
X173094148Y-138025902D01*
X173046491Y-137978321D01*
X172903558Y-137883197D01*
X172713044Y-137835731D01*
X172332091Y-137836035D01*
X172236891Y-137883730D01*
X172189310Y-137931387D01*
X172141767Y-138026663D01*
X172141920Y-138217139D01*
X172189615Y-138312339D01*
X172237272Y-138359920D01*
X172332548Y-138407463D01*
X172570643Y-138407273D01*
X172665843Y-138359578D01*
X172713424Y-138311921D01*
X172760967Y-138216645D01*
X172760815Y-138026169D01*
X172713120Y-137930969D01*
X172665463Y-137883388D01*
X172570186Y-137835845D01*
X173047138Y-138787845D02*
X173094795Y-138835426D01*
X173142490Y-138930626D01*
X173142680Y-139168721D01*
X173095137Y-139263997D01*
X173047556Y-139311654D01*
X172952356Y-139359349D01*
X172857118Y-139359425D01*
X172714223Y-139311921D01*
X172142338Y-138740949D01*
X172142833Y-139359996D01*
X172190832Y-139836148D02*
X172143213Y-139836187D01*
X172047937Y-139788644D01*
X172000280Y-139741063D01*
X173143936Y-140740149D02*
X173143555Y-140263959D01*
X172667327Y-140216720D01*
X172714984Y-140264301D01*
X172762679Y-140359501D01*
X172762870Y-140597596D01*
X172715327Y-140692872D01*
X172667746Y-140740530D01*
X172572546Y-140788225D01*
X172334451Y-140788415D01*
X172239174Y-140740872D01*
X172191517Y-140693291D01*
X172143822Y-140598091D01*
X172143632Y-140359996D01*
X172191175Y-140264720D01*
X172238756Y-140217063D01*
X173144240Y-141121101D02*
X173144773Y-141787768D01*
X172144431Y-141359996D01*
X173145230Y-142359196D02*
X173145306Y-142454434D01*
X173097763Y-142549710D01*
X173050182Y-142597367D01*
X172954982Y-142645063D01*
X172764544Y-142692834D01*
X172526449Y-142693024D01*
X172335935Y-142645557D01*
X172240658Y-142598014D01*
X172193001Y-142550433D01*
X172145306Y-142455233D01*
X172145230Y-142359995D01*
X172192773Y-142264719D01*
X172240354Y-142217062D01*
X172335554Y-142169367D01*
X172525992Y-142121596D01*
X172764087Y-142121405D01*
X172954601Y-142168872D01*
X173049878Y-142216415D01*
X173097535Y-142263996D01*
X173145230Y-142359196D01*
X172146448Y-143883804D02*
X172813114Y-143883272D01*
X172717876Y-143883348D02*
X172765533Y-143930929D01*
X172813228Y-144026129D01*
X172813343Y-144168986D01*
X172765800Y-144264262D01*
X172670600Y-144311957D01*
X172146790Y-144312376D01*
X172670600Y-144311957D02*
X172765876Y-144359500D01*
X172813571Y-144454700D01*
X172813685Y-144597557D01*
X172766142Y-144692833D01*
X172670942Y-144740528D01*
X172147133Y-144740947D01*
X172147513Y-145217137D02*
X172814180Y-145216604D01*
X172718942Y-145216681D02*
X172766599Y-145264262D01*
X172814294Y-145359462D01*
X172814408Y-145502319D01*
X172766865Y-145597595D01*
X172671665Y-145645290D01*
X172147856Y-145645708D01*
X172671665Y-145645290D02*
X172766941Y-145692833D01*
X172814636Y-145788033D01*
X172814751Y-145930890D01*
X172767208Y-146026166D01*
X172672008Y-146073861D01*
X172148198Y-146074280D01*
X173922307Y-173262643D02*
X173872307Y-110692643D01*
X177230000Y-173260000D02*
X173335887Y-173263112D01*
X177180000Y-110690000D02*
X173285887Y-110693112D01*
X173872307Y-110692643D02*
X174459628Y-111818678D01*
X173872307Y-110692643D02*
X173286787Y-111819615D01*
X173922307Y-173262643D02*
X174507827Y-172135671D01*
X173922307Y-173262643D02*
X173334986Y-172136608D01*
X208392463Y-106460391D02*
X209059130Y-106460862D01*
X208629852Y-107460559D01*
X209630558Y-106461266D02*
X209725796Y-106461333D01*
X209821001Y-106509019D01*
X209868586Y-106556672D01*
X209916138Y-106651943D01*
X209963622Y-106842453D01*
X209963454Y-107080548D01*
X209915701Y-107270991D01*
X209868014Y-107366195D01*
X209820362Y-107413781D01*
X209725090Y-107461333D01*
X209629852Y-107461265D01*
X209534647Y-107413579D01*
X209487062Y-107365926D01*
X209439510Y-107270655D01*
X209392026Y-107080145D01*
X209392194Y-106842050D01*
X209439947Y-106651607D01*
X209487634Y-106556403D01*
X209535286Y-106508817D01*
X209630558Y-106461266D01*
X210439409Y-107414218D02*
X210439375Y-107461837D01*
X210391689Y-107557041D01*
X210344036Y-107604627D01*
X211011207Y-106890812D02*
X210916003Y-106843126D01*
X210868418Y-106795473D01*
X210820866Y-106700201D01*
X210820899Y-106652582D01*
X210868586Y-106557378D01*
X210916238Y-106509793D01*
X211011510Y-106462241D01*
X211201986Y-106462375D01*
X211297191Y-106510062D01*
X211344776Y-106557714D01*
X211392328Y-106652986D01*
X211392294Y-106700605D01*
X211344608Y-106795809D01*
X211296955Y-106843395D01*
X211201684Y-106890947D01*
X211011207Y-106890812D01*
X210915936Y-106938364D01*
X210868283Y-106985949D01*
X210820597Y-107081154D01*
X210820462Y-107271630D01*
X210868014Y-107366902D01*
X210915599Y-107414554D01*
X211010804Y-107462241D01*
X211201280Y-107462375D01*
X211296552Y-107414823D01*
X211344204Y-107367238D01*
X211391891Y-107272033D01*
X211392025Y-107081557D01*
X211344473Y-106986286D01*
X211296888Y-106938633D01*
X211201684Y-106890947D01*
X212011510Y-106462947D02*
X212106748Y-106463014D01*
X212201952Y-106510701D01*
X212249538Y-106558353D01*
X212297090Y-106653625D01*
X212344574Y-106844135D01*
X212344406Y-107082230D01*
X212296652Y-107272672D01*
X212248966Y-107367877D01*
X212201313Y-107415462D01*
X212106042Y-107463014D01*
X212010804Y-107462947D01*
X211915599Y-107415260D01*
X211868014Y-107367608D01*
X211820462Y-107272336D01*
X211772977Y-107081826D01*
X211773146Y-106843731D01*
X211820899Y-106653289D01*
X211868585Y-106558084D01*
X211916238Y-106510499D01*
X212011510Y-106462947D01*
X212963891Y-106463620D02*
X213059129Y-106463687D01*
X213154333Y-106511373D01*
X213201918Y-106559026D01*
X213249470Y-106654298D01*
X213296955Y-106844807D01*
X213296787Y-107082902D01*
X213249033Y-107273345D01*
X213201347Y-107368549D01*
X213153694Y-107416135D01*
X213058422Y-107463687D01*
X212963184Y-107463619D01*
X212867980Y-107415933D01*
X212820394Y-107368280D01*
X212772843Y-107273009D01*
X212725358Y-107082499D01*
X212725526Y-106844404D01*
X212773280Y-106653961D01*
X212820966Y-106558757D01*
X212868619Y-106511171D01*
X212963891Y-106463620D01*
X214486993Y-107464696D02*
X214487464Y-106798029D01*
X214487397Y-106893267D02*
X214535050Y-106845682D01*
X214630321Y-106798130D01*
X214773178Y-106798231D01*
X214868383Y-106845917D01*
X214915935Y-106941189D01*
X214915565Y-107464998D01*
X214915935Y-106941189D02*
X214963621Y-106845984D01*
X215058893Y-106798433D01*
X215201750Y-106798533D01*
X215296954Y-106846220D01*
X215344506Y-106941491D01*
X215344136Y-107465301D01*
X215820326Y-107465637D02*
X215820797Y-106798971D01*
X215820730Y-106894209D02*
X215868383Y-106846623D01*
X215963654Y-106799072D01*
X216106511Y-106799172D01*
X216201716Y-106846859D01*
X216249268Y-106942130D01*
X216248898Y-107465940D01*
X216249268Y-106942130D02*
X216296954Y-106846926D01*
X216392226Y-106799374D01*
X216535083Y-106799475D01*
X216630287Y-106847161D01*
X216677839Y-106942433D01*
X216677469Y-107466242D01*
X247981634Y-108335970D02*
X177181634Y-108285970D01*
X247980000Y-110650000D02*
X247982048Y-107749549D01*
X177180000Y-110600000D02*
X177182048Y-107699549D01*
X177181634Y-108285970D02*
X178308552Y-107700345D01*
X177181634Y-108285970D02*
X178307723Y-108873186D01*
X247981634Y-108335970D02*
X246855545Y-107748754D01*
X247981634Y-108335970D02*
X246854716Y-108921595D01*
M02*
