M48
; DRILL file {KiCad 5.1.5-52549c5~84~ubuntu18.04.1} date vie 18 sep 2020 13:52:42 -05
; FORMAT={-:-/ absolute / metric / decimal}
; #@! TF.CreationDate,2020-09-18T13:52:42-05:00
; #@! TF.GenerationSoftware,Kicad,Pcbnew,5.1.5-52549c5~84~ubuntu18.04.1
; #@! TF.FileFunction,Plated,1,2,PTH
FMAT,2
METRIC
T1C0.800
T2C0.900
T3C1.000
T4C1.100
%
G90
G05
T1
X232.004Y-148.73
X232.004Y-156.35
X206.086Y-117.234
X206.086Y-119.774
X206.086Y-122.314
X206.086Y-124.854
X206.086Y-127.394
X206.086Y-129.934
X206.086Y-132.474
X206.086Y-135.014
X206.086Y-137.554
X206.086Y-140.094
X206.086Y-142.634
X206.086Y-145.174
X206.086Y-147.714
X206.086Y-150.254
X206.086Y-152.794
X221.326Y-117.234
X221.326Y-119.774
X221.326Y-122.314
X221.326Y-124.854
X221.326Y-127.394
X221.326Y-129.934
X221.326Y-132.474
X221.326Y-135.014
X221.326Y-137.554
X221.326Y-140.094
X221.326Y-142.634
X221.326Y-145.174
X221.326Y-147.714
X221.326Y-150.254
X221.326Y-152.794
X225.654Y-131.458
X225.654Y-139.078
X228.194Y-131.458
X228.194Y-139.078
X230.734Y-131.458
X230.734Y-139.078
X233.274Y-131.458
X233.274Y-139.078
X235.814Y-131.458
X235.814Y-139.078
X238.354Y-131.458
X238.354Y-139.078
X240.894Y-131.458
X240.894Y-139.078
X243.434Y-131.458
X243.434Y-139.078
X226.416Y-148.73
X226.416Y-156.35
X211.176Y-161.43
X211.176Y-169.05
X221.336Y-161.43
X221.336Y-169.05
X243.18Y-148.73
X243.18Y-156.35
X237.592Y-148.73
X237.592Y-156.35
X216.256Y-161.43
X216.256Y-169.05
X206.096Y-161.43
X206.096Y-169.05
T2
X232.004Y-143.142
X232.004Y-145.682
X226.416Y-143.142
X226.416Y-145.682
X243.18Y-143.142
X243.18Y-145.682
X237.592Y-143.142
X237.592Y-145.682
T3
X182.08Y-156.648
X182.08Y-159.188
X182.08Y-161.728
X182.08Y-164.268
X226.924Y-168.542
X229.464Y-168.542
X232.004Y-168.542
X226.67Y-161.43
X229.21Y-161.43
X231.75Y-161.43
X237.846Y-168.542
X240.386Y-168.542
X242.926Y-168.542
X182.22Y-119.774
X182.22Y-122.314
X182.22Y-124.854
X182.22Y-127.394
X237.846Y-161.43
X240.386Y-161.43
X242.926Y-161.43
T4
X186.144Y-151.568
X186.144Y-154.108
X186.144Y-156.648
X186.144Y-159.188
X186.144Y-161.728
X186.144Y-164.268
X186.144Y-166.808
X186.144Y-169.348
X198.844Y-151.568
X198.844Y-154.108
X198.844Y-156.648
X198.844Y-159.188
X198.844Y-161.728
X198.844Y-164.268
X198.844Y-166.808
X198.844Y-169.348
X186.284Y-114.694
X186.284Y-117.234
X186.284Y-119.774
X186.284Y-122.314
X186.284Y-124.854
X186.284Y-127.394
X186.284Y-129.934
X186.284Y-132.474
X198.984Y-114.694
X198.984Y-117.234
X198.984Y-119.774
X198.984Y-122.314
X198.984Y-124.854
X198.984Y-127.394
X198.984Y-129.934
X198.984Y-132.474
T3
G00X185.21Y-141.05
M15
G01X185.21Y-143.05
M16
G05
G00X187.21Y-146.75
M15
G01X189.21Y-146.75
M16
G05
G00X191.21Y-141.05
M15
G01X191.21Y-143.05
M16
G05
G00X234.036Y-124.838
M15
G01X234.036Y-122.838
M16
G05
G00X238.036Y-119.138
M15
G01X236.036Y-119.138
M16
G05
G00X240.036Y-124.838
M15
G01X240.036Y-122.838
M16
G05
T0
M30
