G04 #@! TF.GenerationSoftware,KiCad,Pcbnew,5.1.5-52549c5~84~ubuntu18.04.1*
G04 #@! TF.CreationDate,2020-09-18T13:51:24-05:00*
G04 #@! TF.ProjectId,pcb,7063622e-6b69-4636-9164-5f7063625858,rev?*
G04 #@! TF.SameCoordinates,Original*
G04 #@! TF.FileFunction,Copper,L1,Top*
G04 #@! TF.FilePolarity,Positive*
%FSLAX46Y46*%
G04 Gerber Fmt 4.6, Leading zero omitted, Abs format (unit mm)*
G04 Created by KiCad (PCBNEW 5.1.5-52549c5~84~ubuntu18.04.1) date 2020-09-18 13:51:24*
%MOMM*%
%LPD*%
G04 APERTURE LIST*
%ADD10O,1.600000X1.600000*%
%ADD11C,1.600000*%
%ADD12R,1.600000X1.600000*%
%ADD13O,1.700000X1.700000*%
%ADD14R,1.700000X1.700000*%
%ADD15C,0.150000*%
%ADD16R,3.500000X3.500000*%
%ADD17C,1.650000*%
%ADD18R,1.650000X1.650000*%
%ADD19O,1.600000X2.400000*%
%ADD20R,1.600000X2.400000*%
%ADD21C,1.800000*%
%ADD22R,1.800000X1.800000*%
G04 APERTURE END LIST*
D10*
X221336000Y-169050000D03*
D11*
X221336000Y-161430000D03*
D12*
X206086000Y-117234000D03*
D10*
X221326000Y-150254000D03*
X206086000Y-119774000D03*
X221326000Y-147714000D03*
X206086000Y-122314000D03*
X221326000Y-145174000D03*
X206086000Y-124854000D03*
X221326000Y-142634000D03*
X206086000Y-127394000D03*
X221326000Y-140094000D03*
X206086000Y-129934000D03*
X221326000Y-137554000D03*
X206086000Y-132474000D03*
X221326000Y-135014000D03*
X206086000Y-135014000D03*
X221326000Y-132474000D03*
X206086000Y-137554000D03*
X221326000Y-129934000D03*
X206086000Y-140094000D03*
X221326000Y-127394000D03*
X206086000Y-142634000D03*
X221326000Y-124854000D03*
X206086000Y-145174000D03*
X221326000Y-122314000D03*
X206086000Y-147714000D03*
X221326000Y-119774000D03*
X206086000Y-150254000D03*
X221326000Y-117234000D03*
X206086000Y-152794000D03*
X221326000Y-152794000D03*
D13*
X182220000Y-119774000D03*
X182220000Y-122314000D03*
X182220000Y-124854000D03*
D14*
X182220000Y-127394000D03*
D10*
X243180000Y-148730000D03*
D11*
X243180000Y-156350000D03*
D10*
X237592000Y-148730000D03*
D11*
X237592000Y-156350000D03*
D10*
X232004000Y-148730000D03*
D11*
X232004000Y-156350000D03*
D10*
X226416000Y-148730000D03*
D11*
X226416000Y-156350000D03*
D10*
X206096000Y-169050000D03*
D11*
X206096000Y-161430000D03*
D10*
X211176000Y-169050000D03*
D11*
X211176000Y-161430000D03*
D10*
X216256000Y-169050000D03*
D11*
X216256000Y-161430000D03*
G04 #@! TA.AperFunction,ComponentPad*
D15*
G36*
X189170765Y-145004213D02*
G01*
X189255704Y-145016813D01*
X189338999Y-145037677D01*
X189419848Y-145066605D01*
X189497472Y-145103319D01*
X189571124Y-145147464D01*
X189640094Y-145198616D01*
X189703718Y-145256282D01*
X189761384Y-145319906D01*
X189812536Y-145388876D01*
X189856681Y-145462528D01*
X189893395Y-145540152D01*
X189922323Y-145621001D01*
X189943187Y-145704296D01*
X189955787Y-145789235D01*
X189960000Y-145875000D01*
X189960000Y-147625000D01*
X189955787Y-147710765D01*
X189943187Y-147795704D01*
X189922323Y-147878999D01*
X189893395Y-147959848D01*
X189856681Y-148037472D01*
X189812536Y-148111124D01*
X189761384Y-148180094D01*
X189703718Y-148243718D01*
X189640094Y-148301384D01*
X189571124Y-148352536D01*
X189497472Y-148396681D01*
X189419848Y-148433395D01*
X189338999Y-148462323D01*
X189255704Y-148483187D01*
X189170765Y-148495787D01*
X189085000Y-148500000D01*
X187335000Y-148500000D01*
X187249235Y-148495787D01*
X187164296Y-148483187D01*
X187081001Y-148462323D01*
X187000152Y-148433395D01*
X186922528Y-148396681D01*
X186848876Y-148352536D01*
X186779906Y-148301384D01*
X186716282Y-148243718D01*
X186658616Y-148180094D01*
X186607464Y-148111124D01*
X186563319Y-148037472D01*
X186526605Y-147959848D01*
X186497677Y-147878999D01*
X186476813Y-147795704D01*
X186464213Y-147710765D01*
X186460000Y-147625000D01*
X186460000Y-145875000D01*
X186464213Y-145789235D01*
X186476813Y-145704296D01*
X186497677Y-145621001D01*
X186526605Y-145540152D01*
X186563319Y-145462528D01*
X186607464Y-145388876D01*
X186658616Y-145319906D01*
X186716282Y-145256282D01*
X186779906Y-145198616D01*
X186848876Y-145147464D01*
X186922528Y-145103319D01*
X187000152Y-145066605D01*
X187081001Y-145037677D01*
X187164296Y-145016813D01*
X187249235Y-145004213D01*
X187335000Y-145000000D01*
X189085000Y-145000000D01*
X189170765Y-145004213D01*
G37*
G04 #@! TD.AperFunction*
G04 #@! TA.AperFunction,ComponentPad*
G36*
X186033513Y-140303611D02*
G01*
X186106318Y-140314411D01*
X186177714Y-140332295D01*
X186247013Y-140357090D01*
X186313548Y-140388559D01*
X186376678Y-140426398D01*
X186435795Y-140470242D01*
X186490330Y-140519670D01*
X186539758Y-140574205D01*
X186583602Y-140633322D01*
X186621441Y-140696452D01*
X186652910Y-140762987D01*
X186677705Y-140832286D01*
X186695589Y-140903682D01*
X186706389Y-140976487D01*
X186710000Y-141050000D01*
X186710000Y-143050000D01*
X186706389Y-143123513D01*
X186695589Y-143196318D01*
X186677705Y-143267714D01*
X186652910Y-143337013D01*
X186621441Y-143403548D01*
X186583602Y-143466678D01*
X186539758Y-143525795D01*
X186490330Y-143580330D01*
X186435795Y-143629758D01*
X186376678Y-143673602D01*
X186313548Y-143711441D01*
X186247013Y-143742910D01*
X186177714Y-143767705D01*
X186106318Y-143785589D01*
X186033513Y-143796389D01*
X185960000Y-143800000D01*
X184460000Y-143800000D01*
X184386487Y-143796389D01*
X184313682Y-143785589D01*
X184242286Y-143767705D01*
X184172987Y-143742910D01*
X184106452Y-143711441D01*
X184043322Y-143673602D01*
X183984205Y-143629758D01*
X183929670Y-143580330D01*
X183880242Y-143525795D01*
X183836398Y-143466678D01*
X183798559Y-143403548D01*
X183767090Y-143337013D01*
X183742295Y-143267714D01*
X183724411Y-143196318D01*
X183713611Y-143123513D01*
X183710000Y-143050000D01*
X183710000Y-141050000D01*
X183713611Y-140976487D01*
X183724411Y-140903682D01*
X183742295Y-140832286D01*
X183767090Y-140762987D01*
X183798559Y-140696452D01*
X183836398Y-140633322D01*
X183880242Y-140574205D01*
X183929670Y-140519670D01*
X183984205Y-140470242D01*
X184043322Y-140426398D01*
X184106452Y-140388559D01*
X184172987Y-140357090D01*
X184242286Y-140332295D01*
X184313682Y-140314411D01*
X184386487Y-140303611D01*
X184460000Y-140300000D01*
X185960000Y-140300000D01*
X186033513Y-140303611D01*
G37*
G04 #@! TD.AperFunction*
D16*
X191210000Y-142050000D03*
D13*
X182080000Y-156648000D03*
X182080000Y-159188000D03*
X182080000Y-161728000D03*
D14*
X182080000Y-164268000D03*
D17*
X186144000Y-151568000D03*
X186144000Y-154108000D03*
X186144000Y-156648000D03*
X186144000Y-159188000D03*
X186144000Y-169348000D03*
X186144000Y-166808000D03*
X186144000Y-164268000D03*
D18*
X198844000Y-169348000D03*
D17*
X198844000Y-166808000D03*
X198844000Y-164268000D03*
X198844000Y-151568000D03*
X198844000Y-154108000D03*
X198844000Y-156648000D03*
X198844000Y-159188000D03*
X186144000Y-161728000D03*
X198844000Y-161728000D03*
X186284000Y-114694000D03*
X186284000Y-117234000D03*
X186284000Y-119774000D03*
X186284000Y-122314000D03*
X186284000Y-132474000D03*
X186284000Y-129934000D03*
X186284000Y-127394000D03*
D18*
X198984000Y-132474000D03*
D17*
X198984000Y-129934000D03*
X198984000Y-127394000D03*
X198984000Y-114694000D03*
X198984000Y-117234000D03*
X198984000Y-119774000D03*
X198984000Y-122314000D03*
X186284000Y-124854000D03*
X198984000Y-124854000D03*
D13*
X226670000Y-161430000D03*
X229210000Y-161430000D03*
D14*
X231750000Y-161430000D03*
D13*
X226924000Y-168542000D03*
X229464000Y-168542000D03*
D14*
X232004000Y-168542000D03*
D13*
X237846000Y-168542000D03*
X240386000Y-168542000D03*
D14*
X242926000Y-168542000D03*
D13*
X237846000Y-161430000D03*
X240386000Y-161430000D03*
D14*
X242926000Y-161430000D03*
D19*
X243434000Y-139078000D03*
X225654000Y-131458000D03*
X240894000Y-139078000D03*
X228194000Y-131458000D03*
X238354000Y-139078000D03*
X230734000Y-131458000D03*
X235814000Y-139078000D03*
X233274000Y-131458000D03*
X233274000Y-139078000D03*
X235814000Y-131458000D03*
X230734000Y-139078000D03*
X238354000Y-131458000D03*
X228194000Y-139078000D03*
X240894000Y-131458000D03*
X225654000Y-139078000D03*
D20*
X243434000Y-131458000D03*
D21*
X243180000Y-145682000D03*
D22*
X243180000Y-143142000D03*
D21*
X237592000Y-145682000D03*
D22*
X237592000Y-143142000D03*
D21*
X232004000Y-145682000D03*
D22*
X232004000Y-143142000D03*
D21*
X226416000Y-145682000D03*
D22*
X226416000Y-143142000D03*
G04 #@! TA.AperFunction,ComponentPad*
D15*
G36*
X237996765Y-117392213D02*
G01*
X238081704Y-117404813D01*
X238164999Y-117425677D01*
X238245848Y-117454605D01*
X238323472Y-117491319D01*
X238397124Y-117535464D01*
X238466094Y-117586616D01*
X238529718Y-117644282D01*
X238587384Y-117707906D01*
X238638536Y-117776876D01*
X238682681Y-117850528D01*
X238719395Y-117928152D01*
X238748323Y-118009001D01*
X238769187Y-118092296D01*
X238781787Y-118177235D01*
X238786000Y-118263000D01*
X238786000Y-120013000D01*
X238781787Y-120098765D01*
X238769187Y-120183704D01*
X238748323Y-120266999D01*
X238719395Y-120347848D01*
X238682681Y-120425472D01*
X238638536Y-120499124D01*
X238587384Y-120568094D01*
X238529718Y-120631718D01*
X238466094Y-120689384D01*
X238397124Y-120740536D01*
X238323472Y-120784681D01*
X238245848Y-120821395D01*
X238164999Y-120850323D01*
X238081704Y-120871187D01*
X237996765Y-120883787D01*
X237911000Y-120888000D01*
X236161000Y-120888000D01*
X236075235Y-120883787D01*
X235990296Y-120871187D01*
X235907001Y-120850323D01*
X235826152Y-120821395D01*
X235748528Y-120784681D01*
X235674876Y-120740536D01*
X235605906Y-120689384D01*
X235542282Y-120631718D01*
X235484616Y-120568094D01*
X235433464Y-120499124D01*
X235389319Y-120425472D01*
X235352605Y-120347848D01*
X235323677Y-120266999D01*
X235302813Y-120183704D01*
X235290213Y-120098765D01*
X235286000Y-120013000D01*
X235286000Y-118263000D01*
X235290213Y-118177235D01*
X235302813Y-118092296D01*
X235323677Y-118009001D01*
X235352605Y-117928152D01*
X235389319Y-117850528D01*
X235433464Y-117776876D01*
X235484616Y-117707906D01*
X235542282Y-117644282D01*
X235605906Y-117586616D01*
X235674876Y-117535464D01*
X235748528Y-117491319D01*
X235826152Y-117454605D01*
X235907001Y-117425677D01*
X235990296Y-117404813D01*
X236075235Y-117392213D01*
X236161000Y-117388000D01*
X237911000Y-117388000D01*
X237996765Y-117392213D01*
G37*
G04 #@! TD.AperFunction*
G04 #@! TA.AperFunction,ComponentPad*
G36*
X240859513Y-122091611D02*
G01*
X240932318Y-122102411D01*
X241003714Y-122120295D01*
X241073013Y-122145090D01*
X241139548Y-122176559D01*
X241202678Y-122214398D01*
X241261795Y-122258242D01*
X241316330Y-122307670D01*
X241365758Y-122362205D01*
X241409602Y-122421322D01*
X241447441Y-122484452D01*
X241478910Y-122550987D01*
X241503705Y-122620286D01*
X241521589Y-122691682D01*
X241532389Y-122764487D01*
X241536000Y-122838000D01*
X241536000Y-124838000D01*
X241532389Y-124911513D01*
X241521589Y-124984318D01*
X241503705Y-125055714D01*
X241478910Y-125125013D01*
X241447441Y-125191548D01*
X241409602Y-125254678D01*
X241365758Y-125313795D01*
X241316330Y-125368330D01*
X241261795Y-125417758D01*
X241202678Y-125461602D01*
X241139548Y-125499441D01*
X241073013Y-125530910D01*
X241003714Y-125555705D01*
X240932318Y-125573589D01*
X240859513Y-125584389D01*
X240786000Y-125588000D01*
X239286000Y-125588000D01*
X239212487Y-125584389D01*
X239139682Y-125573589D01*
X239068286Y-125555705D01*
X238998987Y-125530910D01*
X238932452Y-125499441D01*
X238869322Y-125461602D01*
X238810205Y-125417758D01*
X238755670Y-125368330D01*
X238706242Y-125313795D01*
X238662398Y-125254678D01*
X238624559Y-125191548D01*
X238593090Y-125125013D01*
X238568295Y-125055714D01*
X238550411Y-124984318D01*
X238539611Y-124911513D01*
X238536000Y-124838000D01*
X238536000Y-122838000D01*
X238539611Y-122764487D01*
X238550411Y-122691682D01*
X238568295Y-122620286D01*
X238593090Y-122550987D01*
X238624559Y-122484452D01*
X238662398Y-122421322D01*
X238706242Y-122362205D01*
X238755670Y-122307670D01*
X238810205Y-122258242D01*
X238869322Y-122214398D01*
X238932452Y-122176559D01*
X238998987Y-122145090D01*
X239068286Y-122120295D01*
X239139682Y-122102411D01*
X239212487Y-122091611D01*
X239286000Y-122088000D01*
X240786000Y-122088000D01*
X240859513Y-122091611D01*
G37*
G04 #@! TD.AperFunction*
D16*
X234036000Y-123838000D03*
M02*
